<svg width="22" height="22" viewBox="0 0 22 22" fill="none" xmlns="http://www.w3.org/2000/svg">
<path d="M20.1667 5.9562H14.6667" stroke="white" stroke-width="1.5" stroke-miterlimit="10" stroke-linecap="round" stroke-linejoin="round"/>
<path d="M5.50001 5.9562H1.83334" stroke="white" stroke-width="1.5" stroke-miterlimit="10" stroke-linecap="round" stroke-linejoin="round"/>
<path d="M9.16668 9.16453C10.9386 9.16453 12.375 7.72811 12.375 5.9562C12.375 4.18428 10.9386 2.74786 9.16668 2.74786C7.39476 2.74786 5.95834 4.18428 5.95834 5.9562C5.95834 7.72811 7.39476 9.16453 9.16668 9.16453Z" fill="white" stroke="white" stroke-width="1.5" stroke-miterlimit="10" stroke-linecap="round" stroke-linejoin="round"/>
<path d="M20.1667 16.0395H16.5" stroke="white" stroke-width="1.5" stroke-miterlimit="10" stroke-linecap="round" stroke-linejoin="round"/>
<path d="M7.33334 16.0395H1.83334" stroke="white" stroke-width="1.5" stroke-miterlimit="10" stroke-linecap="round" stroke-linejoin="round"/>
<path d="M12.8333 19.2479C14.6052 19.2479 16.0417 17.8114 16.0417 16.0395C16.0417 14.2676 14.6052 12.8312 12.8333 12.8312C11.0614 12.8312 9.625 14.2676 9.625 16.0395C9.625 17.8114 11.0614 19.2479 12.8333 19.2479Z" fill="white" stroke="white" stroke-width="1.5" stroke-miterlimit="10" stroke-linecap="round" stroke-linejoin="round"/>
</svg>
