<svg width="92" height="31" viewBox="0 0 92 31" fill="none" xmlns="http://www.w3.org/2000/svg">
<g filter="url(#filter0_d_844_1377)">
<path d="M55.0801 6.30029L55.0808 12.9944C55.0812 16.6271 58.0262 19.5718 61.6589 19.5718H67.6771" stroke="#47CFB0" stroke-width="3.50891" stroke-linecap="round"/>
<g filter="url(#filter1_d_844_1377)">
<circle cx="67.1631" cy="14.476" r="5.12738" stroke="#47CFB0" stroke-width="3.50891" shape-rendering="crispEdges"/>
</g>
<path d="M87.5014 7.01306C88.5012 7.01306 89.238 7.77612 89.238 8.80231V18.88C89.238 22.9847 86.7383 25.3791 82.502 25.3791C80.3707 25.3791 78.3972 24.7477 76.8974 23.5636C76.4238 23.2215 76.1607 22.7479 76.1607 22.2743C76.1607 21.3797 76.8711 20.6692 77.7657 20.6692C78.0815 20.6692 78.3972 20.8008 78.713 21.0113C79.8444 21.8007 80.9495 22.169 82.2125 22.169C84.3965 22.169 85.6858 21.0376 85.6858 19.0905V18.38C84.7649 19.3799 83.3966 19.9325 81.7126 19.9325C78.0552 19.9325 75.4766 17.2486 75.4766 13.4596C75.4766 9.67062 78.0552 7.01306 81.7126 7.01306C83.4755 7.01306 84.8701 7.61825 85.7647 8.67075C85.8174 7.7235 86.5804 7.01306 87.5014 7.01306ZM82.4494 16.9329C84.4228 16.9329 85.7384 15.512 85.7384 13.407C85.7384 11.3809 84.4491 10.039 82.4494 10.039C80.4759 10.039 79.0814 11.4336 79.0814 13.4333C79.0814 15.4594 80.5022 16.9329 82.4494 16.9329Z" fill="#47CFB0"/>
<path d="M46.7499 7.01306C49.7232 7.01306 51.644 9.06543 51.644 12.2492V18.8274C51.644 19.8798 50.9073 20.6429 49.8811 20.6429C48.8812 20.6429 48.1182 19.8535 48.1182 18.8274V12.7229C48.1182 11.2231 47.1446 10.1969 45.6974 10.1969C44.2502 10.1969 43.2241 11.2494 43.2241 12.7229V18.8274C43.2241 19.8798 42.461 20.6429 41.4611 20.6429C40.4349 20.6429 39.6719 19.8535 39.6719 18.8274V8.80231C39.6719 7.77612 40.4349 7.01306 41.4348 7.01306C42.2505 7.01306 42.9083 7.56562 43.0925 8.355C44.0134 7.513 45.3027 7.01306 46.7499 7.01306Z" fill="#47CFB0"/>
<path d="M35.0227 0.408691C36.2331 0.408691 37.2593 1.35594 37.2593 2.56631C37.2593 3.75037 36.2331 4.69762 35.0227 4.69762C33.8124 4.69762 32.8125 3.75037 32.8125 2.56631C32.8125 1.35594 33.8124 0.408691 35.0227 0.408691ZM35.0227 20.643C34.0229 20.643 33.2598 19.8536 33.2598 18.8274V8.80236C33.2598 7.77617 34.0229 7.01311 35.0491 7.01311C36.0489 7.01311 36.812 7.77617 36.812 8.80236V18.8274C36.812 19.8536 36.0489 20.643 35.0227 20.643Z" fill="#47CFB0"/>
<path d="M24.8156 7.01191C28.473 7.01191 31.1305 9.85365 31.1305 13.8005C31.1305 17.7474 28.473 20.6418 24.8156 20.6418C23.1842 20.6418 21.8159 20.0629 20.9213 19.063V23.5888C20.9213 24.6149 20.1583 25.378 19.1584 25.378C18.1322 25.378 17.3691 24.6149 17.3691 23.5888V8.74853C17.3691 7.74866 18.1322 6.9856 19.1321 6.9856C20.0793 6.9856 20.7898 7.69603 20.8424 8.66959C21.737 7.6171 23.1316 7.01191 24.8156 7.01191ZM24.1578 17.4053C26.1049 17.4053 27.5257 15.9055 27.5257 13.8268C27.5257 11.7218 26.1312 10.222 24.1578 10.222C22.1843 10.222 20.8687 11.6692 20.8687 13.8005C20.8687 15.9318 22.2106 17.4053 24.1578 17.4053Z" fill="#47CFB0"/>
<path d="M9.26236 20.6424C7.20999 20.6424 4.94712 19.7214 3.65781 18.3006C3.23681 17.8796 3 17.4322 3 16.9323C3.02631 15.9851 3.78937 15.3536 4.63137 15.3536C4.94712 15.3536 5.28918 15.4588 5.55231 15.6956C6.26274 16.4324 7.49943 17.4849 9.26236 17.4849C10.8148 17.4849 11.7357 16.7481 11.7357 15.5641C11.7357 14.5642 11.1305 14.1432 9.52549 13.4064L7.6573 12.5644C4.8945 11.3014 3.44731 9.80164 3.44731 7.56508C3.44731 4.6444 5.92068 2.64465 9.20974 2.64465C11.8147 2.64465 13.3408 3.85503 14.0775 4.69702C14.4459 5.09171 14.5512 5.4864 14.5512 5.82846C14.5512 6.72308 13.7355 7.40721 12.9198 7.40721C12.604 7.40721 12.262 7.30196 11.9462 7.03883C11.2358 6.40733 10.4464 5.80215 9.20974 5.80215C7.94674 5.80215 7.05212 6.40733 7.05212 7.48614C7.05212 8.35445 7.52574 8.77545 9.07818 9.48589L11.0516 10.3542C13.946 11.6435 15.3405 13.0644 15.3405 15.4325C15.3405 18.6426 12.7356 20.6424 9.26236 20.6424Z" fill="#47CFB0"/>
</g>
<defs>
<filter id="filter0_d_844_1377" x="0.660724" y="0.408691" width="90.9168" height="29.649" filterUnits="userSpaceOnUse" color-interpolation-filters="sRGB">
<feFlood flood-opacity="0" result="BackgroundImageFix"/>
<feColorMatrix in="SourceAlpha" type="matrix" values="0 0 0 0 0 0 0 0 0 0 0 0 0 0 0 0 0 0 127 0" result="hardAlpha"/>
<feOffset dy="2.33928"/>
<feGaussianBlur stdDeviation="1.16964"/>
<feComposite in2="hardAlpha" operator="out"/>
<feColorMatrix type="matrix" values="0 0 0 0 0.74082 0 0 0 0 0.74082 0 0 0 0 0.74082 0 0 0 0.25 0"/>
<feBlend mode="normal" in2="BackgroundImageFix" result="effect1_dropShadow_844_1377"/>
<feBlend mode="normal" in="SourceGraphic" in2="effect1_dropShadow_844_1377" result="shape"/>
</filter>
<filter id="filter1_d_844_1377" x="57.942" y="7.59412" width="18.4422" height="18.4422" filterUnits="userSpaceOnUse" color-interpolation-filters="sRGB">
<feFlood flood-opacity="0" result="BackgroundImageFix"/>
<feColorMatrix in="SourceAlpha" type="matrix" values="0 0 0 0 0 0 0 0 0 0 0 0 0 0 0 0 0 0 127 0" result="hardAlpha"/>
<feOffset dy="2.33928"/>
<feGaussianBlur stdDeviation="1.16964"/>
<feComposite in2="hardAlpha" operator="out"/>
<feColorMatrix type="matrix" values="0 0 0 0 0.74082 0 0 0 0 0.74082 0 0 0 0 0.74082 0 0 0 0.25 0"/>
<feBlend mode="normal" in2="BackgroundImageFix" result="effect1_dropShadow_844_1377"/>
<feBlend mode="normal" in="SourceGraphic" in2="effect1_dropShadow_844_1377" result="shape"/>
</filter>
</defs>
</svg>
