<svg width="89" height="29" viewBox="0 0 89 29" fill="none" xmlns="http://www.w3.org/2000/svg">
<g filter="url(#filter0_d_1574_11258)">
<path d="M53.4014 6.05151L53.402 12.5095C53.4024 16.0141 56.2436 18.855 59.7482 18.855H65.5542" stroke="#BCBCBC" stroke-width="3.38518" stroke-linecap="round"/>
<g filter="url(#filter1_d_1574_11258)">
<circle cx="65.0586" cy="13.939" r="4.94658" stroke="#BCBCBC" stroke-width="3.38518" shape-rendering="crispEdges"/>
</g>
<path d="M84.6799 6.73926C85.6445 6.73926 86.3552 7.47541 86.3552 8.46541V18.1877C86.3552 22.1477 83.9437 24.4577 79.8568 24.4577C77.8006 24.4577 75.8968 23.8485 74.4499 22.7062C73.9929 22.3762 73.7391 21.9192 73.7391 21.4623C73.7391 20.5992 74.4245 19.9139 75.2876 19.9139C75.5922 19.9139 75.8968 20.0408 76.2014 20.2439C77.2929 21.0054 78.3591 21.3608 79.5776 21.3608C81.6845 21.3608 82.9283 20.2692 82.9283 18.3908V17.7054C82.0399 18.67 80.7199 19.2031 79.0952 19.2031C75.5668 19.2031 73.0791 16.6139 73.0791 12.9585C73.0791 9.3031 75.5668 6.73926 79.0952 6.73926C80.796 6.73926 82.1414 7.3231 83.0045 8.33849C83.0553 7.42464 83.7914 6.73926 84.6799 6.73926ZM79.806 16.3093C81.7099 16.3093 82.9791 14.9385 82.9791 12.9077C82.9791 10.9531 81.7353 9.65849 79.806 9.65849C77.9022 9.65849 76.5568 11.0039 76.5568 12.9331C76.5568 14.8877 77.9276 16.3093 79.806 16.3093Z" fill="#BCBCBC"/>
<path d="M45.3656 6.73926C48.234 6.73926 50.0871 8.71926 50.0871 11.7908V18.1369C50.0871 19.1523 49.3763 19.8885 48.3863 19.8885C47.4217 19.8885 46.6856 19.1269 46.6856 18.1369V12.2477C46.6856 10.8008 45.7463 9.81079 44.3502 9.81079C42.954 9.81079 41.964 10.8262 41.964 12.2477V18.1369C41.964 19.1523 41.2279 19.8885 40.2633 19.8885C39.2733 19.8885 38.5371 19.1269 38.5371 18.1369V8.46541C38.5371 7.47541 39.2733 6.73926 40.2379 6.73926C41.0248 6.73926 41.6594 7.27234 41.8371 8.03387C42.7256 7.22157 43.9694 6.73926 45.3656 6.73926Z" fill="#BCBCBC"/>
<path d="M34.0517 0.367676C35.2194 0.367676 36.2094 1.28152 36.2094 2.44921C36.2094 3.59152 35.2194 4.50536 34.0517 4.50536C32.884 4.50536 31.9194 3.59152 31.9194 2.44921C31.9194 1.28152 32.884 0.367676 34.0517 0.367676ZM34.0517 19.8884C33.0871 19.8884 32.351 19.1269 32.351 18.1369V8.46536C32.351 7.47536 33.0871 6.73921 34.0771 6.73921C35.0417 6.73921 35.7779 7.47536 35.7779 8.46536V18.1369C35.7779 19.1269 35.0417 19.8884 34.0517 19.8884Z" fill="#BCBCBC"/>
<path d="M24.2043 6.73803C27.7328 6.73803 30.2967 9.47957 30.2967 13.2873C30.2967 17.0949 27.7328 19.8873 24.2043 19.8873C22.6305 19.8873 21.3105 19.3288 20.4474 18.3642V22.7303C20.4474 23.7203 19.7113 24.4565 18.7467 24.4565C17.7567 24.4565 17.0205 23.7203 17.0205 22.7303V8.41342C17.0205 7.4488 17.7567 6.71265 18.7213 6.71265C19.6351 6.71265 20.3205 7.39803 20.3713 8.33726C21.2344 7.32188 22.5797 6.73803 24.2043 6.73803ZM23.5697 16.7649C25.4482 16.7649 26.819 15.318 26.819 13.3126C26.819 11.2819 25.4736 9.83495 23.5697 9.83495C21.6659 9.83495 20.3967 11.2311 20.3967 13.2873C20.3967 15.3434 21.6913 16.7649 23.5697 16.7649Z" fill="#BCBCBC"/>
<path d="M9.19974 19.888C7.21974 19.888 5.03666 18.9995 3.79282 17.6287C3.38666 17.2226 3.1582 16.791 3.1582 16.3087C3.18359 15.3949 3.91974 14.7857 4.73205 14.7857C5.03666 14.7857 5.36666 14.8872 5.62051 15.1157C6.30589 15.8264 7.49897 16.8418 9.19974 16.8418C10.6974 16.8418 11.5859 16.131 11.5859 14.9887C11.5859 14.0241 11.002 13.618 9.45358 12.9072L7.65128 12.0949C4.98589 10.8764 3.58974 9.42951 3.58974 7.27182C3.58974 4.45413 5.97589 2.5249 9.14897 2.5249C11.662 2.5249 13.1344 3.69259 13.8451 4.5049C14.2005 4.88567 14.302 5.26644 14.302 5.59644C14.302 6.45952 13.5151 7.11951 12.7282 7.11951C12.4236 7.11951 12.0936 7.01798 11.789 6.76413C11.1036 6.1549 10.342 5.57105 9.14897 5.57105C7.93051 5.57105 7.06743 6.1549 7.06743 7.19567C7.06743 8.03336 7.52435 8.43951 9.02205 9.1249L10.9259 9.96259C13.7182 11.2064 15.0636 12.5772 15.0636 14.8618C15.0636 17.9587 12.5505 19.888 9.19974 19.888Z" fill="#BCBCBC"/>
</g>
<defs>
<filter id="filter0_d_1574_11258" x="0.901416" y="0.367676" width="87.7108" height="28.6037" filterUnits="userSpaceOnUse" color-interpolation-filters="sRGB">
<feFlood flood-opacity="0" result="BackgroundImageFix"/>
<feColorMatrix in="SourceAlpha" type="matrix" values="0 0 0 0 0 0 0 0 0 0 0 0 0 0 0 0 0 0 127 0" result="hardAlpha"/>
<feOffset dy="2.25679"/>
<feGaussianBlur stdDeviation="1.12839"/>
<feComposite in2="hardAlpha" operator="out"/>
<feColorMatrix type="matrix" values="0 0 0 0 0.74082 0 0 0 0 0.74082 0 0 0 0 0.74082 0 0 0 0.25 0"/>
<feBlend mode="normal" in2="BackgroundImageFix" result="effect1_dropShadow_1574_11258"/>
<feBlend mode="normal" in="SourceGraphic" in2="effect1_dropShadow_1574_11258" result="shape"/>
</filter>
<filter id="filter1_d_1574_11258" x="56.1626" y="7.2998" width="17.7919" height="17.7919" filterUnits="userSpaceOnUse" color-interpolation-filters="sRGB">
<feFlood flood-opacity="0" result="BackgroundImageFix"/>
<feColorMatrix in="SourceAlpha" type="matrix" values="0 0 0 0 0 0 0 0 0 0 0 0 0 0 0 0 0 0 127 0" result="hardAlpha"/>
<feOffset dy="2.25679"/>
<feGaussianBlur stdDeviation="1.12839"/>
<feComposite in2="hardAlpha" operator="out"/>
<feColorMatrix type="matrix" values="0 0 0 0 0.74082 0 0 0 0 0.74082 0 0 0 0 0.74082 0 0 0 0.25 0"/>
<feBlend mode="normal" in2="BackgroundImageFix" result="effect1_dropShadow_1574_11258"/>
<feBlend mode="normal" in="SourceGraphic" in2="effect1_dropShadow_1574_11258" result="shape"/>
</filter>
</defs>
</svg>
