<svg width="25" height="24" viewBox="0 0 25 24" fill="none" xmlns="http://www.w3.org/2000/svg">
<path d="M12.5176 21.93C7.47755 21.93 3.36755 17.83 3.36755 12.78V10.9C3.36755 10.51 3.68755 10.2 4.06755 10.2C4.44755 10.2 4.76755 10.52 4.76755 10.9V12.78C4.76755 17.05 8.23755 20.52 12.5076 20.52C16.7776 20.52 20.2476 17.05 20.2476 12.78V10.9C20.2476 10.51 20.5676 10.2 20.9476 10.2C21.3276 10.2 21.6476 10.52 21.6476 10.9V12.78C21.6676 17.83 17.5576 21.93 12.5176 21.93Z" fill="#9F9F9F"/>
<path d="M12.5176 2C9.1576 2 6.4176 4.74 6.4176 8.1V12.79C6.4176 16.15 9.1576 18.89 12.5176 18.89C15.8776 18.89 18.6176 16.15 18.6176 12.79V8.1C18.6176 4.74 15.8776 2 12.5176 2ZM14.6976 10.59C14.6276 10.86 14.3776 11.04 14.1076 11.04C14.0576 11.04 13.9976 11.03 13.9476 11.02C12.9276 10.74 11.8476 10.74 10.8276 11.02C10.4976 11.11 10.1676 10.92 10.0776 10.59C9.9876 10.27 10.1776 9.93 10.5076 9.84C11.7376 9.5 13.0376 9.5 14.2676 9.84C14.5976 9.93 14.7876 10.26 14.6976 10.59ZM15.5476 7.82C15.4576 8.07 15.2276 8.22 14.9776 8.22C14.9076 8.22 14.8376 8.21 14.7676 8.18C13.2376 7.62 11.5576 7.62 10.0276 8.18C9.7076 8.3 9.3576 8.14 9.2376 7.82C9.1276 7.51 9.2876 7.16 9.6076 7.04C11.4076 6.39 13.3876 6.39 15.1776 7.04C15.4976 7.16 15.6576 7.51 15.5476 7.82Z" fill="#9F9F9F"/>
</svg>
