<svg width="25" height="24" viewBox="0 0 25 24" fill="none" xmlns="http://www.w3.org/2000/svg">
<path d="M2.83252 12.8801V11.1201C2.83252 10.0801 3.68252 9.22006 4.73252 9.22006C6.54252 9.22006 7.28252 7.94006 6.37252 6.37006C5.85252 5.47006 6.16252 4.30006 7.07252 3.78006L8.80252 2.79006C9.59252 2.32006 10.6125 2.60006 11.0825 3.39006L11.1925 3.58006C12.0925 5.15006 13.5725 5.15006 14.4825 3.58006L14.5925 3.39006C15.0625 2.60006 16.0825 2.32006 16.8725 2.79006L18.6025 3.78006C19.5125 4.30006 19.8225 5.47006 19.3025 6.37006C18.3925 7.94006 19.1325 9.22006 20.9425 9.22006C21.9825 9.22006 22.8425 10.0701 22.8425 11.1201V12.8801C22.8425 13.9201 21.9925 14.7801 20.9425 14.7801C19.1325 14.7801 18.3925 16.0601 19.3025 17.6301C19.8225 18.5401 19.5125 19.7001 18.6025 20.2201L16.8725 21.2101C16.0825 21.6801 15.0625 21.4001 14.5925 20.6101L14.4825 20.4201C13.5825 18.8501 12.1025 18.8501 11.1925 20.4201L11.0825 20.6101C10.6125 21.4001 9.59252 21.6801 8.80252 21.2101L7.07252 20.2201C6.16252 19.7001 5.85252 18.5301 6.37252 17.6301C7.28252 16.0601 6.54252 14.7801 4.73252 14.7801C3.68252 14.7801 2.83252 13.9201 2.83252 12.8801Z" fill="white" stroke="white" stroke-width="1.5" stroke-miterlimit="10" stroke-linecap="round" stroke-linejoin="round"/>
<path d="M12.8325 15C14.4894 15 15.8325 13.6569 15.8325 12C15.8325 10.3431 14.4894 9 12.8325 9C11.1757 9 9.83252 10.3431 9.83252 12C9.83252 13.6569 11.1757 15 12.8325 15Z" fill="#47CFB0"/>
</svg>
