<svg width="24" height="25" viewBox="0 0 24 25" fill="none" xmlns="http://www.w3.org/2000/svg">
<path d="M2 13.6808V11.9208C2 10.8808 2.85 10.0208 3.9 10.0208C5.71 10.0208 6.45 8.74084 5.54 7.17084C5.02 6.27084 5.33 5.10084 6.24 4.58084L7.97 3.59084C8.76 3.12084 9.78 3.40084 10.25 4.19084L10.36 4.38084C11.26 5.95084 12.74 5.95084 13.65 4.38084L13.76 4.19084C14.23 3.40084 15.25 3.12084 16.04 3.59084L17.77 4.58084C18.68 5.10084 18.99 6.27084 18.47 7.17084C17.56 8.74084 18.3 10.0208 20.11 10.0208C21.15 10.0208 22.01 10.8708 22.01 11.9208V13.6808C22.01 14.7208 21.16 15.5808 20.11 15.5808C18.3 15.5808 17.56 16.8608 18.47 18.4308C18.99 19.3408 18.68 20.5008 17.77 21.0208L16.04 22.0108C15.25 22.4808 14.23 22.2008 13.76 21.4108L13.65 21.2208C12.75 19.6508 11.27 19.6508 10.36 21.2208L10.25 21.4108C9.78 22.2008 8.76 22.4808 7.97 22.0108L6.24 21.0208C5.33 20.5008 5.02 19.3308 5.54 18.4308C6.45 16.8608 5.71 15.5808 3.9 15.5808C2.85 15.5808 2 14.7208 2 13.6808Z" fill="#BCBCBC" stroke="#BCBCBC" stroke-width="1.5" stroke-miterlimit="10" stroke-linecap="round" stroke-linejoin="round"/>
<path d="M12 15.8008C13.6569 15.8008 15 14.4577 15 12.8008C15 11.144 13.6569 9.80084 12 9.80084C10.3431 9.80084 9 11.144 9 12.8008C9 14.4577 10.3431 15.8008 12 15.8008Z" fill="white"/>
</svg>
