<svg width="25" height="24" viewBox="0 0 25 24" fill="currentColor" xmlns="http://www.w3.org/2000/svg">
<path d="M21.8288 5.23C20.2188 5.07 18.6088 4.95 16.9888 4.86V4.85L16.7688 3.55C16.6188 2.63 16.3988 1.25 14.0588 1.25H11.4388C9.10879 1.25 8.88879 2.57 8.72879 3.54L8.51879 4.82C7.58879 4.88 6.65879 4.94 5.72879 5.03L3.68879 5.23C3.26879 5.27 2.96879 5.64 3.00879 6.05C3.04879 6.46 3.40879 6.76 3.82879 6.72L5.86879 6.52C11.1088 6 16.3888 6.2 21.6888 6.73C21.7188 6.73 21.7388 6.73 21.7688 6.73C22.1488 6.73 22.4788 6.44 22.5188 6.05C22.5488 5.64 22.2488 5.27 21.8288 5.23Z" fill="currentColor"/>
<path d="M19.9888 8.14C19.7488 7.89 19.4188 7.75 19.0788 7.75H6.43878C6.09878 7.75 5.75878 7.89 5.52878 8.14C5.29878 8.39 5.16878 8.73 5.18878 9.08L5.80878 19.34C5.91878 20.86 6.05878 22.76 9.54878 22.76H15.9688C19.4588 22.76 19.5988 20.87 19.7088 19.34L20.3288 9.09C20.3488 8.73 20.2188 8.39 19.9888 8.14ZM14.4188 17.75H11.0888C10.6788 17.75 10.3388 17.41 10.3388 17C10.3388 16.59 10.6788 16.25 11.0888 16.25H14.4188C14.8288 16.25 15.1688 16.59 15.1688 17C15.1688 17.41 14.8288 17.75 14.4188 17.75ZM15.2588 13.75H10.2588C9.84878 13.75 9.50878 13.41 9.50878 13C9.50878 12.59 9.84878 12.25 10.2588 12.25H15.2588C15.6688 12.25 16.0088 12.59 16.0088 13C16.0088 13.41 15.6688 13.75 15.2588 13.75Z" fill="currentColor"/>
</svg>
