<svg width="25" height="25" viewBox="0 0 25 25" fill="none" xmlns="http://www.w3.org/2000/svg">
<path d="M2.72168 10.2784V14.2784C2.72168 16.2784 3.72168 17.2784 5.72168 17.2784H7.15168C7.52168 17.2784 7.89168 17.3884 8.21168 17.5784L11.1317 19.4084C13.6517 20.9884 15.7217 19.8384 15.7217 16.8684V7.68835C15.7217 4.70835 13.6517 3.56835 11.1317 5.14835L8.21168 6.97835C7.89168 7.16835 7.52168 7.27835 7.15168 7.27835H5.72168C3.72168 7.27835 2.72168 8.27835 2.72168 10.2784Z" fill="currentColor" stroke="currentColor" stroke-width="1.5"/>
<path d="M18.7217 8.27832C20.5017 10.6483 20.5017 13.9083 18.7217 16.2783" stroke="currentColor" stroke-width="1.5" stroke-linecap="round" stroke-linejoin="round"/>
<path d="M20.5517 5.77832C23.4417 9.62832 23.4417 14.9283 20.5517 18.7783" stroke="currentColor" stroke-width="1.5" stroke-linecap="round" stroke-linejoin="round"/>
</svg>
