<svg width="25" height="25" viewBox="0 0 25 25" fill="currentColor" xmlns="http://www.w3.org/2000/svg">
<path d="M16.4332 2.97635C16.0232 2.56635 15.3132 2.84635 15.3132 3.41635V6.90635C15.3132 8.36635 16.5532 9.57635 18.0632 9.57635C19.0132 9.58635 20.3332 9.58635 21.4632 9.58635C22.0332 9.58635 22.3332 8.91635 21.9332 8.51635C20.4932 7.06635 17.9132 4.45635 16.4332 2.97635Z" fill="currentColor"/>
<path d="M21.1333 10.9564H18.2433C15.8733 10.9564 13.9433 9.02636 13.9433 6.65636V3.76636C13.9433 3.21636 13.4933 2.76636 12.9433 2.76636H8.7033C5.6233 2.76636 3.1333 4.76636 3.1333 8.33636V17.1964C3.1333 20.7664 5.6233 22.7664 8.7033 22.7664H16.5633C19.6433 22.7664 22.1333 20.7664 22.1333 17.1964V11.9564C22.1333 11.4064 21.6833 10.9564 21.1333 10.9564ZM12.1333 18.5164H8.1333C7.7233 18.5164 7.3833 18.1764 7.3833 17.7664C7.3833 17.3564 7.7233 17.0164 8.1333 17.0164H12.1333C12.5433 17.0164 12.8833 17.3564 12.8833 17.7664C12.8833 18.1764 12.5433 18.5164 12.1333 18.5164ZM14.1333 14.5164H8.1333C7.7233 14.5164 7.3833 14.1764 7.3833 13.7664C7.3833 13.3564 7.7233 13.0164 8.1333 13.0164H14.1333C14.5433 13.0164 14.8833 13.3564 14.8833 13.7664C14.8833 14.1764 14.5433 14.5164 14.1333 14.5164Z" fill="currentColor"/>
</svg>
