<svg width="25" height="25" viewBox="0 0 25 25" fill="currentColor" xmlns="http://www.w3.org/2000/svg">
<path d="M7.82861 3.29762V20.7976C7.82861 21.4376 7.21861 21.9476 6.59861 21.7776C4.19861 21.0976 2.82861 19.1376 2.82861 16.2376V7.85762C2.82861 4.95762 4.19861 2.99762 6.59861 2.31762C7.21861 2.14762 7.82861 2.64762 7.82861 3.29762Z" fill="currentColor"/>
<path d="M13.2987 14.4176C12.9187 14.4176 12.6187 14.7276 12.6187 15.0976C12.6187 15.4676 12.9287 15.7776 13.2987 15.7776C13.6787 15.7776 13.9887 15.4676 13.9887 15.0976C13.9887 14.7276 13.6787 14.4176 13.2987 14.4176Z" fill="currentColor"/>
<path d="M18.3487 13.4976C17.9687 13.4976 17.6587 13.8076 17.6587 14.1876C17.6587 14.5676 17.9687 14.8676 18.3487 14.8676C18.7287 14.8676 19.0387 14.5576 19.0387 14.1876C19.0387 13.8176 18.7287 13.4976 18.3487 13.4976Z" fill="currentColor"/>
<path fill-rule="evenodd" clip-rule="evenodd" d="M10.3286 2.04761H17.0186C20.2286 2.04761 22.8286 4.64761 22.8286 7.85761V16.2376C22.8286 19.4476 20.2286 22.0476 17.0186 22.0476H10.3286C9.77861 22.0476 9.32861 21.5976 9.32861 21.0476V3.04761C9.32861 2.49761 9.77861 2.04761 10.3286 2.04761Z" fill="currentColor"/>
</svg>
