<svg width="25" height="25" viewBox="0 0 25 25" fill="currentColor" xmlns="http://www.w3.org/2000/svg">
<path d="M12.6333 2.76636C10.0133 2.76636 7.8833 4.89636 7.8833 7.51636C7.8833 10.0864 9.8933 12.1664 12.5133 12.2564C12.5933 12.2464 12.6733 12.2464 12.7333 12.2564C12.7533 12.2564 12.7633 12.2564 12.7833 12.2564C12.7933 12.2564 12.7933 12.2564 12.8033 12.2564C15.3633 12.1664 17.3733 10.0864 17.3833 7.51636C17.3833 4.89636 15.2533 2.76636 12.6333 2.76636Z" fill="currentColor"/>
<path d="M17.7133 14.9164C14.9233 13.0564 10.3733 13.0564 7.56326 14.9164C6.29326 15.7664 5.59326 16.9164 5.59326 18.1464C5.59326 19.3764 6.29326 20.5164 7.55326 21.3564C8.95326 22.2964 10.7933 22.7664 12.6333 22.7664C14.4733 22.7664 16.3133 22.2964 17.7133 21.3564C18.9733 20.5064 19.6733 19.3664 19.6733 18.1264C19.6633 16.8964 18.9733 15.7564 17.7133 14.9164Z" fill="currentColor"/>
</svg>
