<svg width="25" height="25" viewBox="0 0 25 25" fill="currentColor" xmlns="http://www.w3.org/2000/svg">
<path d="M11.6333 2.75635C6.66329 2.75635 2.62329 6.79635 2.62329 11.7663C2.62329 16.7363 6.66329 20.7763 11.6333 20.7763C16.6033 20.7763 20.6433 16.7363 20.6433 11.7663C20.6433 6.79635 16.6033 2.75635 11.6333 2.75635ZM11.6333 14.0163H8.63329C8.22329 14.0163 7.88329 13.6763 7.88329 13.2663C7.88329 12.8563 8.22329 12.5163 8.63329 12.5163H11.6333C12.0433 12.5163 12.3833 12.8563 12.3833 13.2663C12.3833 13.6763 12.0433 14.0163 11.6333 14.0163ZM14.6333 11.0163H8.63329C8.22329 11.0163 7.88329 10.6763 7.88329 10.2663C7.88329 9.85635 8.22329 9.51635 8.63329 9.51635H14.6333C15.0433 9.51635 15.3833 9.85635 15.3833 10.2663C15.3833 10.6763 15.0433 11.0163 14.6333 11.0163Z" fill="currentColor"/>
<path d="M22.6234 19.7164C22.2934 19.1064 21.5934 18.7664 20.6534 18.7664C19.9434 18.7664 19.3334 19.0564 18.9734 19.5564C18.6134 20.0564 18.5334 20.7264 18.7534 21.3964C19.1834 22.6964 19.9334 22.9864 20.3434 23.0364C20.4034 23.0464 20.4634 23.0464 20.5334 23.0464C20.9734 23.0464 21.6534 22.8564 22.3134 21.8664C22.8434 21.0964 22.9434 20.3264 22.6234 19.7164Z" fill="currentColor"/>
</svg>
