<svg width="186" height="187" viewBox="0 0 186 187" fill="none" xmlns="http://www.w3.org/2000/svg">
<rect x="0.16748" y="0.451172" width="185.768" height="185.768" rx="30" fill="#F4F4F4"/>
<g filter="url(#filter0_d_1574_11271)">
<path d="M101.633 135.316L101.634 141.774C101.634 145.279 104.476 148.12 107.98 148.12H113.786" stroke="#47CFB0" stroke-width="3.38518" stroke-linecap="round"/>
<g filter="url(#filter1_d_1574_11271)">
<circle cx="113.291" cy="143.204" r="4.94658" stroke="#47CFB0" stroke-width="3.38518" shape-rendering="crispEdges"/>
</g>
<path d="M132.912 136.004C133.876 136.004 134.587 136.74 134.587 137.73V147.452C134.587 151.412 132.176 153.722 128.089 153.722C126.033 153.722 124.129 153.113 122.682 151.971C122.225 151.641 121.971 151.184 121.971 150.727C121.971 149.864 122.656 149.179 123.519 149.179C123.824 149.179 124.129 149.305 124.433 149.509C125.525 150.27 126.591 150.625 127.809 150.625C129.916 150.625 131.16 149.534 131.16 147.655V146.97C130.272 147.935 128.952 148.468 127.327 148.468C123.799 148.468 121.311 145.879 121.311 142.223C121.311 138.568 123.799 136.004 127.327 136.004C129.028 136.004 130.373 136.588 131.236 137.603C131.287 136.689 132.023 136.004 132.912 136.004ZM128.038 145.574C129.942 145.574 131.211 144.203 131.211 142.172C131.211 140.218 129.967 138.923 128.038 138.923C126.134 138.923 124.789 140.269 124.789 142.198C124.789 144.152 126.159 145.574 128.038 145.574Z" fill="#47CFB0"/>
<path d="M93.5975 136.004C96.466 136.004 98.319 137.984 98.319 141.055V147.402C98.319 148.417 97.6083 149.153 96.6183 149.153C95.6537 149.153 94.9175 148.392 94.9175 147.402V141.512C94.9175 140.065 93.9783 139.075 92.5821 139.075C91.186 139.075 90.196 140.091 90.196 141.512V147.402C90.196 148.417 89.4598 149.153 88.4952 149.153C87.5052 149.153 86.769 148.392 86.769 147.402V137.73C86.769 136.74 87.5052 136.004 88.4698 136.004C89.2567 136.004 89.8913 136.537 90.069 137.299C90.9575 136.486 92.2013 136.004 93.5975 136.004Z" fill="#47CFB0"/>
<path d="M82.2837 129.632C83.4514 129.632 84.4414 130.546 84.4414 131.714C84.4414 132.856 83.4514 133.77 82.2837 133.77C81.116 133.77 80.1514 132.856 80.1514 131.714C80.1514 130.546 81.116 129.632 82.2837 129.632ZM82.2837 149.153C81.3191 149.153 80.5829 148.392 80.5829 147.402V137.73C80.5829 136.74 81.3191 136.004 82.3091 136.004C83.2737 136.004 84.0098 136.74 84.0098 137.73V147.402C84.0098 148.392 83.2737 149.153 82.2837 149.153Z" fill="#47CFB0"/>
<path d="M72.4363 136.003C75.9647 136.003 78.5286 138.744 78.5286 142.552C78.5286 146.36 75.9647 149.152 72.4363 149.152C70.8624 149.152 69.5424 148.593 68.6794 147.629V151.995C68.6794 152.985 67.9432 153.721 66.9786 153.721C65.9886 153.721 65.2524 152.985 65.2524 151.995V137.678C65.2524 136.713 65.9886 135.977 66.9532 135.977C67.8671 135.977 68.5524 136.663 68.6032 137.602C69.4663 136.587 70.8117 136.003 72.4363 136.003ZM71.8017 146.03C73.6801 146.03 75.0509 144.583 75.0509 142.577C75.0509 140.547 73.7055 139.1 71.8017 139.1C69.8978 139.1 68.6286 140.496 68.6286 142.552C68.6286 144.608 69.9232 146.03 71.8017 146.03Z" fill="#47CFB0"/>
<path d="M57.4317 149.153C55.4517 149.153 53.2686 148.264 52.0248 146.893C51.6186 146.487 51.3901 146.056 51.3901 145.573C51.4155 144.66 52.1517 144.05 52.964 144.05C53.2686 144.05 53.5986 144.152 53.8524 144.38C54.5378 145.091 55.7309 146.106 57.4317 146.106C58.9294 146.106 59.8178 145.396 59.8178 144.253C59.8178 143.289 59.234 142.883 57.6855 142.172L55.8832 141.36C53.2178 140.141 51.8217 138.694 51.8217 136.536C51.8217 133.719 54.2078 131.79 57.3809 131.79C59.894 131.79 61.3663 132.957 62.0771 133.77C62.4324 134.15 62.534 134.531 62.534 134.861C62.534 135.724 61.7471 136.384 60.9601 136.384C60.6555 136.384 60.3255 136.283 60.0209 136.029C59.3355 135.42 58.574 134.836 57.3809 134.836C56.1624 134.836 55.2994 135.42 55.2994 136.46C55.2994 137.298 55.7563 137.704 57.254 138.39L59.1578 139.227C61.9501 140.471 63.2955 141.842 63.2955 144.126C63.2955 147.223 60.7824 149.153 57.4317 149.153Z" fill="#47CFB0"/>
</g>
<g filter="url(#filter2_d_1574_11271)">
<path d="M148.109 80.1651C148.109 92.7222 142.475 106.567 133.781 114.456C131.206 117.031 128.469 118.48 125.41 118.48C119.615 118.319 115.751 113.651 115.751 108.499C115.751 106.567 116.395 104.474 117.844 102.864C122.351 98.5177 128.791 90.9513 128.791 80.1651C128.791 70.6668 124.283 65.0322 117.039 65.0322C110.921 65.0322 108.345 68.735 103.838 78.5552L98.6861 89.9854C90.9587 106.889 81.7824 115.743 68.0984 115.743C50.2287 115.743 37.9937 100.611 37.9937 80.4871C37.9936 64.5493 45.3991 55.212 50.5507 50.7043C52.9655 48.4505 55.3803 47.8065 57.4732 47.8065C62.9468 47.8065 67.1325 52.7972 67.1325 57.7878C67.1325 59.7196 66.4885 61.8125 64.8786 63.7443C61.0149 68.091 57.3122 72.9206 57.3122 80.4871C57.3122 88.2145 61.0149 93.6881 67.6154 93.6881C72.928 93.6881 75.5038 90.7903 79.8505 81.292L85.1631 69.2179C93.0515 51.5093 101.745 42.9769 116.234 42.9769C135.874 42.9769 148.109 58.9147 148.109 80.1651Z" fill="url(#paint0_linear_1574_11271)"/>
</g>
<g filter="url(#filter3_d_1574_11271)">
<circle cx="73.9037" cy="40.1004" r="9.43448" transform="rotate(-90 73.9037 40.1004)" fill="url(#paint1_linear_1574_11271)"/>
</g>
<g filter="url(#filter4_d_1574_11271)">
<circle cx="53.7312" cy="30.6643" r="6.10716" transform="rotate(-90 53.7312 30.6643)" fill="url(#paint2_linear_1574_11271)"/>
</g>
<defs>
<filter id="filter0_d_1574_11271" x="49.1333" y="129.632" width="87.7108" height="28.6037" filterUnits="userSpaceOnUse" color-interpolation-filters="sRGB">
<feFlood flood-opacity="0" result="BackgroundImageFix"/>
<feColorMatrix in="SourceAlpha" type="matrix" values="0 0 0 0 0 0 0 0 0 0 0 0 0 0 0 0 0 0 127 0" result="hardAlpha"/>
<feOffset dy="2.25679"/>
<feGaussianBlur stdDeviation="1.12839"/>
<feComposite in2="hardAlpha" operator="out"/>
<feColorMatrix type="matrix" values="0 0 0 0 0.74082 0 0 0 0 0.74082 0 0 0 0 0.74082 0 0 0 0.25 0"/>
<feBlend mode="normal" in2="BackgroundImageFix" result="effect1_dropShadow_1574_11271"/>
<feBlend mode="normal" in="SourceGraphic" in2="effect1_dropShadow_1574_11271" result="shape"/>
</filter>
<filter id="filter1_d_1574_11271" x="104.395" y="136.564" width="17.7919" height="17.7919" filterUnits="userSpaceOnUse" color-interpolation-filters="sRGB">
<feFlood flood-opacity="0" result="BackgroundImageFix"/>
<feColorMatrix in="SourceAlpha" type="matrix" values="0 0 0 0 0 0 0 0 0 0 0 0 0 0 0 0 0 0 127 0" result="hardAlpha"/>
<feOffset dy="2.25679"/>
<feGaussianBlur stdDeviation="1.12839"/>
<feComposite in2="hardAlpha" operator="out"/>
<feColorMatrix type="matrix" values="0 0 0 0 0.74082 0 0 0 0 0.74082 0 0 0 0 0.74082 0 0 0 0.25 0"/>
<feBlend mode="normal" in2="BackgroundImageFix" result="effect1_dropShadow_1574_11271"/>
<feBlend mode="normal" in="SourceGraphic" in2="effect1_dropShadow_1574_11271" result="shape"/>
</filter>
<filter id="filter2_d_1574_11271" x="32.9607" y="42.9768" width="120.182" height="85.5693" filterUnits="userSpaceOnUse" color-interpolation-filters="sRGB">
<feFlood flood-opacity="0" result="BackgroundImageFix"/>
<feColorMatrix in="SourceAlpha" type="matrix" values="0 0 0 0 0 0 0 0 0 0 0 0 0 0 0 0 0 0 127 0" result="hardAlpha"/>
<feOffset dy="5.03292"/>
<feGaussianBlur stdDeviation="2.51646"/>
<feComposite in2="hardAlpha" operator="out"/>
<feColorMatrix type="matrix" values="0 0 0 0 0.753612 0 0 0 0 0.753612 0 0 0 0 0.753612 0 0 0 0.25 0"/>
<feBlend mode="normal" in2="BackgroundImageFix" result="effect1_dropShadow_1574_11271"/>
<feBlend mode="normal" in="SourceGraphic" in2="effect1_dropShadow_1574_11271" result="shape"/>
</filter>
<filter id="filter3_d_1574_11271" x="55.7254" y="30.666" width="36.3568" height="36.3566" filterUnits="userSpaceOnUse" color-interpolation-filters="sRGB">
<feFlood flood-opacity="0" result="BackgroundImageFix"/>
<feColorMatrix in="SourceAlpha" type="matrix" values="0 0 0 0 0 0 0 0 0 0 0 0 0 0 0 0 0 0 127 0" result="hardAlpha"/>
<feOffset dy="8.74385"/>
<feGaussianBlur stdDeviation="4.37192"/>
<feComposite in2="hardAlpha" operator="out"/>
<feColorMatrix type="matrix" values="0 0 0 0 0.74082 0 0 0 0 0.74082 0 0 0 0 0.74082 0 0 0 0.25 0"/>
<feBlend mode="normal" in2="BackgroundImageFix" result="effect1_dropShadow_1574_11271"/>
<feBlend mode="normal" in="SourceGraphic" in2="effect1_dropShadow_1574_11271" result="shape"/>
</filter>
<filter id="filter4_d_1574_11271" x="38.8802" y="24.5571" width="29.7021" height="29.7021" filterUnits="userSpaceOnUse" color-interpolation-filters="sRGB">
<feFlood flood-opacity="0" result="BackgroundImageFix"/>
<feColorMatrix in="SourceAlpha" type="matrix" values="0 0 0 0 0 0 0 0 0 0 0 0 0 0 0 0 0 0 127 0" result="hardAlpha"/>
<feOffset dy="8.74385"/>
<feGaussianBlur stdDeviation="4.37192"/>
<feComposite in2="hardAlpha" operator="out"/>
<feColorMatrix type="matrix" values="0 0 0 0 0.74082 0 0 0 0 0.74082 0 0 0 0 0.74082 0 0 0 0.25 0"/>
<feBlend mode="normal" in2="BackgroundImageFix" result="effect1_dropShadow_1574_11271"/>
<feBlend mode="normal" in="SourceGraphic" in2="effect1_dropShadow_1574_11271" result="shape"/>
</filter>
<linearGradient id="paint0_linear_1574_11271" x1="37.9937" y1="80.7286" x2="164.127" y2="139.604" gradientUnits="userSpaceOnUse">
<stop offset="0.583144" stop-color="#47CFB0"/>
<stop offset="1" stop-color="#42C6A8"/>
</linearGradient>
<linearGradient id="paint1_linear_1574_11271" x1="83.3382" y1="40.1004" x2="64.4692" y2="40.1004" gradientUnits="userSpaceOnUse">
<stop stop-color="#FFD233"/>
<stop offset="1" stop-color="#FFB800"/>
</linearGradient>
<linearGradient id="paint2_linear_1574_11271" x1="57.6512" y1="25.9891" x2="49.2483" y2="34.2204" gradientUnits="userSpaceOnUse">
<stop stop-color="#FF84AA"/>
<stop offset="1" stop-color="#FC4873"/>
</linearGradient>
</defs>
</svg>
