<svg width="348" height="272" viewBox="0 0 348 272" fill="none" xmlns="http://www.w3.org/2000/svg">
<g filter="url(#filter0_d_1632_10301)">
<path fill-rule="evenodd" clip-rule="evenodd" d="M130.504 115.074C66.7128 115.074 15 91.5521 15 62.5368C15 33.5215 66.7128 10 130.504 10C194.295 10 246.007 33.5215 246.007 62.5368C246.007 81.6939 223.465 98.4561 189.787 107.635L192.381 121.558C193.292 126.447 187.745 129.947 184.326 126.64L169.236 112.047C157.129 114.007 144.09 115.074 130.504 115.074Z" fill="white"/>
</g>
<path d="M98.4927 40.4643C100.221 41.5523 100.989 43.4723 99.5167 45.5843L82.8127 69.7123H96.0607V59.2163C96.0607 56.8483 97.9807 55.7603 100.093 55.7603C102.205 55.7603 104.125 56.8483 104.125 59.2163V69.7123H108.029C110.013 69.7123 110.781 71.2483 110.781 73.0403C110.781 74.7683 110.013 76.3043 108.029 76.3043H104.125V82.6403C104.125 85.0083 102.205 86.0963 100.093 86.0963C97.9807 86.0963 96.0607 85.0083 96.0607 82.6403V76.3043H78.1407C74.6207 76.3043 73.0847 75.0243 73.0847 72.3363C73.0847 71.4403 73.2127 70.6723 75.0687 67.9843L93.4367 41.4243C94.7167 39.5683 96.8287 39.4403 98.4927 40.4643ZM130.5 39.5043C142.34 39.5043 147.524 47.5043 147.524 61.5843V64.3363C147.524 78.4163 142.34 86.4163 130.5 86.4163C118.66 86.4163 113.476 78.4163 113.476 64.3363V61.5843C113.476 47.5043 118.66 39.5043 130.5 39.5043ZM130.5 47.2483C123.844 47.2483 121.732 51.6003 121.732 62.1603V63.7603C121.732 74.3203 123.844 78.6723 130.5 78.6723C137.156 78.6723 139.268 74.3203 139.268 63.7603V62.1603C139.268 51.6003 137.156 47.2483 130.5 47.2483ZM176.46 40.4643C178.188 41.5523 178.956 43.4723 177.484 45.5843L160.78 69.7123H174.028V59.2163C174.028 56.8483 175.948 55.7603 178.06 55.7603C180.172 55.7603 182.092 56.8483 182.092 59.2163V69.7123H185.996C187.98 69.7123 188.748 71.2483 188.748 73.0403C188.748 74.7683 187.98 76.3043 185.996 76.3043H182.092V82.6403C182.092 85.0083 180.172 86.0963 178.06 86.0963C175.948 86.0963 174.028 85.0083 174.028 82.6403V76.3043H156.108C152.588 76.3043 151.052 75.0243 151.052 72.3363C151.052 71.4403 151.18 70.6723 153.036 67.9843L171.404 41.4243C172.684 39.5683 174.796 39.4403 176.46 40.4643Z" fill="#FC4873"/>
<g filter="url(#filter1_d_1632_10301)">
<path d="M212.412 226.829C227.417 226.886 296.277 227.003 315.365 227.076" stroke="#DDDDDD" stroke-width="5" stroke-linecap="round"/>
<path d="M288.423 166.078L327.26 167.919C330.4 168.067 332.853 170.685 332.797 173.828L332.776 175.024C332.553 187.569 322.007 197.45 309.473 196.856V196.856C297.453 196.286 288.064 186.264 288.278 174.233L288.423 166.078Z" fill="#2DAF92"/>
<path d="M239.692 165.806L201.054 161.466C197.93 161.115 195.093 163.311 194.65 166.423L194.481 167.607C192.712 180.029 201.558 191.456 214.027 192.857V192.857C225.985 194.201 236.845 185.794 238.542 173.881L239.692 165.806Z" fill="#2DAF92"/>
<ellipse cx="263.717" cy="166.692" rx="55.9626" ry="61.4244" fill="url(#paint0_linear_1632_10301)"/>
<path d="M310.642 203.386C311.704 201.415 313.889 197.36 315.24 194.852" stroke="#F68E00" stroke-width="10" stroke-linecap="round"/>
<path d="M289.826 223.102C291.409 221.519 294.666 218.262 296.68 216.248" stroke="#F68E00" stroke-width="10" stroke-linecap="round"/>
<path d="M266.446 105.268L269.416 94.1833" stroke="#47CFB0" stroke-width="10.1184" stroke-linecap="round"/>
<path d="M267.778 104.963L278.513 100.908" stroke="#47CFB0" stroke-width="10.1184" stroke-linecap="round"/>
<path fill-rule="evenodd" clip-rule="evenodd" d="M312.746 163.886C312.15 165.755 310.33 166.891 308.368 166.891H218.283C216.321 166.891 214.501 165.755 213.905 163.886C213.063 161.244 212.609 158.428 212.609 155.507C212.609 140.28 224.952 127.937 240.179 127.937C247.111 127.937 253.445 130.495 258.29 134.719C261.02 137.1 265.631 137.1 268.361 134.719C273.205 130.495 279.54 127.937 286.472 127.937C301.699 127.937 314.042 140.28 314.042 155.507C314.042 158.428 313.588 161.244 312.746 163.886Z" fill="white" fill-opacity="0.2"/>
<circle cx="19.5324" cy="19.5324" r="19.5324" transform="matrix(-1 0 0 1 259.189 138.621)" fill="white"/>
<path d="M224.496 157.796C224.496 166.188 231.299 172.991 239.692 172.991C248.084 172.991 254.887 166.188 254.887 157.796C254.887 149.403 248.084 142.6 239.692 142.6C231.299 142.6 224.496 149.403 224.496 157.796Z" fill="white"/>
<path fill-rule="evenodd" clip-rule="evenodd" d="M239.62 172.991C231.228 172.991 224.425 166.188 224.425 157.796C224.425 157.75 224.425 157.704 224.425 157.658C225.682 158.98 227.457 159.805 229.425 159.805C233.233 159.805 236.32 156.717 236.32 152.909C236.32 149.293 233.536 146.327 229.995 146.037C232.616 143.889 235.968 142.6 239.62 142.6C248.013 142.6 254.816 149.403 254.816 157.796C254.816 166.188 248.013 172.991 239.62 172.991Z" fill="#333331"/>
<circle cx="3.61422" cy="3.61422" r="3.61422" transform="matrix(-1 0 0 1 249.621 158.153)" fill="white"/>
<mask id="mask0_1632_10301" style="mask-type:alpha" maskUnits="userSpaceOnUse" x="220" y="138" width="40" height="40">
<circle cx="239.621" cy="158.154" r="19.5324" fill="white"/>
</mask>
<g mask="url(#mask0_1632_10301)">
<path opacity="0.8" d="M241.026 164.273C231.705 157.987 221.968 160.751 218.265 162.918L219.656 182.024L260.223 179.655L259.125 162.281C257.333 165.578 250.347 170.56 241.026 164.273Z" fill="#9BFFE8"/>
</g>
<path d="M272.744 130.055C272.87 131.601 273.796 134.704 276.489 134.745" stroke="#A5E5D6" stroke-width="3.71086" stroke-linecap="round"/>
<path d="M255.562 130.055C255.436 131.601 254.51 134.704 251.818 134.745" stroke="#A5E5D6" stroke-width="3.71086" stroke-linecap="round"/>
<circle cx="19.5324" cy="19.5324" r="19.5324" transform="matrix(-1 0 0 1 307.689 138.621)" fill="white"/>
<path d="M272.996 157.796C272.996 166.188 279.799 172.991 288.192 172.991C296.584 172.991 303.387 166.188 303.387 157.796C303.387 149.403 296.584 142.6 288.192 142.6C279.799 142.6 272.996 149.403 272.996 157.796Z" fill="white"/>
<path fill-rule="evenodd" clip-rule="evenodd" d="M288.12 172.991C279.728 172.991 272.924 166.188 272.924 157.796C272.924 157.75 272.924 157.704 272.925 157.659C274.181 158.98 275.956 159.805 277.924 159.805C281.732 159.805 284.819 156.717 284.819 152.909C284.819 149.293 282.036 146.327 278.494 146.037C281.115 143.889 284.467 142.6 288.12 142.6C296.512 142.6 303.316 149.403 303.316 157.796C303.316 166.188 296.512 172.991 288.12 172.991Z" fill="#333331"/>
<circle cx="3.61422" cy="3.61422" r="3.61422" transform="matrix(-1 0 0 1 298.121 158.153)" fill="white"/>
<mask id="mask1_1632_10301" style="mask-type:alpha" maskUnits="userSpaceOnUse" x="268" y="138" width="40" height="40">
<circle cx="19.5324" cy="19.5324" r="19.5324" transform="matrix(-1 0 0 1 307.653 138.621)" fill="white"/>
</mask>
<g mask="url(#mask1_1632_10301)">
<path opacity="0.8" d="M286.715 164.273C296.037 157.987 305.773 160.75 309.477 162.918L308.085 182.023L267.518 179.654L268.616 162.281C270.409 165.578 277.394 170.559 286.715 164.273Z" fill="#9BFFE8"/>
</g>
<path d="M273.492 175.626C274.128 175.414 274.617 174.868 274.617 174.198V174.198C274.617 169.269 269.05 162.86 262.183 162.86C255.315 162.86 249.749 169.269 249.749 174.198V174.198C249.749 174.868 250.237 175.414 250.874 175.626L257.79 177.923C260.642 178.871 263.723 178.871 266.575 177.923L273.492 175.626Z" fill="#FDC300"/>
<path d="M262.183 167.02C260.657 166.742 257.894 167.02 256.684 169.423" stroke="white" stroke-opacity="0.4" stroke-width="3.71086" stroke-linecap="round"/>
<path d="M256.216 177.058C259.326 175.362 264.235 175.425 268.15 177.058" stroke="#F68E00" stroke-width="7.42171" stroke-linecap="round"/>
<path d="M262.7 191.316V196.958" stroke="#32C1A1" stroke-width="4.97446" stroke-linecap="round"/>
<path d="M263.294 191.63L267.876 194.922" stroke="#32C1A1" stroke-width="4.97446" stroke-linecap="round"/>
<path d="M262.106 191.63L257.524 194.922" stroke="#32C1A1" stroke-width="4.97446" stroke-linecap="round"/>
</g>
<defs>
<filter id="filter0_d_1632_10301" x="0.438267" y="0.0246396" width="260.131" height="147.06" filterUnits="userSpaceOnUse" color-interpolation-filters="sRGB">
<feFlood flood-opacity="0" result="BackgroundImageFix"/>
<feColorMatrix in="SourceAlpha" type="matrix" values="0 0 0 0 0 0 0 0 0 0 0 0 0 0 0 0 0 0 127 0" result="hardAlpha"/>
<feOffset dy="4.58637"/>
<feGaussianBlur stdDeviation="7.28087"/>
<feComposite in2="hardAlpha" operator="out"/>
<feColorMatrix type="matrix" values="0 0 0 0 0.320483 0 0 0 0 0.320483 0 0 0 0 0.320483 0 0 0 0.1 0"/>
<feBlend mode="normal" in2="BackgroundImageFix" result="effect1_dropShadow_1632_10301"/>
<feBlend mode="normal" in="SourceGraphic" in2="effect1_dropShadow_1632_10301" result="shape"/>
</filter>
<filter id="filter1_d_1632_10301" x="179.694" y="79.1474" width="167.665" height="169.576" filterUnits="userSpaceOnUse" color-interpolation-filters="sRGB">
<feFlood flood-opacity="0" result="BackgroundImageFix"/>
<feColorMatrix in="SourceAlpha" type="matrix" values="0 0 0 0 0 0 0 0 0 0 0 0 0 0 0 0 0 0 127 0" result="hardAlpha"/>
<feOffset dy="4.58637"/>
<feGaussianBlur stdDeviation="7.28087"/>
<feComposite in2="hardAlpha" operator="out"/>
<feColorMatrix type="matrix" values="0 0 0 0 0.320483 0 0 0 0 0.320483 0 0 0 0 0.320483 0 0 0 0.1 0"/>
<feBlend mode="normal" in2="BackgroundImageFix" result="effect1_dropShadow_1632_10301"/>
<feBlend mode="normal" in="SourceGraphic" in2="effect1_dropShadow_1632_10301" result="shape"/>
</filter>
<linearGradient id="paint0_linear_1632_10301" x1="263.717" y1="105.268" x2="263.717" y2="228.117" gradientUnits="userSpaceOnUse">
<stop stop-color="#47CFB0"/>
<stop offset="1" stop-color="#44CCAD"/>
</linearGradient>
</defs>
</svg>
