<svg xmlns="http://www.w3.org/2000/svg" width="80" height="80" viewBox="0 0 80 80"><defs><style>.a{fill:#fc4873;}.b{fill:rgba(255,255,255,0.2);}.b,.d{fill-rule:evenodd;}.c{fill:#333331;}.d{fill:#fff;}.e,.f,.g,.h,.j{fill:none;stroke-linecap:round;}.e{stroke:#fc4873;}.e,.g,.j{stroke-width:2.405px;}.f{stroke:#d30032;stroke-width:3.207px;}.g{stroke:rgba(255,255,255,0.3);}.h{stroke:#f68e00;stroke-width:4.811px;}.i{fill:#fdc300;}.j{stroke:rgba(255,255,255,0.4);}</style></defs><g transform="translate(-0.238)"><circle class="a" cx="40" cy="40" r="40" transform="translate(0.238)"/><path class="b" d="M45.316,50.515a9.175,9.175,0,0,0-10.157,0,20.043,20.043,0,1,1,0-32.481,9.175,9.175,0,0,0,10.157,0,20.043,20.043,0,1,1,0,32.481Z"/><path class="c" d="M62.244,25.828,48.37,31.379l-.517,1.487,6.7,7.386,8.814-.31,3.972-7.448Z"/><path class="d" d="M45.128,32.664a14.037,14.037,0,1,0,22.233-8.882l-5.169,2.065a7.448,7.448,0,1,1-13.813,5.518Z"/><path class="e" d="M45.9,22.078c-1.04,1.3-1.559,2.033-2.691,3.37"/><path class="e" d="M33.214,22.078c1.04,1.3,1.559,2.033,2.69,3.37"/><path class="e" d="M45.219,32.62l22.14-8.811"/><path class="c" d="M18.42,25.828l13.874,5.551.517,1.487-6.7,7.386-8.814-.31-3.972-7.448Z"/><path class="d" d="M35.536,32.664A14.037,14.037,0,1,1,13.3,23.783l5.17,2.065a7.448,7.448,0,1,0,13.814,5.518Z"/><path class="f" d="M39.6,61.5v4.032"/><path class="f" d="M40.029,61.729,43.3,64.081"/><path class="f" d="M39.18,61.729l-3.275,2.353"/><ellipse class="a" cx="15.504" cy="6.373" rx="15.504" ry="6.373" transform="matrix(0.966, -0.259, 0.259, 0.966, 45.898, 42.053)"/><path class="g" d="M62.742,40.389c-1.384-.075-3.839.35-4.765,2.168"/><ellipse class="a" cx="15.504" cy="6.373" rx="15.504" ry="6.373" transform="matrix(-0.966, -0.259, 0.259, -0.966, 32.606, 54.364)"/><path class="g" d="M22.088,41.249c1.376.162,3.723,1,4.327,2.947"/><path class="e" d="M35.735,32.62l-22.14-8.811"/><rect class="a" width="70.667" height="9.901" transform="translate(5.561 44.464)"/><path class="h" d="M44.016,49.069c-2.5,2.89-5.5,2.89-8.576,0"/><path class="i" d="M48.076,47.675a1.265,1.265,0,0,0,.774-1.113h0c0-3.542-4-6.412-8.935-6.412s-8.935,2.871-8.935,6.412h0a1.265,1.265,0,0,0,.774,1.113l4.061,1.913a9.621,9.621,0,0,0,8.2,0Z"/><path class="j" d="M39.409,42.777c-1.714-.1-2.226-.069-3.432,1.023"/></g></svg>