<svg xmlns="http://www.w3.org/2000/svg" width="80" height="80" viewBox="0 0 80 80"><defs><style>.a{fill:#867bf4;}.b,.d,.f,.g,.h,.i{fill:none;stroke-linecap:round;}.b{stroke:#867bf4;}.b,.d{stroke-width:3.207px;}.c{fill:rgba(255,255,255,0.2);fill-rule:evenodd;}.d,.i{stroke:#685ec6;}.e{fill:#fdc300;}.f{stroke:rgba(255,255,255,0.4);}.f,.h,.i{stroke-width:2.405px;}.g{stroke:#f68e00;stroke-width:4.811px;}.h{stroke:#333331;}</style></defs><g transform="translate(-0.622)"><circle class="a" cx="40" cy="40" r="40" transform="translate(0.622)"/><path class="b" d="M62.475,45.11H56.469"/><path class="b" d="M60.421,49.376h-1.9"/><path class="b" d="M26.917,45.11H20.911"/><path class="b" d="M24.864,49.376h-1.9"/><path class="c" d="M45.7,50.515a9.175,9.175,0,0,0-10.157,0,20.043,20.043,0,1,1,0-32.481,9.176,9.176,0,0,0,10.157,0,20.043,20.043,0,1,1,0,32.481Z"/><path class="d" d="M40.964,57.19v4.032"/><path class="d" d="M41.388,57.415l3.275,2.353"/><path class="d" d="M40.54,57.415l-3.275,2.353"/><path class="e" d="M48.667,48.347a1.115,1.115,0,0,0,.808-1.026c0-3.541-4-8.147-8.935-8.147S31.6,43.779,31.6,47.32a1.115,1.115,0,0,0,.808,1.026l5.093,1.692a9.621,9.621,0,0,0,6.067,0Z"/><path class="f" d="M40.54,42.163a3.662,3.662,0,0,0-3.952,1.727"/><path class="g" d="M36.252,49.376c2.235-1.219,5.763-1.174,8.576,0"/><path class="h" d="M49.22,34.008l17.334,3.482"/><path class="h" d="M31.6,34.008,14.269,37.489"/><path class="i" d="M46.53,16.392c.091,1.111.756,3.34,2.691,3.37"/><path class="i" d="M34.182,16.392c-.091,1.111-.756,3.34-2.691,3.37"/></g></svg>