<svg xmlns="http://www.w3.org/2000/svg" width="80" height="80" viewBox="0 0 80 80"><defs><style>.a{fill:#bcbcbc;}.b{fill:rgba(255,255,255,0.2);fill-rule:evenodd;}.c{fill:#fff;}.d{fill:#333331;}.e,.g,.h{fill:none;stroke-linecap:round;}.e{stroke:#f68e00;stroke-width:4.811px;}.f{fill:#fdc300;}.g{stroke:rgba(255,255,255,0.4);stroke-width:2.405px;}.h{stroke:#9f9f9f;stroke-width:3.207px;}</style></defs><g transform="translate(-0.762)"><circle class="a" cx="40" cy="40" r="40" transform="translate(0.762)"/><path class="b" d="M57.589,54.318A20.043,20.043,0,1,0,45.84,18.034a9.176,9.176,0,0,1-10.158,0,20.043,20.043,0,1,0,0,32.481,9.176,9.176,0,0,1,10.158,0A19.953,19.953,0,0,0,57.589,54.318Z"/><circle class="c" cx="14.036" cy="14.036" r="14.036" transform="translate(8.948 20.997)"/><path class="c" d="M29.04,35.033a5.46,5.46,0,1,1-5.46-5.46A5.46,5.46,0,0,1,29.04,35.033Z"/><path class="d" d="M29.066,35.033a5.46,5.46,0,1,1-5.46-5.46A5.46,5.46,0,0,1,29.066,35.033Z"/><circle class="c" cx="14.036" cy="14.036" r="14.036" transform="translate(44.503 20.997)"/><path class="c" d="M64.6,35.033a5.46,5.46,0,1,1-5.46-5.46A5.46,5.46,0,0,1,64.6,35.033Z"/><path class="d" d="M64.621,35.033a5.46,5.46,0,1,1-5.46-5.46A5.46,5.46,0,0,1,64.621,35.033Z"/><path class="e" d="M44.795,49.069c-2.5,2.89-5.5,2.89-8.576,0"/><path class="f" d="M48.855,47.675a1.265,1.265,0,0,0,.774-1.113c0-3.541-4-6.412-8.935-6.412s-8.935,2.871-8.935,6.412a1.265,1.265,0,0,0,.774,1.113l4.061,1.913a9.621,9.621,0,0,0,8.2,0Z"/><path class="g" d="M40.188,42.777c-1.714-.1-2.226-.069-3.432,1.023"/><path class="h" d="M40.694,60.746v4.032"/><path class="h" d="M41.119,60.971l3.275,2.353"/><path class="h" d="M40.27,60.971,37,63.324"/></g></svg>