<svg xmlns="http://www.w3.org/2000/svg" width="80" height="80" viewBox="0 0 80 80"><defs><style>.a{fill:#ffc700;}.b{fill:rgba(255,255,255,0.2);}.b,.d{fill-rule:evenodd;}.c{fill:#fff;}.d{fill:#333331;}.e,.g,.i,.j,.k{fill:none;}.e{stroke:#ffd233;stroke-width:3.207px;}.e,.i,.j,.k{stroke-linecap:round;}.f{fill:#cd7900;}.g,.k{stroke:#f68e00;}.g{stroke-width:1.604px;}.h{fill:#fdc300;}.i{stroke:#fecafc;}.i,.k{stroke-width:4.811px;}.j{stroke:#ffdf74;stroke-width:2.405px;}</style></defs><g transform="translate(-0.17)"><circle class="a" cx="40" cy="40" r="40" transform="translate(0.17)"/><path class="b" d="M57,54.318A20.043,20.043,0,1,0,45.248,18.034a9.176,9.176,0,0,1-10.157,0,20.043,20.043,0,1,0,0,32.481,9.176,9.176,0,0,1,10.157,0A19.953,19.953,0,0,0,57,54.318Z"/><circle class="c" cx="14.036" cy="14.036" r="14.036" transform="translate(35.8 48.311) rotate(180)"/><path class="c" d="M10.869,34.275a10.92,10.92,0,1,0,10.92-10.92A10.92,10.92,0,0,0,10.869,34.275Z"/><path class="d" d="M21.738,45.194a10.92,10.92,0,0,1-10.92-10.92q0-.05,0-.1a4.955,4.955,0,1,0,4-8.351,10.92,10.92,0,1,1,6.917,19.37Z"/><circle class="c" cx="2.597" cy="2.597" r="2.597" transform="translate(22.253 30.672)"/><circle class="c" cx="14.036" cy="14.036" r="14.036" transform="translate(70.984 48.311) rotate(180)"/><path class="c" d="M46.054,34.275a10.92,10.92,0,1,0,10.92-10.92A10.92,10.92,0,0,0,46.054,34.275Z"/><path class="d" d="M56.922,45.194A10.92,10.92,0,0,1,46,34.275q0-.05,0-.1a4.955,4.955,0,1,0,4-8.351,10.92,10.92,0,1,1,6.917,19.37Z"/><circle class="c" cx="2.597" cy="2.597" r="2.597" transform="translate(58.445 30.672)"/><path class="e" d="M38.79,60.746v4.032"/><path class="e" d="M39.214,60.971l3.275,2.353"/><path class="e" d="M38.366,60.971l-3.275,2.353"/><path class="f" d="M33.105,58.16l-3-12.042H47.742L44.649,58.16Z"/><path class="g" d="M44.941,58.082l2.025-12.251"/><path class="g" d="M32.883,58.082,30.857,45.831"/><path class="h" d="M47.1,46.917a1.265,1.265,0,0,0,.774-1.113c0-3.541-4-6.412-8.935-6.412S30,42.263,30,45.8a1.265,1.265,0,0,0,.774,1.113l4.061,1.913a9.621,9.621,0,0,0,8.2,0Z"/><path class="i" d="M37.427,58.5c2.541-5.631,5.6-6.47,8.576,0Z"/><path class="j" d="M38.434,42.019c-1.714-.1-2.226-.069-3.432,1.023"/><path class="k" d="M43.2,57.725c-3.388,2.816-5.245,2.7-8.576,0"/></g></svg>