<svg xmlns="http://www.w3.org/2000/svg" width="80" height="80" viewBox="0 0 80 80"><defs><style>.a{fill:#ff84aa;}.b{fill:rgba(255,255,255,0.2);}.b,.d{fill-rule:evenodd;}.c{fill:#fff;}.d{fill:#333331;}.e,.f,.g,.i,.j{fill:none;stroke-linecap:round;}.e{stroke:#fff;}.e,.f,.j{stroke-width:3.581px;}.f{stroke:#ff6a98;}.g{stroke:#f68e00;stroke-width:5.371px;}.h{fill:#fdc300;}.i{stroke:rgba(255,255,255,0.4);stroke-width:2.686px;}.j{stroke:#ff6f9c;}</style></defs><g transform="translate(-0.987)"><circle class="a" cx="40" cy="40" r="40" transform="translate(0.987)"/><path class="b" d="M57.815,57.873A20.043,20.043,0,1,0,46.776,21.1a11.217,11.217,0,0,1-11.578,0,20.043,20.043,0,1,0,0,33.465,11.217,11.217,0,0,1,11.578,0A19.95,19.95,0,0,0,57.815,57.873Z"/><circle class="c" cx="14.136" cy="14.136" r="14.136" transform="translate(37.85 49.268) rotate(180)"/><path class="c" d="M12.743,35.132a11,11,0,1,0,11-11A11,11,0,0,0,12.743,35.132Z"/><path class="d" d="M23.688,46.129a11,11,0,0,1-11-11q0-.049,0-.1a4.99,4.99,0,1,0,4.03-8.411,11,11,0,1,1,6.967,19.506Z"/><path class="c" d="M24.517,30.542a2.471,2.471,0,0,0,2.173,2.5,2.471,2.471,0,0,0,2.173-2.5c0-1.211-1.523-1.494-2.173,0C25.893,29.015,24.517,29.331,24.517,30.542Z"/><path class="e" d="M28.241,37.443a3.5,3.5,0,0,1-2.767,3.1"/><circle class="c" cx="14.136" cy="14.136" r="14.136" transform="translate(73.282 49.268) rotate(180)"/><path class="c" d="M48.175,35.132a11,11,0,1,0,11-11A11,11,0,0,0,48.175,35.132Z"/><path class="d" d="M59.12,46.129a11,11,0,0,1-11-11q0-.049,0-.1a4.99,4.99,0,1,0,4.03-8.411A11,11,0,1,1,59.12,46.129Z"/><path class="c" d="M59.95,30.542a2.195,2.195,0,1,0,4.346,0c0-1.211-1.523-1.494-2.173,0C61.326,29.015,59.95,29.331,59.95,30.542Z"/><path class="e" d="M63.674,37.443a3.5,3.5,0,0,1-2.767,3.1"/><path class="f" d="M21.113,51.189h-4.25"/><path class="f" d="M65.739,51.189h-4.25"/><path class="g" d="M45.494,49.069c-2.5,2.89-5.5,2.89-8.576,0"/><path class="h" d="M49.393,47.675a1.265,1.265,0,0,0,.774-1.113c0-3.541-4-6.412-8.935-6.412S32.3,43.021,32.3,46.562a1.265,1.265,0,0,0,.774,1.113l3.957,1.864a9.866,9.866,0,0,0,8.41,0Z"/><path class="i" d="M41.231,43.182a3.661,3.661,0,0,0-3.952,1.727"/><path class="j" d="M41.083,63.282v4.032"/><path class="j" d="M41.506,63.506l3.275,2.353"/><path class="j" d="M40.658,63.506l-3.275,2.353"/></g></svg>