<svg xmlns="http://www.w3.org/2000/svg" width="80" height="80" viewBox="0 0 80 80"><defs><style>.a{fill:#754c35;}.b{fill:rgba(255,255,255,0.2);fill-rule:evenodd;}.c{fill:#fff;}.d{fill:#333331;}.e,.g,.h,.j,.k{fill:none;stroke-linecap:round;}.e{stroke:#603d2a;stroke-width:3.207px;}.f{fill:#fdc300;}.g{stroke:rgba(255,255,255,0.4);}.g,.j{stroke-width:2.405px;}.h{stroke:#f68e00;}.h,.k{stroke-width:4.811px;}.i{fill:#91705d;}.j,.k{stroke:#754c35;}</style></defs><g transform="translate(-0.03)"><circle class="a" cx="40" cy="40" r="40" transform="translate(0.03)"/><path class="b" d="M56.857,54.318A20.043,20.043,0,1,0,45.108,18.034a9.176,9.176,0,0,1-10.157,0,20.043,20.043,0,1,0,0,32.481,9.175,9.175,0,0,1,10.157,0A19.953,19.953,0,0,0,56.857,54.318Z"/><circle class="c" cx="14.036" cy="14.036" r="14.036" transform="translate(43.77 17.441)"/><path class="d" d="M59.144,39.173a2.73,2.73,0,1,1-2.73-2.73A2.73,2.73,0,0,1,59.144,39.173Z"/><path class="e" d="M40.373,57.19v4.032"/><path class="e" d="M40.8,57.415l3.275,2.353"/><path class="e" d="M39.949,57.415l-3.275,2.353"/><path class="f" d="M48.075,48.347a1.115,1.115,0,0,0,.808-1.026c0-3.541-4-8.147-8.935-8.147s-8.935,4.606-8.935,8.147a1.115,1.115,0,0,0,.809,1.026l5.093,1.692a9.621,9.621,0,0,0,6.067,0Z"/><path class="g" d="M39.949,42.163A3.661,3.661,0,0,0,36,43.889"/><path class="h" d="M35.661,49.376c2.235-1.219,5.763-1.174,8.576,0"/><circle class="c" cx="14.036" cy="14.036" r="14.036" transform="translate(43.77 17.441)"/><path class="d" d="M59.144,39.654a2.73,2.73,0,1,1-2.73-2.73A2.73,2.73,0,0,1,59.144,39.654Z"/><path class="i" d="M50.274,15.7l19.839,3.759,2.9,18.235L56.292,34.329,40.8,31.737Z"/><path class="j" d="M43.769,32.284,70.784,36.8"/><circle class="c" cx="14.036" cy="14.036" r="14.036" transform="translate(35.717 45.513) rotate(180)"/><path class="d" d="M20.344,39.654a2.73,2.73,0,1,0,2.73-2.73A2.73,2.73,0,0,0,20.344,39.654Z"/><path class="i" d="M29.214,15.7,9.375,19.461,6.473,37.7,23.2,34.329l15.487-2.593Z"/><path class="j" d="M35.718,32.284,8.7,36.8"/><path class="j" d="M45.939,16.392c.091,1.111.755,3.34,2.691,3.37"/><path class="j" d="M33.591,16.392c-.091,1.111-.756,3.34-2.691,3.37"/><path class="k" d="M58.018,46.611l-2.958-.054"/><path class="k" d="M55.975,52.817c-.371.008-.358-.012-.915,0"/></g></svg>