<svg xmlns="http://www.w3.org/2000/svg" width="80" height="80" viewBox="0 0 80 80"><defs><style>.a{fill:rgba(255,255,255,0.2);fill-rule:evenodd;}.b{fill:#fff;}.c,.d,.e,.g,.h{fill:none;stroke-linecap:round;}.c,.e{stroke:#333331;}.c,.d{stroke-width:3.207px;}.d{stroke:#000;}.e{stroke-width:1.604px;}.f{fill:#fdc300;}.g{stroke:rgba(255,255,255,0.4);stroke-width:2.405px;}.h{stroke:#f68e00;stroke-width:4.811px;}</style></defs><g transform="translate(-0.03)"><circle cx="40" cy="40" r="40" transform="translate(0.03)"/><path class="a" d="M45.108,50.515a9.175,9.175,0,0,0-10.157,0,20.043,20.043,0,1,1,0-32.481,9.176,9.176,0,0,0,10.157,0,20.043,20.043,0,1,1,0,32.481Z"/><circle class="b" cx="14.036" cy="14.036" r="14.036" transform="translate(8.215 17.441)"/><path class="b" d="M28.307,31.477a5.46,5.46,0,1,1-5.46-5.46A5.46,5.46,0,0,1,28.307,31.477Z"/><path d="M24.981,31.477a2.73,2.73,0,1,1-2.73-2.73A2.73,2.73,0,0,1,24.981,31.477Z"/><circle class="b" cx="14.036" cy="14.036" r="14.036" transform="translate(43.77 17.441)"/><path class="b" d="M63.862,31.477a5.46,5.46,0,1,1-5.46-5.46A5.46,5.46,0,0,1,63.862,31.477Z"/><path d="M60.536,31.477a2.73,2.73,0,1,1-2.73-2.73A2.73,2.73,0,0,1,60.536,31.477Z"/><path class="c" d="M40.373,57.19v4.032"/><path class="c" d="M40.8,57.415l3.275,2.353"/><path class="c" d="M39.948,57.415l-3.275,2.353"/><path class="d" d="M60.812,45.11H54.806"/><path class="d" d="M58.758,49.376h-1.9"/><path class="d" d="M25.255,45.11H19.249"/><path class="d" d="M23.2,49.376H21.3"/><path class="e" d="M40.03,7.724v4.032"/><path class="e" d="M37.364,7.724V9.74"/><path class="e" d="M42.7,7.724v6.507"/><path class="f" d="M48.075,48.347a1.115,1.115,0,0,0,.808-1.026h0c0-3.541-4-8.147-8.935-8.147s-8.935,4.606-8.935,8.147h0a1.115,1.115,0,0,0,.808,1.026l5.093,1.692a9.621,9.621,0,0,0,6.067,0Z"/><path class="g" d="M39.949,42.163A3.662,3.662,0,0,0,36,43.89"/><path class="h" d="M35.661,49.376c2.235-1.219,5.763-1.174,8.576,0"/></g></svg>