<svg xmlns="http://www.w3.org/2000/svg" width="80" height="80" viewBox="0 0 80 80"><defs><style>.a{fill:#ff9a03;}.b{fill:rgba(255,255,255,0.2);}.b,.d{fill-rule:evenodd;}.c{fill:#fff;}.d{fill:#333331;}.e,.f,.g,.i{fill:none;stroke-linecap:round;}.e{stroke:rgba(255,255,255,0.3);}.e,.i{stroke-width:2.405px;}.f{stroke:#ffae35;stroke-width:3.207px;}.g{stroke:#cd7900;stroke-width:4.811px;}.h{fill:#fdc300;}.i{stroke:rgba(255,255,255,0.4);}</style></defs><g transform="translate(-0.579)"><circle class="a" cx="40" cy="40" r="40" transform="translate(0.579)"/><path class="b" d="M56.451,54.318A20.043,20.043,0,1,0,44.7,18.034a9.176,9.176,0,0,1-10.158,0,20.043,20.043,0,1,0,0,32.481,9.176,9.176,0,0,1,10.158,0A19.953,19.953,0,0,0,56.451,54.318Z"/><circle class="c" cx="14.036" cy="14.036" r="14.036" transform="translate(36.068 49.069) rotate(180)"/><path class="c" d="M11.138,35.033a10.92,10.92,0,1,0,10.92-10.92A10.92,10.92,0,0,0,11.138,35.033Z"/><path class="d" d="M22.006,45.953a10.92,10.92,0,0,1-10.92-10.92q0-.05,0-.1a4.955,4.955,0,1,0,4-8.351,10.92,10.92,0,1,1,6.917,19.37Z"/><circle class="c" cx="2.597" cy="2.597" r="2.597" transform="translate(22.521 31.431)"/><circle class="c" cx="14.036" cy="14.036" r="14.036" transform="translate(71.252 49.069) rotate(180)"/><path class="c" d="M46.322,35.033a10.92,10.92,0,1,0,10.92-10.92A10.92,10.92,0,0,0,46.322,35.033Z"/><path class="d" d="M57.19,45.953a10.92,10.92,0,0,1-10.92-10.92q0-.05,0-.1a4.955,4.955,0,1,0,4-8.351,10.92,10.92,0,1,1,6.917,19.37Z"/><circle class="c" cx="2.597" cy="2.597" r="2.597" transform="translate(58.714 31.431)"/><ellipse class="a" cx="15.836" cy="12.397" rx="15.836" ry="12.397" transform="translate(43.179 37.349)"/><path class="e" d="M57.126,41.447c-1.4-.2-3.937,0-5.048,1.727"/><path class="f" d="M38.9,61.5v4.032"/><path class="f" d="M39.321,61.729,42.6,64.081"/><path class="f" d="M38.473,61.729,35.2,64.081"/><ellipse class="a" cx="15.836" cy="12.397" rx="15.836" ry="12.397" transform="translate(5.162 37.349)"/><path class="e" d="M19.109,41.447c-1.4-.2-3.937,0-5.048,1.727"/><path class="g" d="M43.308,49.069c-2.5,2.89-5.5,2.89-8.576,0"/><path class="h" d="M47.368,47.675a1.265,1.265,0,0,0,.774-1.113c0-3.541-4-6.412-8.935-6.412s-8.935,2.871-8.935,6.412a1.265,1.265,0,0,0,.774,1.113l4.061,1.913a9.621,9.621,0,0,0,8.2,0Z"/><path class="i" d="M38.7,42.777c-1.714-.1-2.226-.069-3.432,1.023"/></g></svg>