<svg xmlns="http://www.w3.org/2000/svg" width="80" height="80" viewBox="0 0 80 80"><defs><style>.a{fill:#2e4fff;}.b{fill:#fff;}.c{fill:#333331;fill-rule:evenodd;}.d{fill:#abb8ff;opacity:0.8;}.e,.g,.h,.i{fill:none;stroke-linecap:round;}.e,.i{stroke:#213ccb;}.e,.g{stroke-width:2.405px;}.f{fill:#fdc300;}.g{stroke:rgba(255,255,255,0.4);}.h{stroke:#f68e00;stroke-width:4.811px;}.i{stroke-width:3.207px;}</style></defs><g transform="translate(-0.396)"><circle class="a" cx="40" cy="40" r="40" transform="translate(0.396)"/><circle class="b" cx="14.036" cy="14.036" r="14.036" transform="translate(36.926 49.827) rotate(180)"/><path class="b" d="M12,35.534a10.92,10.92,0,1,0,10.92-10.92A10.92,10.92,0,0,0,12,35.534Z"/><path class="c" d="M22.864,46.453a10.92,10.92,0,0,1-10.92-10.92c0-.033,0-.066,0-.1a4.955,4.955,0,1,0,4-8.351,10.92,10.92,0,1,1,6.917,19.37Z"/><circle class="b" cx="2.597" cy="2.597" r="2.597" transform="translate(30.052 40.985) rotate(180)"/><path class="d" d="M23.874,40.188a15.922,15.922,0,0,0-16.357-.974l1,13.729,29.152-1.7L36.88,38.756C35.592,41.126,30.572,44.706,23.874,40.188Z"/><path class="e" d="M46.667,15.6c.091,1.111.756,3.34,2.691,3.37"/><path class="e" d="M34.321,15.6c-.091,1.111-.756,3.34-2.691,3.37"/><circle class="b" cx="14.036" cy="14.036" r="14.036" transform="translate(71.778 49.827) rotate(180)"/><path class="b" d="M46.847,35.534a10.92,10.92,0,1,0,10.92-10.92A10.92,10.92,0,0,0,46.847,35.534Z"/><path class="c" d="M57.716,46.453A10.92,10.92,0,0,1,46.8,35.534q0-.049,0-.1a4.955,4.955,0,1,0,4-8.351,10.92,10.92,0,1,1,6.917,19.37Z"/><circle class="b" cx="2.597" cy="2.597" r="2.597" transform="translate(64.903 40.985) rotate(180)"/><path class="d" d="M56.706,40.188a15.922,15.922,0,0,1,16.356-.974l-1,13.729-29.152-1.7L43.7,38.756C44.988,41.126,50.008,44.706,56.706,40.188Z"/><path class="f" d="M48.549,48.346a1.116,1.116,0,0,0,.808-1.026c0-3.541-4-8.147-8.935-8.147s-8.935,4.606-8.935,8.147a1.115,1.115,0,0,0,.808,1.026l5.093,1.692a9.621,9.621,0,0,0,6.067,0Z"/><path class="g" d="M40.422,42.162a3.661,3.661,0,0,0-3.952,1.727"/><path class="h" d="M36.133,49.376c2.235-1.219,5.763-1.174,8.576,0"/><path class="i" d="M41.188,64.04v4.032"/><path class="i" d="M41.612,64.265l3.275,2.353"/><path class="i" d="M40.763,64.265l-3.275,2.353"/></g></svg>