<svg xmlns="http://www.w3.org/2000/svg" width="80" height="80" viewBox="0 0 80 80"><defs><style>.a{fill:#ffb49c;}.b{fill:rgba(255,255,255,0.2);fill-rule:evenodd;}.c{fill:#fff;}.d,.e,.g,.h{fill:none;stroke-linecap:round;}.d{stroke:#fedcc3;stroke-width:8.018px;}.e{stroke:#f68e00;stroke-width:4.811px;}.f{fill:#fdc300;}.g{stroke:rgba(255,255,255,0.4);stroke-width:2.405px;}.h{stroke:#333331;stroke-linejoin:round;stroke-width:2.566px;}</style></defs><g transform="translate(-0.213)"><circle class="a" cx="40" cy="40" r="40" transform="translate(0.213)"/><path class="b" d="M57.04,54.318A20.043,20.043,0,1,0,45.291,18.034a9.176,9.176,0,0,1-10.157,0,20.043,20.043,0,1,0,0,32.481,9.176,9.176,0,0,1,10.157,0A19.953,19.953,0,0,0,57.04,54.318Z"/><circle class="c" cx="14.036" cy="14.036" r="14.036" transform="translate(7.625 17.441)"/><circle class="c" cx="14.036" cy="14.036" r="14.036" transform="translate(44.314 17.441)"/><path class="d" d="M62.392,43.691H54.815"/><path class="d" d="M24.679,43.691H17.1"/><path class="e" d="M44.918,46.925c-2.5,2.89-5.5,2.89-8.576,0"/><path class="f" d="M48.978,45.531a1.265,1.265,0,0,0,.774-1.113c0-3.541-4-6.412-8.935-6.412s-8.935,2.871-8.935,6.412a1.265,1.265,0,0,0,.774,1.113l4.061,1.913a9.622,9.622,0,0,0,8.2,0Z"/><path class="g" d="M40.311,40.633c-1.714-.1-2.226-.069-3.432,1.023"/><path class="h" d="M60.069,27.508l-4.488,3.88,4.488,4.058"/><path class="h" d="M19.416,35.446l4.488-3.88-4.488-4.058"/></g></svg>