<svg xmlns="http://www.w3.org/2000/svg" width="80" height="80" viewBox="0 0 80 80"><defs><style>.a{fill:#333331;}.b{fill:rgba(255,255,255,0.2);fill-rule:evenodd;}.c{fill:#fff;}.d,.f,.h,.i{fill:none;stroke-linecap:round;}.d,.f{stroke:#000;}.d,.h{stroke-width:2.405px;}.e{fill:#5c5c5a;}.f{stroke-width:3.207px;}.g{fill:#fdc300;}.h{stroke:rgba(255,255,255,0.4);}.i{stroke:#f68e00;stroke-width:4.811px;}</style></defs><g transform="translate(-0.764)"><circle class="a" cx="40" cy="40" r="40" transform="translate(0.764)"/><path class="b" d="M57.591,54.318A20.043,20.043,0,1,0,45.841,18.034a9.176,9.176,0,0,1-10.157,0,20.043,20.043,0,1,0,0,32.481,9.175,9.175,0,0,1,10.157,0A19.953,19.953,0,0,0,57.591,54.318Z"/><circle class="c" cx="14.036" cy="14.036" r="14.036" transform="translate(44.504 17.441)"/><path class="a" d="M59.877,39.173a2.73,2.73,0,1,1-2.73-2.73A2.73,2.73,0,0,1,59.877,39.173Z"/><circle class="c" cx="14.036" cy="14.036" r="14.036" transform="translate(8.948 17.441)"/><path class="a" d="M25.714,39.763a2.73,2.73,0,1,1-2.73-2.73A2.73,2.73,0,0,1,25.714,39.763Z"/><circle class="c" cx="14.036" cy="14.036" r="14.036" transform="translate(44.504 17.441)"/><path class="a" d="M59.877,39.173a2.73,2.73,0,1,1-2.73-2.73A2.73,2.73,0,0,1,59.877,39.173Z"/><path class="d" d="M45.439,28.241l27.014,4.514"/><path class="d" d="M35.963,28.241,8.948,32.754"/><circle class="c" cx="14.036" cy="14.036" r="14.036" transform="translate(8.948 17.441)"/><path class="a" d="M25.714,39.763a2.73,2.73,0,1,1-2.73-2.73A2.73,2.73,0,0,1,25.714,39.763Z"/><path class="e" d="M51.007,15.7l19.839,3.759L74.9,33.879l-16.851-2.5L42.56,28.787Z"/><path class="e" d="M31.011,15.842,11.874,18.418,6.932,33.879l16.851-2.5,15.487-2.593Z"/><path class="f" d="M41.106,57.19v4.032"/><path class="f" d="M41.53,57.415,44.8,59.768"/><path class="f" d="M40.682,57.415l-3.275,2.353"/><path class="g" d="M48.808,48.347a1.115,1.115,0,0,0,.808-1.026c0-3.541-4-8.147-8.935-8.147s-8.935,4.606-8.935,8.147a1.115,1.115,0,0,0,.808,1.026l5.093,1.692a9.621,9.621,0,0,0,6.067,0Z"/><path class="h" d="M40.683,42.163a3.661,3.661,0,0,0-3.952,1.727"/><path class="i" d="M36.394,49.376c2.235-1.219,5.763-1.174,8.576,0"/><path class="d" d="M45.439,28.241l27.014,4.514"/><path class="d" d="M35.963,28.241,8.948,32.754"/><path class="d" d="M46.672,16.392c.091,1.111.756,3.34,2.691,3.37"/><path class="d" d="M34.325,16.392c-.091,1.111-.756,3.34-2.691,3.37"/></g></svg>