<svg xmlns="http://www.w3.org/2000/svg" width="80" height="80" viewBox="0 0 80 80"><defs><style>.a{fill:#111f68;}.b{fill:rgba(255,255,255,0.2);fill-rule:evenodd;}.c,.e,.f,.j{fill:none;stroke-linecap:round;}.c{stroke:#414c86;stroke-width:3.207px;}.d{fill:#fdc300;}.e{stroke:rgba(255,255,255,0.4);stroke-width:2.405px;}.f{stroke:#f68e00;stroke-width:4.811px;}.g{fill:#fff;}.h{fill:#333331;}.i{fill:#414c86;}.j{stroke:#111f68;stroke-linejoin:round;stroke-width:2.566px;}</style></defs><g transform="translate(-0.439)"><circle class="a" cx="40" cy="40" r="40" transform="translate(0.439)"/><path class="b" d="M57.266,54.318A20.043,20.043,0,1,0,45.517,18.034a9.176,9.176,0,0,1-10.157,0,20.043,20.043,0,1,0,0,32.481,9.175,9.175,0,0,1,10.157,0A19.953,19.953,0,0,0,57.266,54.318Z"/><path class="c" d="M40.782,57.19v4.032"/><path class="c" d="M41.205,57.415l3.275,2.353"/><path class="c" d="M40.357,57.415l-3.275,2.353"/><path class="d" d="M48.484,48.347a1.115,1.115,0,0,0,.808-1.026c0-3.541-4-8.147-8.935-8.147s-8.935,4.606-8.935,8.147a1.115,1.115,0,0,0,.808,1.026l5.093,1.692a9.621,9.621,0,0,0,6.067,0Z"/><path class="e" d="M40.358,42.163a3.661,3.661,0,0,0-3.952,1.727"/><path class="f" d="M36.07,49.376c2.235-1.219,5.763-1.174,8.576,0"/><circle class="g" cx="14.036" cy="14.036" r="14.036" transform="translate(44.18 17.441)"/><path class="h" d="M64.364,29.778a6.149,6.149,0,1,1-6.149-6.149A6.149,6.149,0,0,1,64.364,29.778Z"/><path class="i" d="M50.485,16.038,67.954,18.57l7.228,15.269-8-2.419a62.538,62.538,0,0,0-18.088-2.673H42.843Z"/><circle class="g" cx="14.036" cy="14.036" r="14.036" transform="translate(37.046 45.513) rotate(180)"/><path class="h" d="M16.86,29.778a6.149,6.149,0,1,0,6.149-6.149A6.149,6.149,0,0,0,16.86,29.778Z"/><path class="i" d="M30.74,16.038,13.271,18.57,6.043,33.839l8-2.419a62.538,62.538,0,0,1,18.088-2.673h6.245Z"/><path class="j" d="M44.421,28.782C49.512,27.834,62.243,27.35,72.439,33"/><path class="j" d="M36.406,28.782C31.315,27.834,18.584,27.35,8.388,33"/></g></svg>