<svg width="1920" height="1080" viewBox="0 0 1920 1080" fill="none" xmlns="http://www.w3.org/2000/svg">
<g clip-path="url(#clip0_1574_9273)">
<rect width="1920" height="1080" fill="url(#paint0_linear_1574_9273)"/>
<rect width="1920" height="594.869" fill="url(#paint1_linear_1574_9273)"/>
<path d="M1289.45 707.221L1354.93 677.717C1360.23 675.331 1366.46 677.587 1369 682.808L1369.96 684.793C1380.11 705.634 1371.02 730.734 1349.89 740.256C1329.63 749.387 1305.77 740.754 1296.05 720.768L1289.45 707.221Z" fill="#2DAF92"/>
<path d="M1059.06 707.221L1124.54 677.717C1129.83 675.331 1136.06 677.587 1138.61 682.808L1139.57 684.793C1149.71 705.634 1140.63 730.734 1119.5 740.256C1099.23 749.387 1075.38 740.754 1065.65 720.768L1059.06 707.221Z" fill="#2DAF92"/>
<ellipse cx="1220.41" cy="706.935" rx="103.372" ry="113.46" fill="url(#paint2_linear_1574_9273)"/>
<path d="M1256.85 825.756C1260.99 825.756 1269.5 825.756 1274.76 825.756" stroke="#F68E00" stroke-width="18.4715" stroke-linecap="round"/>
<path d="M1163.18 825.756C1167.32 825.756 1175.83 825.756 1181.09 825.756" stroke="#F68E00" stroke-width="18.4715" stroke-linecap="round"/>
<path d="M1159.7 839.701C1187.41 839.807 1244.42 840.023 1279.68 840.157" stroke="#DDDDDD" stroke-width="9.23576" stroke-linecap="round"/>
<path d="M1218.53 752.419V762.84" stroke="#32C1A1" stroke-width="9.18858" stroke-linecap="round"/>
<path d="M1219.63 752.999L1228.09 759.08" stroke="#32C1A1" stroke-width="9.18858" stroke-linecap="round"/>
<path d="M1217.44 752.999L1208.97 759.08" stroke="#32C1A1" stroke-width="9.18858" stroke-linecap="round"/>
<path d="M1225.45 593.475L1230.94 573" stroke="#47CFB0" stroke-width="18.6902" stroke-linecap="round"/>
<path d="M1227.91 592.912L1247.74 585.422" stroke="#47CFB0" stroke-width="18.6902" stroke-linecap="round"/>
<path fill-rule="evenodd" clip-rule="evenodd" d="M1128.4 701.751C1129.5 705.204 1132.86 707.301 1136.49 707.301H1302.89C1306.51 707.301 1309.87 705.204 1310.97 701.751C1312.53 696.87 1313.37 691.67 1313.37 686.274C1313.37 658.148 1290.57 635.348 1262.44 635.348C1249.64 635.348 1237.94 640.074 1228.99 647.876C1223.95 652.273 1215.43 652.273 1210.39 647.876C1201.44 640.074 1189.74 635.348 1176.93 635.348C1148.81 635.348 1126.01 658.148 1126.01 686.274C1126.01 691.67 1126.85 696.87 1128.4 701.751Z" fill="white" fill-opacity="0.2"/>
<circle cx="36.2737" cy="36.2737" r="36.2737" transform="matrix(-1 0 0 1 1211.22 647.735)" fill="white"/>
<path d="M1146.79 684.009C1146.79 699.595 1159.43 712.229 1175.01 712.229C1190.6 712.229 1203.23 699.595 1203.23 684.009C1203.23 668.424 1190.6 655.789 1175.01 655.789C1159.43 655.789 1146.79 668.424 1146.79 684.009Z" fill="white"/>
<path fill-rule="evenodd" clip-rule="evenodd" d="M1174.88 712.229C1159.3 712.229 1146.66 699.594 1146.66 684.009C1146.66 683.925 1146.66 683.841 1146.66 683.756C1149 686.211 1152.29 687.741 1155.95 687.741C1163.02 687.741 1168.75 682.007 1168.75 674.935C1168.75 668.219 1163.58 662.711 1157.01 662.172C1161.87 658.183 1168.1 655.789 1174.88 655.789C1190.47 655.789 1203.1 668.424 1203.1 684.009C1203.1 699.594 1190.47 712.229 1174.88 712.229Z" fill="#333331"/>
<circle cx="1182.92" cy="681.413" r="6.7122" fill="white"/>
<circle cx="36.2737" cy="36.2737" r="36.2737" transform="matrix(-1 0 0 1 1302.15 647.735)" fill="white"/>
<path d="M1237.72 684.009C1237.72 699.595 1250.35 712.229 1265.94 712.229C1281.52 712.229 1294.16 699.595 1294.16 684.009C1294.16 668.424 1281.52 655.789 1265.94 655.789C1250.35 655.789 1237.72 668.424 1237.72 684.009Z" fill="white"/>
<path fill-rule="evenodd" clip-rule="evenodd" d="M1265.81 712.229C1250.22 712.229 1237.59 699.594 1237.59 684.009C1237.59 683.925 1237.59 683.84 1237.59 683.756C1239.92 686.211 1243.22 687.741 1246.87 687.741C1253.94 687.741 1259.68 682.007 1259.68 674.935C1259.68 668.219 1254.51 662.711 1247.93 662.172C1252.8 658.183 1259.02 655.789 1265.81 655.789C1281.39 655.789 1294.03 668.424 1294.03 684.009C1294.03 699.594 1281.39 712.229 1265.81 712.229Z" fill="#333331"/>
<circle cx="1276.45" cy="681.413" r="6.7122" fill="white"/>
<circle cx="1268.62" cy="722.031" r="32.0368" fill="#47CFB0"/>
<path d="M1264.79 700.585C1261.96 700.068 1256.83 700.585 1254.58 705.047" stroke="white" stroke-opacity="0.3" stroke-width="6.89143" stroke-linecap="round"/>
<circle cx="1172.13" cy="722.031" r="32.0368" fill="#47CFB0"/>
<path d="M1168.31 700.585C1165.48 700.068 1160.35 700.585 1158.1 705.047" stroke="white" stroke-opacity="0.3" stroke-width="6.89143" stroke-linecap="round"/>
<path d="M1229.94 720.283C1223.47 727.751 1215.72 727.751 1207.77 720.283" stroke="#F68E00" stroke-width="13.7833" stroke-linecap="round"/>
<path d="M1240.43 716.682C1241.58 716.141 1242.43 715.073 1242.43 713.805C1242.43 704.653 1232.09 697.233 1219.34 697.233C1206.58 697.233 1196.24 704.653 1196.24 713.805C1196.24 715.073 1197.1 716.141 1198.24 716.682L1208.47 721.499C1215.35 724.741 1223.32 724.741 1230.2 721.499L1240.43 716.682Z" fill="#FDC300"/>
<path d="M1218.03 704.023C1213.6 703.761 1212.28 703.845 1209.16 706.667" stroke="white" stroke-opacity="0.4" stroke-width="6.89167" stroke-linecap="round"/>
<circle cx="1220.41" cy="704.117" r="103.37" fill="#47CFB0"/>
<path fill-rule="evenodd" clip-rule="evenodd" d="M1263.9 741.121C1292.5 741.121 1315.7 717.93 1315.7 689.323C1315.7 660.715 1292.5 637.524 1263.9 637.524C1253.3 637.524 1243.45 640.705 1235.24 646.165C1226.93 651.694 1213.89 651.694 1205.58 646.165C1197.37 640.705 1187.52 637.524 1176.92 637.524C1148.32 637.524 1125.12 660.715 1125.12 689.323C1125.12 717.93 1148.32 741.121 1176.92 741.121C1187.52 741.121 1197.37 737.94 1205.58 732.481C1213.89 726.951 1226.93 726.951 1235.24 732.481C1243.45 737.94 1253.3 741.121 1263.9 741.121Z" fill="white" fill-opacity="0.2"/>
<circle cx="36.2741" cy="36.2741" r="36.2741" transform="matrix(-1 0 0 1 1209.12 653.047)" fill="white"/>
<path d="M1144.69 689.321C1144.69 704.907 1157.32 717.542 1172.91 717.542C1188.5 717.542 1201.13 704.907 1201.13 689.321C1201.13 673.736 1188.5 661.101 1172.91 661.101C1157.32 661.101 1144.69 673.736 1144.69 689.321Z" fill="white"/>
<path fill-rule="evenodd" clip-rule="evenodd" d="M1172.78 717.542C1157.19 717.542 1144.56 704.907 1144.56 689.321C1144.56 689.236 1144.56 689.151 1144.56 689.066C1146.89 691.521 1150.19 693.052 1153.84 693.052C1160.92 693.052 1166.65 687.319 1166.65 680.246C1166.65 673.53 1161.48 668.022 1154.9 667.484C1159.77 663.495 1165.99 661.101 1172.78 661.101C1188.36 661.101 1201 673.736 1201 689.321C1201 704.907 1188.36 717.542 1172.78 717.542Z" fill="#333331"/>
<circle cx="1180.82" cy="686.725" r="6.71205" fill="white"/>
<circle cx="36.2741" cy="36.2741" r="36.2741" transform="matrix(-1 0 0 1 1300.04 653.047)" fill="white"/>
<path d="M1235.61 689.321C1235.61 704.907 1248.25 717.542 1263.83 717.542C1279.42 717.542 1292.05 704.907 1292.05 689.321C1292.05 673.736 1279.42 661.101 1263.83 661.101C1248.25 661.101 1235.61 673.736 1235.61 689.321Z" fill="white"/>
<path fill-rule="evenodd" clip-rule="evenodd" d="M1263.7 717.542C1248.12 717.542 1235.48 704.907 1235.48 689.321C1235.48 689.236 1235.48 689.151 1235.48 689.066C1237.82 691.521 1241.11 693.052 1244.77 693.052C1251.84 693.052 1257.57 687.319 1257.57 680.246C1257.57 673.53 1252.4 668.022 1245.82 667.484C1250.69 663.495 1256.92 661.101 1263.7 661.101C1279.29 661.101 1291.92 673.736 1291.92 689.321C1291.92 704.907 1279.29 717.542 1263.7 717.542Z" fill="#333331"/>
<circle cx="1274.35" cy="686.724" r="6.71205" fill="white"/>
<path d="M1216.84 757.729V768.15" stroke="#32C1A1" stroke-width="9.18838" stroke-linecap="round"/>
<path d="M1217.94 758.31L1226.4 764.39" stroke="#32C1A1" stroke-width="9.18838" stroke-linecap="round"/>
<path d="M1215.75 758.31L1207.28 764.39" stroke="#32C1A1" stroke-width="9.18838" stroke-linecap="round"/>
<path d="M1202.15 751.047L1194.41 719.928H1239.98L1231.99 751.047H1202.15Z" fill="#CD7900"/>
<path d="M1232.74 750.845L1237.97 719.185" stroke="#F68E00" stroke-width="4.59419"/>
<path d="M1201.58 750.845L1196.35 719.185" stroke="#F68E00" stroke-width="4.59419"/>
<path d="M1238.32 721.992C1239.47 721.452 1240.32 720.383 1240.32 719.116C1240.32 709.964 1229.98 702.544 1217.23 702.544C1204.48 702.544 1194.14 709.964 1194.14 719.116C1194.14 720.383 1194.99 721.452 1196.14 721.992L1206.36 726.81C1213.24 730.052 1221.21 730.052 1228.1 726.81L1238.32 721.992Z" fill="#FDC300"/>
<mask id="mask0_1574_9273" style="mask-type:alpha" maskUnits="userSpaceOnUse" x="1194" y="719" width="47" height="33">
<path d="M1202 751.048L1194.44 719.929H1240.01L1231.99 751.048H1202Z" fill="#CD7900"/>
</mask>
<g mask="url(#mask0_1574_9273)">
<path d="M1213.32 751.934C1219.89 737.382 1227.78 735.214 1235.48 751.934H1213.32Z" stroke="#FECAFC" stroke-width="13.7826" stroke-linecap="round"/>
</g>
<path d="M1215.92 709.334C1211.49 709.071 1210.17 709.156 1207.05 711.977" stroke="#FFDF74" stroke-width="6.89128" stroke-linecap="round"/>
<path d="M1228.24 749.92C1219.49 757.197 1214.69 756.887 1206.08 749.92" stroke="#F68E00" stroke-width="13.7826" stroke-linecap="round"/>
<path d="M768.548 597.602L843.815 563.687C849.9 560.945 857.062 563.538 859.983 569.539L861.094 571.822C872.752 595.777 862.31 624.63 838.02 635.574C814.726 646.071 787.307 636.147 776.126 613.173L768.548 597.602Z" fill="#2DAF92"/>
<path d="M617.558 597.602L542.291 563.687C536.206 560.945 529.043 563.538 526.122 569.539L525.012 571.822C513.353 595.777 523.795 624.63 548.085 635.574C571.38 646.071 598.799 636.147 609.98 613.173L617.558 597.602Z" fill="#2DAF92"/>
<ellipse cx="689.185" cy="597.273" rx="118.824" ry="130.42" fill="url(#paint3_linear_1574_9273)"/>
<path d="M731.075 733.856C735.829 733.856 745.609 733.856 751.656 733.856" stroke="#F68E00" stroke-width="22.482" stroke-linecap="round"/>
<path d="M623.399 733.856C628.154 733.856 637.933 733.856 643.981 733.856" stroke="#F68E00" stroke-width="22.482" stroke-linecap="round"/>
<path d="M619.393 749.886C651.252 750.007 716.786 750.255 757.314 750.409" stroke="#DDDDDD" stroke-width="11.241" stroke-linecap="round"/>
<path d="M687.027 649.556V661.535" stroke="#32C1A1" stroke-width="11.1836" stroke-linecap="round"/>
<path d="M688.287 650.224L698.016 657.213" stroke="#32C1A1" stroke-width="11.1836" stroke-linecap="round"/>
<path d="M685.765 650.224L676.037 657.213" stroke="#32C1A1" stroke-width="11.1836" stroke-linecap="round"/>
<path d="M694.979 466.853L701.285 443.318" stroke="#47CFB0" stroke-width="22.7482" stroke-linecap="round"/>
<path d="M697.806 466.206L720.6 457.596" stroke="#47CFB0" stroke-width="22.7482" stroke-linecap="round"/>
<path fill-rule="evenodd" clip-rule="evenodd" d="M793.406 590.931C792.096 595.143 787.998 597.695 783.588 597.695H593.119C588.709 597.695 584.611 595.143 583.301 590.931C581.59 585.432 580.669 579.585 580.669 573.523C580.669 541.194 606.877 514.985 639.207 514.985C653.58 514.985 666.743 520.165 676.931 528.76C683.155 534.01 693.552 534.01 699.776 528.76C709.964 520.165 723.127 514.985 737.5 514.985C769.829 514.985 796.038 541.194 796.038 573.524C796.038 579.586 795.116 585.432 793.406 590.931Z" fill="white" fill-opacity="0.2"/>
<circle cx="41.6959" cy="41.6959" r="41.6959" transform="matrix(-1 0 0 1 678.622 529.224)" fill="white"/>
<path d="M604.564 570.92C604.564 588.835 619.087 603.359 637.002 603.359C654.917 603.359 669.44 588.835 669.44 570.92C669.44 553.005 654.917 538.482 637.002 538.482C619.087 538.482 604.564 553.005 604.564 570.92Z" fill="white"/>
<path fill-rule="evenodd" clip-rule="evenodd" d="M636.849 603.359C618.934 603.359 604.411 588.836 604.411 570.92C604.411 570.823 604.411 570.726 604.412 570.629C607.094 573.45 610.883 575.209 615.084 575.209C623.213 575.209 629.804 568.619 629.804 560.489C629.804 552.77 623.861 546.438 616.302 545.819C621.896 541.234 629.051 538.482 636.849 538.482C654.764 538.482 669.288 553.005 669.288 570.92C669.288 588.836 654.764 603.359 636.849 603.359Z" fill="#333331"/>
<circle cx="646.094" cy="567.936" r="7.71555" fill="white"/>
<circle cx="41.6959" cy="41.6959" r="41.6959" transform="matrix(-1 0 0 1 783.138 529.224)" fill="white"/>
<path d="M709.079 570.92C709.079 588.835 723.602 603.358 741.517 603.358C759.432 603.358 773.956 588.835 773.956 570.92C773.956 553.004 759.432 538.481 741.517 538.481C723.602 538.481 709.079 553.004 709.079 570.92Z" fill="white"/>
<path fill-rule="evenodd" clip-rule="evenodd" d="M741.366 603.358C723.451 603.358 708.928 588.835 708.928 570.92C708.928 570.823 708.928 570.726 708.929 570.629C711.611 573.45 715.4 575.209 719.599 575.209C727.729 575.209 734.32 568.619 734.32 560.489C734.32 552.769 728.377 546.438 720.818 545.818C726.412 541.233 733.568 538.481 741.366 538.481C759.281 538.481 773.804 553.004 773.804 570.92C773.804 588.835 759.281 603.358 741.366 603.358Z" fill="#333331"/>
<circle cx="753.607" cy="567.936" r="7.71555" fill="white"/>
<circle cx="744.595" cy="614.627" r="36.8256" fill="#47CFB0"/>
<path d="M740.201 589.974C736.943 589.38 731.045 589.974 728.461 595.103" stroke="white" stroke-opacity="0.3" stroke-width="8.3877" stroke-linecap="round"/>
<circle cx="633.692" cy="614.627" r="36.8256" fill="#47CFB0"/>
<path d="M629.298 589.974C626.041 589.38 620.142 589.974 617.559 595.103" stroke="white" stroke-opacity="0.3" stroke-width="8.3877" stroke-linecap="round"/>
<path d="M700.131 612.616C692.697 621.201 683.794 621.201 674.653 612.616" stroke="#F68E00" stroke-width="16.776" stroke-linecap="round"/>
<path d="M712.194 608.477C713.512 607.856 714.492 606.627 714.492 605.17C714.492 594.65 702.608 586.121 687.949 586.121C673.289 586.121 661.405 594.65 661.405 605.17C661.405 606.627 662.385 607.856 663.703 608.477L675.457 614.014C683.368 617.741 692.529 617.741 700.44 614.014L712.194 608.477Z" fill="#FDC300"/>
<path d="M686.446 593.925C681.354 593.624 679.834 593.721 676.25 596.964" stroke="white" stroke-opacity="0.4" stroke-width="8.38799" stroke-linecap="round"/>
<path d="M540.387 468.269C540.387 481.752 551.216 496.123 564.574 496.123C577.932 496.123 588.761 481.752 588.761 468.269C588.761 454.785 571.808 451.64 564.574 468.27C555.698 451.266 540.387 454.785 540.387 468.269Z" fill="#FF8F8F"/>
<path d="M511.325 444.309C511.325 452.214 517.673 460.639 525.505 460.639C533.337 460.639 539.686 452.214 539.686 444.309C539.686 436.404 529.746 434.56 525.505 444.309C520.301 434.34 511.325 436.404 511.325 444.309Z" fill="#FF8F8F"/>
<g filter="url(#filter0_di_1574_9273)">
<path fill-rule="evenodd" clip-rule="evenodd" d="M1157.07 786.668C1247.76 769.653 1347.36 760.251 1451.86 760.251C1873.2 760.251 2214.76 913.075 2214.76 1101.59C2214.76 1290.11 1873.2 1442.93 1451.86 1442.93C1189.7 1442.93 958.423 1383.77 821.091 1293.66C730.397 1310.67 630.802 1320.07 526.299 1320.07C104.958 1320.07 -236.607 1167.25 -236.607 978.732C-236.607 790.214 104.958 637.39 526.299 637.39C788.459 637.39 1019.73 696.554 1157.07 786.668Z" fill="url(#paint4_linear_1574_9273)"/>
</g>
<rect x="1283.71" y="374.279" width="11.3137" height="11.3137" rx="4" transform="rotate(-45 1283.71 374.279)" fill="white" fill-opacity="0.1"/>
<rect x="1382.38" y="442.026" width="11.3137" height="11.3137" rx="4" transform="rotate(-45 1382.38 442.026)" fill="white" fill-opacity="0.1"/>
<rect x="183.67" y="442.026" width="11.3137" height="11.3137" rx="4" transform="rotate(-45 183.67 442.026)" fill="white" fill-opacity="0.1"/>
<rect x="1544" y="352.965" width="11.3137" height="11.3137" rx="4" transform="rotate(-45 1544 352.965)" fill="white" fill-opacity="0.1"/>
<rect x="345.293" y="352.965" width="11.3137" height="11.3137" rx="4" transform="rotate(-45 345.293 352.965)" fill="white" fill-opacity="0.1"/>
<rect x="1710" y="250.965" width="11.3137" height="11.3137" rx="4" transform="rotate(-45 1710 250.965)" fill="white" fill-opacity="0.1"/>
<rect x="511.293" y="250.965" width="11.3137" height="11.3137" rx="4" transform="rotate(-45 511.293 250.965)" fill="white" fill-opacity="0.1"/>
<rect x="1324.45" y="220.186" width="11.3137" height="11.3137" rx="4" transform="rotate(-45 1324.45 220.186)" fill="white" fill-opacity="0.1"/>
<rect x="125.741" y="220.186" width="11.3137" height="11.3137" rx="4" transform="rotate(-45 125.741 220.186)" fill="white" fill-opacity="0.1"/>
<rect x="1819" y="521.575" width="11.3137" height="11.3137" rx="4" transform="rotate(-45 1819 521.575)" fill="white" fill-opacity="0.1"/>
<rect x="620.293" y="521.575" width="11.3137" height="11.3137" rx="4" transform="rotate(-45 620.293 521.575)" fill="white" fill-opacity="0.1"/>
<rect x="1721.31" y="425.34" width="11.3137" height="11.3137" rx="4" transform="rotate(-45 1721.31 425.34)" fill="white" fill-opacity="0.1"/>
<rect x="522.606" y="425.34" width="11.3137" height="11.3137" rx="4" transform="rotate(-45 522.606 425.34)" fill="white" fill-opacity="0.1"/>
<rect x="1604" y="554.328" width="11.3137" height="11.3137" rx="4" transform="rotate(-45 1604 554.328)" fill="white" fill-opacity="0.1"/>
<rect x="1471" y="236.373" width="11.3137" height="11.3137" rx="4" transform="rotate(-45 1471 236.373)" fill="white" fill-opacity="0.1"/>
<rect x="272.293" y="236.373" width="11.3137" height="11.3137" rx="4" transform="rotate(-45 272.293 236.373)" fill="white" fill-opacity="0.1"/>
<rect x="1638" y="144.195" width="11.3137" height="11.3137" rx="4" transform="rotate(-45 1638 144.195)" fill="white" fill-opacity="0.1"/>
<rect x="439.293" y="144.195" width="11.3137" height="11.3137" rx="4" transform="rotate(-45 439.293 144.195)" fill="white" fill-opacity="0.1"/>
<rect x="1819" y="149.008" width="11.3137" height="11.3137" rx="4" transform="rotate(-45 1819 149.008)" fill="white" fill-opacity="0.1"/>
<rect x="620.293" y="149.008" width="11.3137" height="11.3137" rx="4" transform="rotate(-45 620.293 149.008)" fill="white" fill-opacity="0.1"/>
<g filter="url(#filter1_di_1574_9273)">
<path fill-rule="evenodd" clip-rule="evenodd" d="M1217.54 1238.67C1192.44 1274.78 1151.23 1293.09 1110.17 1290.7C1107.59 1308.9 1100.83 1326.77 1089.64 1342.87C1051.18 1398.21 974.896 1411.73 919.259 1373.07C892.705 1354.61 875.652 1327.6 869.262 1298.4C833.525 1310.75 792.481 1306.4 758.94 1283.09C703.303 1244.43 689.379 1168.22 727.84 1112.88C757.472 1070.24 809.552 1052.43 857.346 1064.18C857.682 1063.68 858.023 1063.18 858.369 1062.68C896.829 1007.34 973.111 993.825 1028.75 1032.49C1040.36 1040.56 1050.16 1050.27 1058.04 1061.08C1097.37 1039.86 1147.07 1041.09 1186.44 1068.45C1242.08 1107.12 1256 1183.32 1217.54 1238.67Z" fill="url(#paint5_linear_1574_9273)"/>
</g>
<g filter="url(#filter2_di_1574_9273)">
<path fill-rule="evenodd" clip-rule="evenodd" d="M1638.54 1120.67C1613.44 1156.78 1572.23 1175.09 1531.17 1172.7C1528.59 1190.9 1521.83 1208.77 1510.64 1224.87C1472.18 1280.21 1395.9 1293.73 1340.26 1255.07C1313.7 1236.61 1296.65 1209.6 1290.26 1180.4C1254.52 1192.75 1213.48 1188.4 1179.94 1165.09C1124.3 1126.43 1110.38 1050.22 1148.84 994.877C1178.47 952.24 1230.55 934.429 1278.35 946.18C1278.68 945.68 1279.02 945.181 1279.37 944.684C1317.83 889.343 1394.11 875.825 1449.75 914.492C1461.36 922.563 1471.16 932.271 1479.04 943.083C1518.37 921.858 1568.07 923.09 1607.44 950.45C1663.08 989.116 1677 1065.32 1638.54 1120.67Z" fill="url(#paint6_linear_1574_9273)"/>
</g>
<g filter="url(#filter3_i_1574_9273)">
<path fill-rule="evenodd" clip-rule="evenodd" d="M1663.25 751.726C1663.29 751.518 1663.33 751.31 1663.38 751.102C1688.12 629.397 1807.37 550.902 1929.73 575.78C2052.08 600.658 2131.21 719.487 2106.46 841.192C2103.17 857.379 2098.21 872.802 2091.79 887.319C2111.59 926.444 2118.84 972.193 2109.45 1018.4C2087.19 1127.86 1979.94 1198.46 1869.9 1176.09C1817.38 1165.41 1773.71 1135.48 1744.83 1095.21C1698.53 1137.45 1633.21 1157.75 1566.87 1144.26C1456.82 1121.88 1385.65 1015.01 1407.91 905.55C1430.17 796.09 1537.42 725.493 1647.46 747.867C1652.82 748.957 1658.08 750.246 1663.25 751.726Z" fill="url(#paint7_linear_1574_9273)"/>
</g>
<g filter="url(#filter4_di_1574_9273)">
<path fill-rule="evenodd" clip-rule="evenodd" d="M275.181 1120.67C300.281 1156.78 341.488 1175.09 382.553 1172.7C385.136 1190.9 391.893 1208.77 403.085 1224.87C441.546 1280.21 517.827 1293.73 573.464 1255.07C600.018 1236.61 617.07 1209.6 623.461 1180.4C659.198 1192.75 700.241 1188.4 733.782 1165.09C789.419 1126.43 803.343 1050.22 764.883 994.877C735.251 952.24 683.17 934.429 635.377 946.18C635.04 945.68 634.699 945.181 634.354 944.684C595.893 889.343 519.612 875.825 463.975 914.492C452.36 922.563 442.564 932.271 434.682 943.083C395.354 921.858 345.649 923.09 306.281 950.45C250.644 989.116 236.72 1065.32 275.181 1120.67Z" fill="url(#paint8_linear_1574_9273)"/>
</g>
<g filter="url(#filter5_di_1574_9273)">
<path fill-rule="evenodd" clip-rule="evenodd" d="M-198.03 840.447C-185.859 900.31 -143.352 946.302 -89.6563 965.821C-96.3619 990.455 -97.5642 1016.96 -92.1369 1043.66C-73.4863 1135.39 16.3911 1194.55 108.61 1175.8C152.623 1166.85 189.215 1141.77 213.417 1108.02C252.217 1143.42 306.96 1160.43 362.555 1149.13C454.774 1130.38 514.413 1040.81 495.762 949.085C481.393 878.415 424.746 827.075 357.323 815.802C357.168 814.979 357.007 814.155 356.839 813.331C338.189 721.603 248.312 662.442 156.093 681.192C136.842 685.106 119.011 692.106 103.015 701.567C64.5114 652.881 0.430455 627.139 -64.8228 640.407C-157.042 659.157 -216.681 748.718 -198.03 840.447Z" fill="url(#paint9_linear_1574_9273)"/>
</g>
<g filter="url(#filter6_d_1574_9273)">
<path d="M139.921 68.2756L139.921 73.8059C139.922 76.8071 142.355 79.2399 145.356 79.2399H150.328" stroke="#47CFB0" stroke-width="2.8989" stroke-linecap="round"/>
<g filter="url(#filter7_d_1574_9273)">
<circle cx="149.904" cy="75.0301" r="4.236" stroke="#47CFB0" stroke-width="2.8989" shape-rendering="crispEdges"/>
</g>
<path d="M166.706 68.8646C167.532 68.8646 168.141 69.495 168.141 70.3428V78.6684C168.141 82.0596 166.076 84.0377 162.576 84.0377C160.815 84.0377 159.185 83.516 157.946 82.5378C157.555 82.2552 157.337 81.8639 157.337 81.4727C157.337 80.7336 157.924 80.1466 158.663 80.1466C158.924 80.1466 159.185 80.2553 159.446 80.4292C160.38 81.0814 161.293 81.3857 162.337 81.3857C164.141 81.3857 165.206 80.451 165.206 78.8423V78.2554C164.446 79.0815 163.315 79.538 161.924 79.538C158.902 79.538 156.772 77.3207 156.772 74.1904C156.772 71.0601 158.902 68.8646 161.924 68.8646C163.38 68.8646 164.532 69.3645 165.272 70.2341C165.315 69.4515 165.945 68.8646 166.706 68.8646ZM162.533 77.0598C164.163 77.0598 165.25 75.886 165.25 74.1469C165.25 72.4731 164.185 71.3644 162.533 71.3644C160.902 71.3644 159.75 72.5166 159.75 74.1687C159.75 75.8425 160.924 77.0598 162.533 77.0598Z" fill="#47CFB0"/>
<path d="M133.04 68.8646C135.496 68.8646 137.083 70.5601 137.083 73.1904V78.625C137.083 79.4945 136.475 80.1249 135.627 80.1249C134.801 80.1249 134.17 79.4727 134.17 78.625V73.5817C134.17 72.3427 133.366 71.4949 132.17 71.4949C130.975 71.4949 130.127 72.3644 130.127 73.5817V78.625C130.127 79.4945 129.497 80.1249 128.671 80.1249C127.823 80.1249 127.192 79.4727 127.192 78.625V70.3428C127.192 69.495 127.823 68.8646 128.649 68.8646C129.323 68.8646 129.866 69.3211 130.018 69.9732C130.779 69.2776 131.844 68.8646 133.04 68.8646Z" fill="#47CFB0"/>
<path d="M123.351 63.4081C124.351 63.4081 125.199 64.1907 125.199 65.1906C125.199 66.1688 124.351 66.9514 123.351 66.9514C122.351 66.9514 121.525 66.1688 121.525 65.1906C121.525 64.1907 122.351 63.4081 123.351 63.4081ZM123.351 80.1247C122.525 80.1247 121.894 79.4725 121.894 78.6247V70.3425C121.894 69.4947 122.525 68.8643 123.373 68.8643C124.199 68.8643 124.829 69.4947 124.829 70.3425V78.6247C124.829 79.4725 124.199 80.1247 123.351 80.1247Z" fill="#47CFB0"/>
<path d="M114.918 68.8636C117.94 68.8636 120.136 71.2113 120.136 74.472C120.136 77.7327 117.94 80.1239 114.918 80.1239C113.571 80.1239 112.44 79.6457 111.701 78.8196V82.5586C111.701 83.4064 111.071 84.0368 110.245 84.0368C109.397 84.0368 108.767 83.4064 108.767 82.5586V70.2983C108.767 69.4723 109.397 68.8419 110.223 68.8419C111.006 68.8419 111.593 69.4288 111.636 70.2331C112.375 69.3636 113.527 68.8636 114.918 68.8636ZM114.375 77.4501C115.984 77.4501 117.157 76.2111 117.157 74.4938C117.157 72.7547 116.005 71.5156 114.375 71.5156C112.745 71.5156 111.658 72.7112 111.658 74.472C111.658 76.2328 112.766 77.4501 114.375 77.4501Z" fill="#47CFB0"/>
<path d="M102.07 80.1245C100.374 80.1245 98.5046 79.3637 97.4394 78.1898C97.0916 77.842 96.896 77.4725 96.896 77.0595C96.9177 76.2769 97.5481 75.7552 98.2438 75.7552C98.5046 75.7552 98.7872 75.8421 99.0046 76.0378C99.5915 76.6464 100.613 77.516 102.07 77.516C103.352 77.516 104.113 76.9073 104.113 75.9291C104.113 75.103 103.613 74.7552 102.287 74.1466L100.744 73.4509C98.4611 72.4075 97.2655 71.1684 97.2655 69.3207C97.2655 66.9078 99.3089 65.2557 102.026 65.2557C104.178 65.2557 105.439 66.2556 106.048 66.9512C106.352 67.2773 106.439 67.6034 106.439 67.886C106.439 68.6251 105.765 69.1903 105.091 69.1903C104.83 69.1903 104.548 69.1033 104.287 68.8859C103.7 68.3642 103.048 67.8642 102.026 67.8642C100.983 67.8642 100.244 68.3642 100.244 69.2555C100.244 69.9728 100.635 70.3206 101.917 70.9076L103.548 71.6249C105.939 72.6901 107.091 73.864 107.091 75.8204C107.091 78.4724 104.939 80.1245 102.07 80.1245Z" fill="#47CFB0"/>
</g>
<g filter="url(#filter8_d_1574_9273)">
<path d="M86.6274 74.6148C86.6274 78.7516 84.7711 83.3127 81.9071 85.9115C81.0586 86.7601 80.157 87.2374 79.1493 87.2374C77.24 87.1844 75.9671 85.6463 75.9671 83.9491C75.9671 83.3127 76.1792 82.6232 76.6566 82.0929C78.1416 80.6609 80.263 78.1682 80.263 74.6148C80.263 71.4856 78.778 69.6294 76.3914 69.6294C74.376 69.6294 73.5274 70.8492 72.0424 74.0844L70.3452 77.85C67.7995 83.4188 64.7764 86.3358 60.2684 86.3358C54.3813 86.3358 50.3506 81.3504 50.3506 74.7208C50.3506 69.4703 52.7903 66.3941 54.4874 64.9091C55.283 64.1666 56.0785 63.9545 56.768 63.9545C58.5712 63.9545 59.9501 65.5986 59.9501 67.2427C59.9501 67.8792 59.738 68.5686 59.2076 69.2051C57.9348 70.6371 56.7149 72.2281 56.7149 74.7208C56.7149 77.2666 57.9348 79.0698 60.1093 79.0698C61.8595 79.0698 62.708 78.1152 64.14 74.986L65.8902 71.0083C68.489 65.1743 71.3529 62.3634 76.1262 62.3634C82.5966 62.3634 86.6274 67.614 86.6274 74.6148Z" fill="url(#paint10_linear_1574_9273)"/>
</g>
<g filter="url(#filter9_d_1574_9273)">
<circle cx="62.1809" cy="61.4157" r="3.10812" transform="rotate(-90 62.1809 61.4157)" fill="url(#paint11_linear_1574_9273)"/>
</g>
<g filter="url(#filter10_d_1574_9273)">
<circle cx="55.5354" cy="58.307" r="2.01196" transform="rotate(-90 55.5354 58.307)" fill="url(#paint12_linear_1574_9273)"/>
</g>
<path opacity="0.05" fill-rule="evenodd" clip-rule="evenodd" d="M26.2129 209.186C26.2129 192.272 39.924 178.561 56.8375 178.561H97.2518C114.165 178.561 127.876 192.272 127.876 209.186C127.876 209.954 127.848 210.716 127.793 211.47H149.724C168.472 211.47 183.67 226.669 183.67 245.417C183.67 264.164 168.472 279.363 149.724 279.363H109.735C102.251 289.192 90.4264 295.536 77.1196 295.536H8.53519C-14.0904 295.536 -32.4321 277.194 -32.4321 254.569C-32.4321 231.943 -14.0904 213.601 8.53519 213.601H26.5289C26.3206 212.159 26.2129 210.685 26.2129 209.186Z" fill="white"/>
<path opacity="0.05" fill-rule="evenodd" clip-rule="evenodd" d="M707.448 334.835C707.448 323.83 716.369 314.908 727.375 314.908H753.672C764.678 314.908 773.599 323.83 773.599 334.835C773.599 335.335 773.581 335.831 773.545 336.322H787.815C800.014 336.322 809.904 346.211 809.904 358.41C809.904 370.61 800.014 380.499 787.815 380.499H761.795C756.925 386.895 749.231 391.023 740.572 391.023H695.945C681.222 391.023 669.288 379.088 669.288 364.366C669.288 349.643 681.222 337.708 695.945 337.708H707.653C707.518 336.77 707.448 335.811 707.448 334.835Z" fill="white"/>
<path opacity="0.05" fill-rule="evenodd" clip-rule="evenodd" d="M1475.11 -2.72616C1475.11 -13.7317 1484.03 -22.6534 1495.03 -22.6534H1521.33C1532.34 -22.6534 1541.26 -13.7317 1541.26 -2.72616C1541.26 -2.22607 1541.24 -1.73028 1541.2 -1.23944H1555.48C1567.67 -1.23944 1577.56 8.64991 1577.56 20.849C1577.56 33.0482 1567.67 42.9375 1555.48 42.9375H1529.45C1524.59 49.3332 1516.89 53.4614 1508.23 53.4614H1463.6C1448.88 53.4614 1436.95 41.5266 1436.95 26.8043C1436.95 12.0819 1448.88 0.147093 1463.6 0.147093H1475.31C1475.18 -0.791101 1475.11 -1.75044 1475.11 -2.72616Z" fill="white"/>
<path opacity="0.05" fill-rule="evenodd" clip-rule="evenodd" d="M1870.59 418.291C1870.59 401.377 1884.31 387.666 1901.22 387.666H1941.63C1958.55 387.666 1972.26 401.377 1972.26 418.291C1972.26 419.059 1972.23 419.821 1972.17 420.575H1994.11C2012.85 420.575 2028.05 435.774 2028.05 454.521C2028.05 473.269 2012.85 488.468 1994.11 488.468H1954.12C1946.63 498.296 1934.81 504.641 1921.5 504.641H1852.92C1830.29 504.641 1811.95 486.299 1811.95 463.673C1811.95 441.048 1830.29 422.706 1852.92 422.706H1870.91C1870.7 421.264 1870.59 419.79 1870.59 418.291Z" fill="white"/>
</g>
<defs>
<filter id="filter0_di_1574_9273" x="-240.607" y="637.39" width="2459.37" height="813.544" filterUnits="userSpaceOnUse" color-interpolation-filters="sRGB">
<feFlood flood-opacity="0" result="BackgroundImageFix"/>
<feColorMatrix in="SourceAlpha" type="matrix" values="0 0 0 0 0 0 0 0 0 0 0 0 0 0 0 0 0 0 127 0" result="hardAlpha"/>
<feOffset dy="4"/>
<feGaussianBlur stdDeviation="2"/>
<feComposite in2="hardAlpha" operator="out"/>
<feColorMatrix type="matrix" values="0 0 0 0 1 0 0 0 0 1 0 0 0 0 1 0 0 0 0.25 0"/>
<feBlend mode="normal" in2="BackgroundImageFix" result="effect1_dropShadow_1574_9273"/>
<feBlend mode="normal" in="SourceGraphic" in2="effect1_dropShadow_1574_9273" result="shape"/>
<feColorMatrix in="SourceAlpha" type="matrix" values="0 0 0 0 0 0 0 0 0 0 0 0 0 0 0 0 0 0 127 0" result="hardAlpha"/>
<feOffset dy="2.03"/>
<feGaussianBlur stdDeviation="4.7"/>
<feComposite in2="hardAlpha" operator="arithmetic" k2="-1" k3="1"/>
<feColorMatrix type="matrix" values="0 0 0 0 1 0 0 0 0 1 0 0 0 0 1 0 0 0 0.1 0"/>
<feBlend mode="normal" in2="shape" result="effect2_innerShadow_1574_9273"/>
</filter>
<filter id="filter1_di_1574_9273" x="702.102" y="1010.45" width="541.179" height="392.665" filterUnits="userSpaceOnUse" color-interpolation-filters="sRGB">
<feFlood flood-opacity="0" result="BackgroundImageFix"/>
<feColorMatrix in="SourceAlpha" type="matrix" values="0 0 0 0 0 0 0 0 0 0 0 0 0 0 0 0 0 0 127 0" result="hardAlpha"/>
<feOffset dy="4"/>
<feGaussianBlur stdDeviation="2"/>
<feComposite in2="hardAlpha" operator="out"/>
<feColorMatrix type="matrix" values="0 0 0 0 1 0 0 0 0 1 0 0 0 0 1 0 0 0 0.25 0"/>
<feBlend mode="normal" in2="BackgroundImageFix" result="effect1_dropShadow_1574_9273"/>
<feBlend mode="normal" in="SourceGraphic" in2="effect1_dropShadow_1574_9273" result="shape"/>
<feColorMatrix in="SourceAlpha" type="matrix" values="0 0 0 0 0 0 0 0 0 0 0 0 0 0 0 0 0 0 127 0" result="hardAlpha"/>
<feOffset dy="2.03"/>
<feGaussianBlur stdDeviation="4.7"/>
<feComposite in2="hardAlpha" operator="arithmetic" k2="-1" k3="1"/>
<feColorMatrix type="matrix" values="0 0 0 0 1 0 0 0 0 1 0 0 0 0 1 0 0 0 0.1 0"/>
<feBlend mode="normal" in2="shape" result="effect2_innerShadow_1574_9273"/>
</filter>
<filter id="filter2_di_1574_9273" x="1123.1" y="892.446" width="541.179" height="392.665" filterUnits="userSpaceOnUse" color-interpolation-filters="sRGB">
<feFlood flood-opacity="0" result="BackgroundImageFix"/>
<feColorMatrix in="SourceAlpha" type="matrix" values="0 0 0 0 0 0 0 0 0 0 0 0 0 0 0 0 0 0 127 0" result="hardAlpha"/>
<feOffset dy="4"/>
<feGaussianBlur stdDeviation="2"/>
<feComposite in2="hardAlpha" operator="out"/>
<feColorMatrix type="matrix" values="0 0 0 0 1 0 0 0 0 1 0 0 0 0 1 0 0 0 0.25 0"/>
<feBlend mode="normal" in2="BackgroundImageFix" result="effect1_dropShadow_1574_9273"/>
<feBlend mode="normal" in="SourceGraphic" in2="effect1_dropShadow_1574_9273" result="shape"/>
<feColorMatrix in="SourceAlpha" type="matrix" values="0 0 0 0 0 0 0 0 0 0 0 0 0 0 0 0 0 0 127 0" result="hardAlpha"/>
<feOffset dy="2.03"/>
<feGaussianBlur stdDeviation="4.7"/>
<feComposite in2="hardAlpha" operator="arithmetic" k2="-1" k3="1"/>
<feColorMatrix type="matrix" values="0 0 0 0 1 0 0 0 0 1 0 0 0 0 1 0 0 0 0.1 0"/>
<feBlend mode="normal" in2="shape" result="effect2_innerShadow_1574_9273"/>
</filter>
<filter id="filter3_i_1574_9273" x="1403.84" y="571.179" width="709.687" height="611.074" filterUnits="userSpaceOnUse" color-interpolation-filters="sRGB">
<feFlood flood-opacity="0" result="BackgroundImageFix"/>
<feBlend mode="normal" in="SourceGraphic" in2="BackgroundImageFix" result="shape"/>
<feColorMatrix in="SourceAlpha" type="matrix" values="0 0 0 0 0 0 0 0 0 0 0 0 0 0 0 0 0 0 127 0" result="hardAlpha"/>
<feOffset dy="2.03"/>
<feGaussianBlur stdDeviation="4.7"/>
<feComposite in2="hardAlpha" operator="arithmetic" k2="-1" k3="1"/>
<feColorMatrix type="matrix" values="0 0 0 0 1 0 0 0 0 1 0 0 0 0 1 0 0 0 0.1 0"/>
<feBlend mode="normal" in2="shape" result="effect1_innerShadow_1574_9273"/>
</filter>
<filter id="filter4_di_1574_9273" x="249.442" y="892.446" width="541.179" height="392.665" filterUnits="userSpaceOnUse" color-interpolation-filters="sRGB">
<feFlood flood-opacity="0" result="BackgroundImageFix"/>
<feColorMatrix in="SourceAlpha" type="matrix" values="0 0 0 0 0 0 0 0 0 0 0 0 0 0 0 0 0 0 127 0" result="hardAlpha"/>
<feOffset dy="4"/>
<feGaussianBlur stdDeviation="2"/>
<feComposite in2="hardAlpha" operator="out"/>
<feColorMatrix type="matrix" values="0 0 0 0 1 0 0 0 0 1 0 0 0 0 1 0 0 0 0.1 0"/>
<feBlend mode="normal" in2="BackgroundImageFix" result="effect1_dropShadow_1574_9273"/>
<feBlend mode="normal" in="SourceGraphic" in2="effect1_dropShadow_1574_9273" result="shape"/>
<feColorMatrix in="SourceAlpha" type="matrix" values="0 0 0 0 0 0 0 0 0 0 0 0 0 0 0 0 0 0 127 0" result="hardAlpha"/>
<feOffset dy="2.03"/>
<feGaussianBlur stdDeviation="4.7"/>
<feComposite in2="hardAlpha" operator="arithmetic" k2="-1" k3="1"/>
<feColorMatrix type="matrix" values="0 0 0 0 1 0 0 0 0 1 0 0 0 0 1 0 0 0 0.1 0"/>
<feBlend mode="normal" in2="shape" result="effect2_innerShadow_1574_9273"/>
</filter>
<filter id="filter5_di_1574_9273" x="-205.444" y="636.939" width="708.62" height="550.326" filterUnits="userSpaceOnUse" color-interpolation-filters="sRGB">
<feFlood flood-opacity="0" result="BackgroundImageFix"/>
<feColorMatrix in="SourceAlpha" type="matrix" values="0 0 0 0 0 0 0 0 0 0 0 0 0 0 0 0 0 0 127 0" result="hardAlpha"/>
<feOffset dy="4"/>
<feGaussianBlur stdDeviation="2"/>
<feComposite in2="hardAlpha" operator="out"/>
<feColorMatrix type="matrix" values="0 0 0 0 1 0 0 0 0 1 0 0 0 0 1 0 0 0 0.1 0"/>
<feBlend mode="normal" in2="BackgroundImageFix" result="effect1_dropShadow_1574_9273"/>
<feBlend mode="normal" in="SourceGraphic" in2="effect1_dropShadow_1574_9273" result="shape"/>
<feColorMatrix in="SourceAlpha" type="matrix" values="0 0 0 0 0 0 0 0 0 0 0 0 0 0 0 0 0 0 127 0" result="hardAlpha"/>
<feOffset dy="2.03"/>
<feGaussianBlur stdDeviation="4.7"/>
<feComposite in2="hardAlpha" operator="arithmetic" k2="-1" k3="1"/>
<feColorMatrix type="matrix" values="0 0 0 0 1 0 0 0 0 1 0 0 0 0 1 0 0 0 0.1 0"/>
<feBlend mode="normal" in2="shape" result="effect2_innerShadow_1574_9273"/>
</filter>
<filter id="filter6_d_1574_9273" x="94.9634" y="63.4081" width="75.1103" height="24.4949" filterUnits="userSpaceOnUse" color-interpolation-filters="sRGB">
<feFlood flood-opacity="0" result="BackgroundImageFix"/>
<feColorMatrix in="SourceAlpha" type="matrix" values="0 0 0 0 0 0 0 0 0 0 0 0 0 0 0 0 0 0 127 0" result="hardAlpha"/>
<feOffset dy="1.9326"/>
<feGaussianBlur stdDeviation="0.966299"/>
<feComposite in2="hardAlpha" operator="out"/>
<feColorMatrix type="matrix" values="0 0 0 0 0.74082 0 0 0 0 0.74082 0 0 0 0 0.74082 0 0 0 0.25 0"/>
<feBlend mode="normal" in2="BackgroundImageFix" result="effect1_dropShadow_1574_9273"/>
<feBlend mode="normal" in="SourceGraphic" in2="effect1_dropShadow_1574_9273" result="shape"/>
</filter>
<filter id="filter7_d_1574_9273" x="142.286" y="69.3446" width="15.2363" height="15.2361" filterUnits="userSpaceOnUse" color-interpolation-filters="sRGB">
<feFlood flood-opacity="0" result="BackgroundImageFix"/>
<feColorMatrix in="SourceAlpha" type="matrix" values="0 0 0 0 0 0 0 0 0 0 0 0 0 0 0 0 0 0 127 0" result="hardAlpha"/>
<feOffset dy="1.9326"/>
<feGaussianBlur stdDeviation="0.966299"/>
<feComposite in2="hardAlpha" operator="out"/>
<feColorMatrix type="matrix" values="0 0 0 0 0.74082 0 0 0 0 0.74082 0 0 0 0 0.74082 0 0 0 0.25 0"/>
<feBlend mode="normal" in2="BackgroundImageFix" result="effect1_dropShadow_1574_9273"/>
<feBlend mode="normal" in="SourceGraphic" in2="effect1_dropShadow_1574_9273" result="shape"/>
</filter>
<filter id="filter8_d_1574_9273" x="48.6925" y="62.3634" width="39.593" height="28.1901" filterUnits="userSpaceOnUse" color-interpolation-filters="sRGB">
<feFlood flood-opacity="0" result="BackgroundImageFix"/>
<feColorMatrix in="SourceAlpha" type="matrix" values="0 0 0 0 0 0 0 0 0 0 0 0 0 0 0 0 0 0 127 0" result="hardAlpha"/>
<feOffset dy="1.65806"/>
<feGaussianBlur stdDeviation="0.829029"/>
<feComposite in2="hardAlpha" operator="out"/>
<feColorMatrix type="matrix" values="0 0 0 0 0.753612 0 0 0 0 0.753612 0 0 0 0 0.753612 0 0 0 0.25 0"/>
<feBlend mode="normal" in2="BackgroundImageFix" result="effect1_dropShadow_1574_9273"/>
<feBlend mode="normal" in="SourceGraphic" in2="effect1_dropShadow_1574_9273" result="shape"/>
</filter>
<filter id="filter9_d_1574_9273" x="56.1922" y="58.3076" width="11.9775" height="11.9774" filterUnits="userSpaceOnUse" color-interpolation-filters="sRGB">
<feFlood flood-opacity="0" result="BackgroundImageFix"/>
<feColorMatrix in="SourceAlpha" type="matrix" values="0 0 0 0 0 0 0 0 0 0 0 0 0 0 0 0 0 0 127 0" result="hardAlpha"/>
<feOffset dy="2.88059"/>
<feGaussianBlur stdDeviation="1.4403"/>
<feComposite in2="hardAlpha" operator="out"/>
<feColorMatrix type="matrix" values="0 0 0 0 0.74082 0 0 0 0 0.74082 0 0 0 0 0.74082 0 0 0 0.25 0"/>
<feBlend mode="normal" in2="BackgroundImageFix" result="effect1_dropShadow_1574_9273"/>
<feBlend mode="normal" in="SourceGraphic" in2="effect1_dropShadow_1574_9273" result="shape"/>
</filter>
<filter id="filter10_d_1574_9273" x="50.6428" y="56.295" width="9.78512" height="9.78512" filterUnits="userSpaceOnUse" color-interpolation-filters="sRGB">
<feFlood flood-opacity="0" result="BackgroundImageFix"/>
<feColorMatrix in="SourceAlpha" type="matrix" values="0 0 0 0 0 0 0 0 0 0 0 0 0 0 0 0 0 0 127 0" result="hardAlpha"/>
<feOffset dy="2.88059"/>
<feGaussianBlur stdDeviation="1.4403"/>
<feComposite in2="hardAlpha" operator="out"/>
<feColorMatrix type="matrix" values="0 0 0 0 0.74082 0 0 0 0 0.74082 0 0 0 0 0.74082 0 0 0 0.25 0"/>
<feBlend mode="normal" in2="BackgroundImageFix" result="effect1_dropShadow_1574_9273"/>
<feBlend mode="normal" in="SourceGraphic" in2="effect1_dropShadow_1574_9273" result="shape"/>
</filter>
<linearGradient id="paint0_linear_1574_9273" x1="960" y1="0" x2="960" y2="1080" gradientUnits="userSpaceOnUse">
<stop stop-color="#333331"/>
<stop offset="1" stop-color="#0C0C0C"/>
</linearGradient>
<linearGradient id="paint1_linear_1574_9273" x1="864.275" y1="-151.028" x2="864.275" y2="594.869" gradientUnits="userSpaceOnUse">
<stop/>
<stop offset="1" stop-color="#262625" stop-opacity="0"/>
</linearGradient>
<linearGradient id="paint2_linear_1574_9273" x1="1220.41" y1="593.475" x2="1220.41" y2="820.395" gradientUnits="userSpaceOnUse">
<stop stop-color="#47CFB0"/>
<stop offset="1" stop-color="#44CCAD"/>
</linearGradient>
<linearGradient id="paint3_linear_1574_9273" x1="689.185" y1="466.853" x2="689.185" y2="727.694" gradientUnits="userSpaceOnUse">
<stop stop-color="#47CFB0"/>
<stop offset="1" stop-color="#44CCAD"/>
</linearGradient>
<linearGradient id="paint4_linear_1574_9273" x1="989.079" y1="266.555" x2="989.079" y2="1697.36" gradientUnits="userSpaceOnUse">
<stop offset="0.292396" stop-color="#2D2D2A"/>
<stop offset="1" stop-color="#2E4943"/>
</linearGradient>
<linearGradient id="paint5_linear_1574_9273" x1="1008.8" y1="1123.81" x2="1034.59" y2="1458.34" gradientUnits="userSpaceOnUse">
<stop stop-color="#2D2D2A"/>
<stop offset="1" stop-color="#2E4943"/>
</linearGradient>
<linearGradient id="paint6_linear_1574_9273" x1="1429.8" y1="1005.81" x2="1455.59" y2="1340.34" gradientUnits="userSpaceOnUse">
<stop stop-color="#2D2D2A"/>
<stop offset="1" stop-color="#2E4943"/>
</linearGradient>
<linearGradient id="paint7_linear_1574_9273" x1="1842.76" y1="737.965" x2="2101.38" y2="1230.27" gradientUnits="userSpaceOnUse">
<stop stop-color="#2D2D2A"/>
<stop offset="1" stop-color="#2E4943"/>
</linearGradient>
<linearGradient id="paint8_linear_1574_9273" x1="483.923" y1="1005.81" x2="458.132" y2="1340.34" gradientUnits="userSpaceOnUse">
<stop stop-color="#2D2D2A"/>
<stop offset="1" stop-color="#2E4943"/>
</linearGradient>
<linearGradient id="paint9_linear_1574_9273" x1="131.356" y1="808.647" x2="-85.3704" y2="1221.2" gradientUnits="userSpaceOnUse">
<stop stop-color="#2D2D2A"/>
<stop offset="1" stop-color="#2E4943"/>
</linearGradient>
<linearGradient id="paint10_linear_1574_9273" x1="50.3506" y1="74.8004" x2="91.9043" y2="94.1966" gradientUnits="userSpaceOnUse">
<stop offset="0.583144" stop-color="#47CFB0"/>
<stop offset="1" stop-color="#42C6A8"/>
</linearGradient>
<linearGradient id="paint11_linear_1574_9273" x1="65.289" y1="61.4158" x2="59.0728" y2="61.4158" gradientUnits="userSpaceOnUse">
<stop stop-color="#FFD233"/>
<stop offset="1" stop-color="#FFB800"/>
</linearGradient>
<linearGradient id="paint12_linear_1574_9273" x1="56.8268" y1="56.7668" x2="54.0586" y2="59.4785" gradientUnits="userSpaceOnUse">
<stop stop-color="#FF84AA"/>
<stop offset="1" stop-color="#FC4873"/>
</linearGradient>
<clipPath id="clip0_1574_9273">
<rect width="1920" height="1080" fill="white"/>
</clipPath>
</defs>
</svg>
