<svg width="388" height="90" viewBox="0 0 388 90" fill="none" xmlns="http://www.w3.org/2000/svg">
<g filter="url(#filter0_d_1574_11248)">
<rect x="15.0298" y="10.6748" width="358" height="60" rx="6" fill="#FAE64C"/>
<path fill-rule="evenodd" clip-rule="evenodd" d="M45.6636 46.9678C51.1864 46.9678 55.6636 43.27 55.6636 38.7085C55.6636 34.147 51.1864 30.4492 45.6636 30.4492C40.1407 30.4492 35.6636 34.147 35.6636 38.7085C35.6636 41.5972 37.4591 44.1395 40.1786 45.6157L39.1941 50.9003L43.4671 46.7679C44.1739 46.8988 44.909 46.9678 45.6636 46.9678Z" fill="#181602"/>
<path d="M158.918 33.5934C158.918 35.1507 158.736 36.5587 158.374 37.8174C158.011 39.0654 157.36 40.2334 156.422 41.3214C155.483 42.3987 154.182 43.3587 152.518 44.2014L151.606 42.8894C152.811 42.2814 153.798 41.6201 154.566 40.9054C155.334 40.1801 155.926 39.3801 156.342 38.5054L151.942 38.9374L151.718 37.4494L156.854 37.1294C157.035 36.5107 157.158 35.7907 157.222 34.9694H152.438V33.5934H158.918ZM160.902 32.1694H162.63V37.7534H164.742V39.1774H162.63V46.3934H160.902V32.1694ZM172.502 33.5934C172.502 35.1507 172.321 36.5587 171.958 37.8174C171.595 39.0654 170.945 40.2334 170.006 41.3214C169.067 42.3987 167.766 43.3587 166.102 44.2014L165.19 42.8894C166.395 42.2814 167.382 41.6201 168.15 40.9054C168.918 40.1801 169.51 39.3801 169.926 38.5054L165.526 38.9374L165.302 37.4494L170.438 37.1294C170.619 36.5107 170.742 35.7907 170.806 34.9694H166.022V33.5934H172.502ZM174.486 32.1694H176.214V37.7534H178.326V39.1774H176.214V46.3934H174.486V32.1694ZM185.175 32.9854C186.177 32.9854 187.073 33.1454 187.863 33.4654C188.663 33.7854 189.287 34.2387 189.735 34.8254C190.193 35.4014 190.423 36.0681 190.423 36.8254C190.423 37.5187 190.236 38.1374 189.863 38.6814C189.489 39.2147 188.972 39.6521 188.311 39.9934C187.649 40.3241 186.887 40.5321 186.023 40.6174V43.2734H191.623V44.6654H178.743V43.2734H184.311V40.6174C183.447 40.5321 182.684 40.3241 182.023 39.9934C181.361 39.6521 180.844 39.2147 180.471 38.6814C180.108 38.1374 179.927 37.5187 179.927 36.8254C179.927 36.0681 180.151 35.4014 180.599 34.8254C181.057 34.2387 181.681 33.7854 182.471 33.4654C183.271 33.1454 184.172 32.9854 185.175 32.9854ZM181.607 36.8254C181.607 37.3267 181.756 37.7641 182.055 38.1374C182.364 38.5107 182.785 38.7987 183.319 39.0014C183.863 39.2041 184.481 39.3054 185.175 39.3054C185.868 39.3054 186.481 39.2041 187.015 39.0014C187.559 38.7987 187.98 38.5107 188.279 38.1374C188.588 37.7641 188.743 37.3267 188.743 36.8254C188.743 36.3241 188.588 35.8867 188.279 35.5134C187.98 35.1401 187.559 34.8521 187.015 34.6494C186.481 34.4467 185.868 34.3454 185.175 34.3454C184.481 34.3454 183.863 34.4467 183.319 34.6494C182.785 34.8521 182.364 35.1401 182.055 35.5134C181.756 35.8867 181.607 36.3241 181.607 36.8254ZM201.182 43.3534V40.9854H197.15V36.3454H205.294V34.5214H197.134V33.1454H206.99V37.7054H198.862V39.6094H207.31V40.9854H202.894V43.3534H208.494V44.7454H195.614V43.3534H201.182ZM220.431 33.5614V35.1454C220.431 36.4254 220.399 37.5614 220.335 38.5534C220.281 39.5454 220.137 40.7027 219.903 42.0254L218.175 41.8654C218.42 40.6281 218.569 39.5187 218.623 38.5374C218.687 37.5454 218.719 36.4147 218.719 35.1454V34.9374H210.559V33.5614H220.431ZM209.199 43.0494H222.063V44.4574H209.199V43.0494ZM234.527 32.2014V42.4734H232.799V32.2014H234.527ZM223.039 36.6974C223.039 36.0147 223.204 35.4014 223.535 34.8574C223.866 34.3134 224.319 33.8921 224.895 33.5934C225.482 33.2841 226.127 33.1294 226.831 33.1294C227.546 33.1294 228.191 33.2841 228.767 33.5934C229.343 33.8921 229.796 34.3134 230.127 34.8574C230.458 35.4014 230.623 36.0147 230.623 36.6974C230.623 37.3694 230.458 37.9774 230.127 38.5214C229.796 39.0654 229.343 39.4921 228.767 39.8014C228.191 40.1001 227.546 40.2494 226.831 40.2494C226.127 40.2494 225.482 40.1001 224.895 39.8014C224.319 39.4921 223.866 39.0654 223.535 38.5214C223.204 37.9774 223.039 37.3694 223.039 36.6974ZM224.719 36.6974C224.719 37.3161 224.916 37.8121 225.311 38.1854C225.716 38.5587 226.223 38.7454 226.831 38.7454C227.439 38.7454 227.946 38.5587 228.351 38.1854C228.756 37.8014 228.959 37.3054 228.959 36.6974C228.959 36.0681 228.756 35.5667 228.351 35.1934C227.946 34.8094 227.439 34.6174 226.831 34.6174C226.223 34.6174 225.716 34.8094 225.311 35.1934C224.916 35.5667 224.719 36.0681 224.719 36.6974ZM225.215 41.4494H226.927V44.7454H234.927V46.1374H225.215V41.4494Z" fill="black"/>
</g>
<defs>
<filter id="filter0_d_1574_11248" x="0.468052" y="0.699444" width="387.123" height="89.1235" filterUnits="userSpaceOnUse" color-interpolation-filters="sRGB">
<feFlood flood-opacity="0" result="BackgroundImageFix"/>
<feColorMatrix in="SourceAlpha" type="matrix" values="0 0 0 0 0 0 0 0 0 0 0 0 0 0 0 0 0 0 127 0" result="hardAlpha"/>
<feOffset dy="4.58637"/>
<feGaussianBlur stdDeviation="7.28087"/>
<feComposite in2="hardAlpha" operator="out"/>
<feColorMatrix type="matrix" values="0 0 0 0 0.320483 0 0 0 0 0.320483 0 0 0 0 0.320483 0 0 0 0.1 0"/>
<feBlend mode="normal" in2="BackgroundImageFix" result="effect1_dropShadow_1574_11248"/>
<feBlend mode="normal" in="SourceGraphic" in2="effect1_dropShadow_1574_11248" result="shape"/>
</filter>
</defs>
</svg>
