<svg width="299" height="309" viewBox="0 0 299 309" fill="none" xmlns="http://www.w3.org/2000/svg">
<g filter="url(#filter0_d_1742_9559)">
<path d="M163.171 263.337C178.176 263.394 247.036 263.512 266.124 263.584" stroke="#DDDDDD" stroke-width="5" stroke-linecap="round"/>
<path d="M239.182 202.586L278.019 204.427C281.159 204.576 283.612 207.194 283.556 210.337L283.535 211.532C283.312 224.078 272.766 233.958 260.232 233.364V233.364C248.212 232.794 238.823 222.772 239.037 210.741L239.182 202.586Z" fill="#2DAF92"/>
<path d="M190.451 202.315L151.813 197.974C148.689 197.623 145.852 199.819 145.409 202.931L145.24 204.115C143.471 216.537 152.317 227.965 164.786 229.365V229.365C176.745 230.709 187.604 222.303 189.301 210.389L190.451 202.315Z" fill="#2DAF92"/>
<ellipse cx="214.476" cy="203.201" rx="55.9626" ry="61.4244" fill="url(#paint0_linear_1742_9559)"/>
<path d="M261.401 239.895C262.463 237.923 264.648 233.868 265.999 231.361" stroke="#F68E00" stroke-width="10" stroke-linecap="round"/>
<path d="M240.585 259.611C242.168 258.027 245.425 254.77 247.439 252.756" stroke="#F68E00" stroke-width="10" stroke-linecap="round"/>
<path d="M217.205 141.776L220.175 130.692" stroke="#47CFB0" stroke-width="10.1184" stroke-linecap="round"/>
<path d="M218.537 141.471L229.272 137.416" stroke="#47CFB0" stroke-width="10.1184" stroke-linecap="round"/>
<path fill-rule="evenodd" clip-rule="evenodd" d="M263.505 200.394C262.909 202.263 261.089 203.399 259.127 203.399H169.042C167.08 203.399 165.26 202.263 164.664 200.394C163.822 197.752 163.368 194.936 163.368 192.015C163.368 176.789 175.711 164.445 190.938 164.445C197.87 164.445 204.205 167.004 209.049 171.228C211.779 173.608 216.39 173.608 219.12 171.228C223.964 167.004 230.299 164.445 237.231 164.445C252.458 164.445 264.801 176.789 264.801 192.015C264.801 194.936 264.347 197.752 263.505 200.394Z" fill="white" fill-opacity="0.2"/>
<circle cx="19.5324" cy="19.5324" r="19.5324" transform="matrix(-1 0 0 1 209.948 175.129)" fill="white"/>
<path d="M175.255 194.304C175.255 202.696 182.058 209.5 190.451 209.5C198.843 209.5 205.646 202.696 205.646 194.304C205.646 185.912 198.843 179.108 190.451 179.108C182.058 179.108 175.255 185.912 175.255 194.304Z" fill="white"/>
<path fill-rule="evenodd" clip-rule="evenodd" d="M190.379 209.5C181.987 209.5 175.184 202.696 175.184 194.304C175.184 194.258 175.184 194.212 175.184 194.166C176.441 195.489 178.216 196.313 180.184 196.313C183.992 196.313 187.079 193.226 187.079 189.418C187.079 185.801 184.295 182.835 180.754 182.545C183.375 180.397 186.727 179.108 190.379 179.108C198.772 179.108 205.575 185.912 205.575 194.304C205.575 202.696 198.772 209.5 190.379 209.5Z" fill="#333331"/>
<circle cx="3.61422" cy="3.61422" r="3.61422" transform="matrix(-1 0 0 1 200.381 194.661)" fill="white"/>
<mask id="mask0_1742_9559" style="mask-type:alpha" maskUnits="userSpaceOnUse" x="170" y="175" width="40" height="40">
<circle cx="190.38" cy="194.662" r="19.5324" fill="white"/>
</mask>
<g mask="url(#mask0_1742_9559)">
<path opacity="0.8" d="M191.785 200.781C182.463 194.495 172.727 197.259 169.023 199.426L170.415 218.532L210.982 216.163L209.884 198.789C208.091 202.087 201.106 207.068 191.785 200.781Z" fill="#9BFFE8"/>
</g>
<path d="M223.503 166.564C223.629 168.11 224.555 171.212 227.248 171.254" stroke="#A5E5D6" stroke-width="3.71086" stroke-linecap="round"/>
<path d="M206.321 166.564C206.195 168.11 205.269 171.212 202.577 171.254" stroke="#A5E5D6" stroke-width="3.71086" stroke-linecap="round"/>
<circle cx="19.5324" cy="19.5324" r="19.5324" transform="matrix(-1 0 0 1 258.448 175.129)" fill="white"/>
<path d="M223.755 194.304C223.755 202.696 230.558 209.5 238.951 209.5C247.343 209.5 254.146 202.696 254.146 194.304C254.146 185.912 247.343 179.108 238.951 179.108C230.558 179.108 223.755 185.912 223.755 194.304Z" fill="white"/>
<path fill-rule="evenodd" clip-rule="evenodd" d="M238.879 209.5C230.487 209.5 223.683 202.696 223.683 194.304C223.683 194.258 223.684 194.213 223.684 194.167C224.94 195.489 226.715 196.313 228.683 196.313C232.491 196.313 235.578 193.226 235.578 189.418C235.578 185.801 232.795 182.835 229.253 182.545C231.874 180.397 235.226 179.108 238.879 179.108C247.271 179.108 254.075 185.912 254.075 194.304C254.075 202.696 247.271 209.5 238.879 209.5Z" fill="#333331"/>
<circle cx="3.61422" cy="3.61422" r="3.61422" transform="matrix(-1 0 0 1 248.881 194.661)" fill="white"/>
<mask id="mask1_1742_9559" style="mask-type:alpha" maskUnits="userSpaceOnUse" x="219" y="175" width="40" height="40">
<circle cx="19.5324" cy="19.5324" r="19.5324" transform="matrix(-1 0 0 1 258.412 175.129)" fill="white"/>
</mask>
<g mask="url(#mask1_1742_9559)">
<path opacity="0.8" d="M237.474 200.781C246.795 194.495 256.532 197.259 260.235 199.426L258.844 218.532L218.277 216.163L219.375 198.789C221.167 202.086 228.153 207.068 237.474 200.781Z" fill="#9BFFE8"/>
</g>
<path d="M224.25 212.134C224.887 211.923 225.375 211.376 225.375 210.706V210.706C225.375 205.778 219.808 199.368 212.941 199.368C206.074 199.368 200.507 205.778 200.507 210.706V210.706C200.507 211.376 200.996 211.923 201.632 212.134L208.549 214.432C211.4 215.379 214.482 215.379 217.334 214.432L224.25 212.134Z" fill="#FDC300"/>
<path d="M212.942 203.529C211.416 203.25 208.653 203.529 207.443 205.931" stroke="white" stroke-opacity="0.4" stroke-width="3.71086" stroke-linecap="round"/>
<path d="M206.975 213.566C210.085 211.87 214.994 211.933 218.909 213.566" stroke="#F68E00" stroke-width="7.42171" stroke-linecap="round"/>
<path d="M213.459 227.824V233.466" stroke="#32C1A1" stroke-width="4.97446" stroke-linecap="round"/>
<path d="M214.053 228.139L218.635 231.43" stroke="#32C1A1" stroke-width="4.97446" stroke-linecap="round"/>
<path d="M212.865 228.139L208.283 231.43" stroke="#32C1A1" stroke-width="4.97446" stroke-linecap="round"/>
</g>
<path fill-rule="evenodd" clip-rule="evenodd" d="M127.487 115.505C57.3916 115.505 0.56778 89.6582 0.56778 57.7752C0.56778 25.8922 57.3916 0.0458984 127.487 0.0458984C197.583 0.0458984 254.407 25.8922 254.407 57.7752C254.407 78.8256 229.636 97.2445 192.63 107.331L195.77 124.181C196.681 129.071 191.134 132.57 187.715 129.263L170.048 112.179C156.744 114.332 142.417 115.505 127.487 115.505Z" fill="#47CFB0"/>
<defs>
<filter id="filter0_d_1742_9559" x="130.453" y="115.656" width="167.665" height="169.576" filterUnits="userSpaceOnUse" color-interpolation-filters="sRGB">
<feFlood flood-opacity="0" result="BackgroundImageFix"/>
<feColorMatrix in="SourceAlpha" type="matrix" values="0 0 0 0 0 0 0 0 0 0 0 0 0 0 0 0 0 0 127 0" result="hardAlpha"/>
<feOffset dy="4.58637"/>
<feGaussianBlur stdDeviation="7.28087"/>
<feComposite in2="hardAlpha" operator="out"/>
<feColorMatrix type="matrix" values="0 0 0 0 0.320483 0 0 0 0 0.320483 0 0 0 0 0.320483 0 0 0 0.1 0"/>
<feBlend mode="normal" in2="BackgroundImageFix" result="effect1_dropShadow_1742_9559"/>
<feBlend mode="normal" in="SourceGraphic" in2="effect1_dropShadow_1742_9559" result="shape"/>
</filter>
<linearGradient id="paint0_linear_1742_9559" x1="214.476" y1="141.776" x2="214.476" y2="264.625" gradientUnits="userSpaceOnUse">
<stop stop-color="#47CFB0"/>
<stop offset="1" stop-color="#44CCAD"/>
</linearGradient>
</defs>
</svg>
