<svg width="179" height="179" viewBox="0 0 179 179" fill="none" xmlns="http://www.w3.org/2000/svg">
<path d="M125.104 78.4211L160.553 62.4482C163.419 61.1568 166.792 62.3777 168.167 65.2042L168.691 66.2793C174.182 77.5617 169.263 91.1504 157.824 96.3051C146.852 101.249 133.939 96.5749 128.673 85.7548L125.104 78.4211Z" fill="#2DAF92"/>
<path d="M3.09065 84.0002C1.60428 80.946 2.93561 77.2676 6.03239 75.8722L35.8241 62.4482C38.69 61.1568 42.0634 62.3777 43.439 65.2042L43.9622 66.2793C49.453 77.5617 44.5349 91.1504 33.0951 96.3051C22.1239 101.249 9.21042 96.5749 3.94457 85.7548L3.09065 84.0002Z" fill="#2DAF92"/>
<ellipse cx="87.7268" cy="78.2662" rx="55.9626" ry="61.4244" fill="url(#paint0_linear_1574_11425)"/>
<path d="M107.456 142.593C109.695 142.593 114.301 142.593 117.149 142.593" stroke="#F68E00" stroke-width="10" stroke-linecap="round"/>
<path d="M56.7437 142.593C58.9828 142.593 63.5887 142.593 66.4371 142.593" stroke="#F68E00" stroke-width="10" stroke-linecap="round"/>
<path d="M54.8564 150.143C69.8613 150.2 100.726 150.317 119.813 150.389" stroke="#DDDDDD" stroke-width="5" stroke-linecap="round"/>
<path d="M86.7095 102.89V108.532" stroke="#32C1A1" stroke-width="4.97446" stroke-linecap="round"/>
<path d="M87.3032 103.204L91.8851 106.496" stroke="#32C1A1" stroke-width="4.97446" stroke-linecap="round"/>
<path d="M86.1157 103.204L81.5338 106.496" stroke="#32C1A1" stroke-width="4.97446" stroke-linecap="round"/>
<path d="M90.4551 16.8418L93.4252 5.75723" stroke="#47CFB0" stroke-width="10.1184" stroke-linecap="round"/>
<path d="M91.7871 16.5371L102.522 12.482" stroke="#47CFB0" stroke-width="10.1184" stroke-linecap="round"/>
<path fill-rule="evenodd" clip-rule="evenodd" d="M136.755 75.4599C136.16 77.3289 134.339 78.4646 132.378 78.4646H42.2921C40.3305 78.4646 38.5101 77.3289 37.9146 75.4599C37.0726 72.8175 36.6182 70.0022 36.6182 67.0807C36.6182 51.8542 48.9616 39.5107 64.1881 39.5107C71.1203 39.5107 77.455 42.0692 82.2993 46.2935C85.0292 48.6739 89.6405 48.6739 92.3704 46.2935C97.2147 42.0692 103.549 39.5107 110.482 39.5107C125.708 39.5107 138.052 51.8542 138.052 67.0807C138.052 70.0022 137.597 72.8175 136.755 75.4599Z" fill="white" fill-opacity="0.2"/>
<circle cx="19.6376" cy="19.6376" r="19.6376" transform="matrix(-1 0 0 1 82.7515 46.217)" fill="white"/>
<path d="M47.8717 65.8547C47.8717 74.2922 54.7117 81.1322 63.1492 81.1322C71.5868 81.1322 78.4268 74.2922 78.4268 65.8547C78.4268 57.4171 71.5868 50.5771 63.1492 50.5771C54.7117 50.5771 47.8717 57.4171 47.8717 65.8547Z" fill="white"/>
<path fill-rule="evenodd" clip-rule="evenodd" d="M63.0779 81.1322C54.6404 81.1322 47.8004 74.2922 47.8004 65.8547C47.8004 65.809 47.8006 65.7634 47.801 65.7178C49.0641 67.0465 50.8486 67.8748 52.8265 67.8748C56.6554 67.8748 59.7593 64.7709 59.7593 60.942C59.7593 57.3063 56.9608 54.3243 53.4003 54.0326C56.0353 51.8731 59.4053 50.5771 63.0779 50.5771C71.5155 50.5771 78.3555 57.4171 78.3555 65.8547C78.3555 74.2922 71.5155 81.1322 63.0779 81.1322Z" fill="#333331"/>
<circle cx="67.4312" cy="64.4492" r="3.63381" fill="white"/>
<circle cx="19.6376" cy="19.6376" r="19.6376" transform="matrix(-1 0 0 1 131.976 46.217)" fill="white"/>
<path d="M97.0963 65.8547C97.0963 74.2922 103.936 81.1322 112.374 81.1322C120.811 81.1322 127.651 74.2922 127.651 65.8547C127.651 57.4171 120.811 50.5771 112.374 50.5771C103.936 50.5771 97.0963 57.4171 97.0963 65.8547Z" fill="white"/>
<path fill-rule="evenodd" clip-rule="evenodd" d="M112.302 81.1322C103.864 81.1322 97.0245 74.2922 97.0245 65.8547C97.0245 65.809 97.0247 65.7634 97.0251 65.7178C98.2882 67.0465 100.073 67.8749 102.051 67.8749C105.88 67.8749 108.984 64.771 108.984 60.9421C108.984 57.3064 106.185 54.3243 102.624 54.0327C105.259 51.8731 108.629 50.5771 112.302 50.5771C120.74 50.5771 127.58 57.4171 127.58 65.8547C127.58 74.2922 120.74 81.1322 112.302 81.1322Z" fill="#333331"/>
<circle cx="118.067" cy="64.4492" r="3.63381" fill="white"/>
<circle cx="113.823" cy="86.4391" r="17.3439" fill="#47CFB0"/>
<path d="M111.753 74.8286C110.219 74.5487 107.441 74.8286 106.225 77.2444" stroke="white" stroke-opacity="0.3" stroke-width="3.73084" stroke-linecap="round"/>
<circle cx="61.5905" cy="86.4391" r="17.3439" fill="#47CFB0"/>
<path d="M59.521 74.8284C57.9868 74.5485 55.2087 74.8284 53.9921 77.2441" stroke="white" stroke-opacity="0.3" stroke-width="3.73084" stroke-linecap="round"/>
<path d="M92.8828 85.4927C89.3816 89.5356 85.1885 89.5358 80.8835 85.4927" stroke="#F68E00" stroke-width="7.46195" stroke-linecap="round"/>
<path d="M98.5634 83.5428C99.1843 83.2503 99.6459 82.6718 99.6459 81.9855C99.6459 77.0306 94.0488 73.0139 87.1445 73.0139C80.2401 73.0139 74.6431 77.0306 74.6431 81.9855C74.6431 82.6718 75.1047 83.2503 75.7255 83.5428L81.2613 86.1509C84.987 87.9062 89.3019 87.9062 93.0277 86.1509L98.5634 83.5428Z" fill="#FDC300"/>
<path d="M86.437 76.6897C84.0391 76.5478 83.3232 76.5935 81.6352 78.121" stroke="white" stroke-opacity="0.4" stroke-width="3.73097" stroke-linecap="round"/>
<circle cx="87.7261" cy="76.7407" r="55.9619" fill="#47CFB0"/>
<path fill-rule="evenodd" clip-rule="evenodd" d="M111.268 96.7735C126.756 96.7735 139.311 84.2186 139.311 68.7313C139.311 53.2439 126.756 40.689 111.268 40.689C105.532 40.689 100.199 42.4111 95.756 45.3666C91.256 48.3603 84.1952 48.3603 79.6952 45.3667C75.2526 42.4112 69.9189 40.6891 64.1829 40.6891C48.6956 40.6891 36.1406 53.244 36.1406 68.7314C36.1406 84.2187 48.6956 96.7736 64.1829 96.7736C69.9189 96.7736 75.2526 95.0515 79.6953 92.096C84.1953 89.1023 91.2561 89.1023 95.7561 92.0959C100.199 95.0514 105.532 96.7735 111.268 96.7735Z" fill="white" fill-opacity="0.2"/>
<circle cx="19.6379" cy="19.6379" r="19.6379" transform="matrix(-1 0 0 1 81.6123 49.093)" fill="white"/>
<path d="M46.7326 68.7309C46.7326 77.1685 53.5727 84.0086 62.0104 84.0086C70.448 84.0086 77.2881 77.1685 77.2881 68.7309C77.2881 60.2932 70.448 53.4531 62.0104 53.4531C53.5727 53.4531 46.7326 60.2932 46.7326 68.7309Z" fill="white"/>
<path fill-rule="evenodd" clip-rule="evenodd" d="M61.9386 84.0086C53.5009 84.0086 46.6609 77.1685 46.6609 68.7309C46.6609 68.6847 46.6611 68.6385 46.6615 68.5924C47.9246 69.9217 49.7095 70.7505 51.688 70.7505C55.5168 70.7505 58.6206 67.6467 58.6206 63.8179C58.6206 60.182 55.8217 57.1999 52.261 56.9086C54.8959 54.7491 58.2659 53.4531 61.9386 53.4531C70.3762 53.4531 77.2163 60.2932 77.2163 68.7309C77.2163 77.1685 70.3762 84.0086 61.9386 84.0086Z" fill="#333331"/>
<circle cx="66.2919" cy="67.3254" r="3.63373" fill="white"/>
<circle cx="19.6379" cy="19.6379" r="19.6379" transform="matrix(-1 0 0 1 130.835 49.093)" fill="white"/>
<path d="M95.9553 68.7309C95.9553 77.1685 102.795 84.0086 111.233 84.0086C119.671 84.0086 126.511 77.1685 126.511 68.7309C126.511 60.2932 119.671 53.4531 111.233 53.4531C102.795 53.4531 95.9553 60.2932 95.9553 68.7309Z" fill="white"/>
<path fill-rule="evenodd" clip-rule="evenodd" d="M111.162 84.0086C102.725 84.0086 95.8845 77.1685 95.8845 68.7309C95.8845 68.6846 95.8847 68.6384 95.8851 68.5923C97.1482 69.9217 98.9332 70.7506 100.912 70.7506C104.741 70.7506 107.844 67.6467 107.844 63.8179C107.844 60.182 105.045 57.1998 101.485 56.9086C104.12 54.7491 107.49 53.4531 111.162 53.4531C119.6 53.4531 126.44 60.2932 126.44 68.7309C126.44 77.1685 119.6 84.0086 111.162 84.0086Z" fill="#333331"/>
<circle cx="116.927" cy="67.3246" r="3.63373" fill="white"/>
<path d="M85.7944 105.765V111.406" stroke="#32C1A1" stroke-width="4.97435" stroke-linecap="round"/>
<path d="M86.3882 106.079L90.97 109.371" stroke="#32C1A1" stroke-width="4.97435" stroke-linecap="round"/>
<path d="M85.2007 106.079L80.6189 109.371" stroke="#32C1A1" stroke-width="4.97435" stroke-linecap="round"/>
<path d="M77.8419 102.148L73.6475 85.3005H98.3202L93.9921 102.148H77.8419Z" fill="#CD7900"/>
<path d="M94.4004 102.038L97.2341 84.8979" stroke="#F68E00" stroke-width="2.48717"/>
<path d="M77.5312 102.038L74.6975 84.8979" stroke="#F68E00" stroke-width="2.48717"/>
<path d="M97.4218 86.4178C98.0426 86.1253 98.5042 85.5468 98.5042 84.8605C98.5042 79.9058 92.9072 75.8892 86.0031 75.8892C79.0989 75.8892 73.502 79.9058 73.502 84.8605C73.502 85.5468 73.9635 86.1253 74.5844 86.4178L80.12 89.0258C83.8457 90.7811 88.1605 90.7811 91.8861 89.0258L97.4218 86.4178Z" fill="#FDC300"/>
<mask id="mask0_1574_11425" style="mask-type:alpha" maskUnits="userSpaceOnUse" x="73" y="85" width="26" height="18">
<path d="M77.758 102.148L73.666 85.3008H98.3388L93.9937 102.148H77.758Z" fill="#CD7900"/>
</mask>
<g mask="url(#mask0_1574_11425)">
<path d="M83.8867 102.628C87.4416 94.7492 91.7159 93.5758 95.8858 102.628H83.8867Z" stroke="#FECAFC" stroke-width="7.46152" stroke-linecap="round"/>
</g>
<path d="M85.2959 79.5647C82.898 79.4228 82.1821 79.4685 80.4942 80.996" stroke="#FFDF74" stroke-width="3.73076" stroke-linecap="round"/>
<path d="M91.9668 101.537C87.2273 105.477 84.6291 105.309 79.9677 101.537" stroke="#F68E00" stroke-width="7.46152" stroke-linecap="round"/>
<defs>
<linearGradient id="paint0_linear_1574_11425" x1="87.7268" y1="16.8418" x2="87.7268" y2="139.691" gradientUnits="userSpaceOnUse">
<stop stop-color="#47CFB0"/>
<stop offset="1" stop-color="#44CCAD"/>
</linearGradient>
</defs>
</svg>
