<svg width="139" height="129" viewBox="0 0 139 129" fill="none" xmlns="http://www.w3.org/2000/svg">
<path d="M51.0825 76.1506L27.1784 77.8769C25.2458 78.0165 23.7743 79.6671 23.8566 81.603L23.8879 82.3393C24.2166 90.0667 30.8658 95.9944 38.58 95.4373C45.9782 94.903 51.6114 88.5842 51.2962 81.1735L51.0825 76.1506Z" fill="#2DAF92"/>
<path d="M89.6455 55.3113L104.188 36.2612C105.364 34.7211 107.551 34.3946 109.125 35.5242L109.724 35.9539C116.008 40.4631 117.323 49.2733 112.63 55.4211C108.129 61.3169 99.7565 62.5667 93.7301 58.2423L89.6455 55.3113Z" fill="#2DAF92"/>
<ellipse cx="34.4955" cy="37.8621" rx="34.4955" ry="37.8621" transform="matrix(-0.87976 0.475419 0.475419 0.87976 83.6533 15.4041)" fill="url(#paint0_linear_1574_11155)"/>
<path d="M106.959 90.917C105.745 91.5732 103.247 92.9229 101.702 93.7576" stroke="#F68E00" stroke-width="6.16402" stroke-linecap="round"/>
<path d="M79.0742 78.1682L80.7275 81.2276" stroke="#32C1A1" stroke-width="3.06626" stroke-linecap="round"/>
<path d="M78.8442 78.5127L77.3241 81.6404" stroke="#32C1A1" stroke-width="3.06626" stroke-linecap="round"/>
<path d="M79.4878 78.1648L82.9371 78.6071" stroke="#32C1A1" stroke-width="3.06626" stroke-linecap="round"/>
<path d="M51.8262 32.6035L46.9672 27.4629" stroke="#47CFB0" stroke-width="6.23698" stroke-linecap="round"/>
<path d="M51.0146 32.8284L44.0047 33.7753" stroke="#47CFB0" stroke-width="6.23698" stroke-linecap="round"/>
<path fill-rule="evenodd" clip-rule="evenodd" d="M97.4969 48.9937C97.7217 50.1818 97.0673 51.3311 96.0035 51.906L47.151 78.3057C46.0872 78.8806 44.7673 78.7982 43.8966 77.9591C42.6657 76.773 41.5943 75.3795 40.7382 73.7953C36.2761 65.5382 39.3526 55.2273 47.6097 50.7652C51.369 48.7336 55.554 48.2647 59.419 49.1359C61.597 49.6268 64.0978 48.2755 64.8805 46.1845C66.2696 42.4742 68.9551 39.2303 72.7143 37.1988C80.9714 32.7368 91.2823 35.8132 95.7444 44.0703C96.6005 45.6544 97.1791 47.3142 97.4969 48.9937Z" fill="white" fill-opacity="0.2"/>
<circle cx="81.0158" cy="51.17" r="12.1047" transform="rotate(-28.3866 81.0158 51.17)" fill="white"/>
<path d="M89.2815 46.7032C91.7541 51.2788 90.0493 56.9924 85.4738 59.4651C80.8982 61.9377 75.1845 60.2329 72.7119 55.6573C70.2393 51.0818 71.9441 45.3681 76.5196 42.8955C81.0952 40.4229 86.8089 42.1277 89.2815 46.7032Z" fill="white"/>
<path fill-rule="evenodd" clip-rule="evenodd" d="M85.5124 59.4446C90.0879 56.9719 91.7927 51.2583 89.3201 46.6827C89.3067 46.658 89.2932 46.6333 89.2797 46.6087C88.9841 47.6994 88.2591 48.6715 87.1865 49.2512C85.1102 50.3732 82.5174 49.5996 81.3953 47.5233C80.3299 45.5517 80.9737 43.1144 82.819 41.9129C80.7572 41.5139 78.5499 41.7987 76.5582 42.875C71.9827 45.3476 70.2779 51.0613 72.7505 55.6368C75.2231 60.2124 80.9368 61.9172 85.5124 59.4446Z" fill="#333331"/>
<circle cx="2.23989" cy="2.23989" r="2.23989" transform="matrix(-0.87976 0.475419 0.475419 0.87976 79.1685 48.6377)" fill="white"/>
<circle cx="54.3224" cy="65.5951" r="12.1047" transform="rotate(-28.3866 54.3224 65.5951)" fill="white"/>
<path d="M62.5881 61.1285C65.0608 65.7041 63.356 71.4177 58.7804 73.8904C54.2049 76.363 48.4912 74.6582 46.0186 70.0826C43.546 65.5071 45.2507 59.7934 49.8263 57.3208C54.4019 54.8482 60.1155 56.5529 62.5881 61.1285Z" fill="white"/>
<path fill-rule="evenodd" clip-rule="evenodd" d="M58.82 73.8691C63.3955 71.3965 65.1003 65.6828 62.6277 61.1073C62.6144 61.0826 62.601 61.0581 62.5875 61.0336C62.2918 62.1241 61.5669 63.096 60.4945 63.6755C58.4182 64.7975 55.8254 64.0239 54.7033 61.9476C53.6379 59.9761 54.2815 57.5391 56.1266 56.3374C54.0648 55.9385 51.8575 56.2233 49.8658 57.2995C45.2903 59.7722 43.5855 65.4858 46.0581 70.0614C48.5307 74.637 54.2444 76.3417 58.82 73.8691Z" fill="#333331"/>
<circle cx="2.23989" cy="2.23989" r="2.23989" transform="matrix(-0.87976 0.475419 0.475419 0.87976 51.7104 63.4761)" fill="white"/>
<circle cx="10.6908" cy="10.6908" r="10.6908" transform="matrix(-0.87976 0.475419 0.475419 0.87976 63.8726 62.7051)" fill="#47CFB0"/>
<path d="M57.2695 70.29C58.0195 69.6887 59.608 69.0263 60.9757 69.9798" stroke="white" stroke-opacity="0.3" stroke-width="2.2997" stroke-linecap="round"/>
<circle cx="10.6908" cy="10.6908" r="10.6908" transform="matrix(-0.87976 0.475419 0.475419 0.87976 92.1978 47.3982)" fill="#47CFB0"/>
<path d="M85.5947 54.9834C86.3447 54.3821 87.9332 53.7197 89.3009 54.6732" stroke="white" stroke-opacity="0.3" stroke-width="2.2997" stroke-linecap="round"/>
<path d="M70.6275 70.5429C73.711 71.7093 75.9849 70.4806 77.1346 67.0265" stroke="#F68E00" stroke-width="4.59956" stroke-linecap="round"/>
<path d="M66.9756 71.1504C66.5532 71.1737 66.1334 70.9953 65.9323 70.6231C64.4803 67.9361 66.3384 64.1177 70.0825 62.0944C73.8266 60.0711 78.0389 60.6091 79.4909 63.296C79.692 63.6682 79.6113 64.1172 79.3603 64.4578L77.1226 67.4943C75.6166 69.5381 73.2767 70.8025 70.7419 70.9425L66.9756 71.1504Z" fill="#FDC300"/>
<path d="M71.5435 63.8806C72.8022 63.1009 73.2038 62.9159 74.5668 63.2496" stroke="white" stroke-opacity="0.4" stroke-width="2.29978" stroke-linecap="round"/>
<defs>
<linearGradient id="paint0_linear_1574_11155" x1="34.4955" y1="0" x2="34.4955" y2="75.7242" gradientUnits="userSpaceOnUse">
<stop stop-color="#47CFB0"/>
<stop offset="1" stop-color="#44CCAD"/>
</linearGradient>
</defs>
</svg>
