<svg width="68" height="57" viewBox="0 0 68 57" fill="none" xmlns="http://www.w3.org/2000/svg">
<path d="M20.1812 29.897L6.94911 23.7954C5.85964 23.2931 4.58324 23.7549 4.06825 24.8378L3.81465 25.371C1.79201 29.6242 3.65674 34.7699 7.93569 36.743C12.0419 38.6364 16.8528 36.8958 18.7938 32.8143L20.1812 29.897Z" fill="#2DAF92"/>
<path d="M66.2041 33.6157C66.7056 32.5611 66.2432 31.2851 65.1822 30.7958L53.8881 25.5879C52.7986 25.0855 51.5222 25.5474 51.0072 26.6303L50.7536 27.1635C48.731 31.4167 50.5957 36.5624 54.8747 38.5355C58.9809 40.4289 63.7917 38.6883 65.7327 34.6068L66.2041 33.6157Z" fill="#2DAF92"/>
<ellipse cx="20.9385" cy="23.5187" rx="20.9385" ry="23.5187" transform="matrix(-1 -8.74228e-08 -8.74228e-08 1 55.376 6.31909)" fill="url(#paint0_linear_1574_12769)"/>
<path d="M46.0303 54.4678C45.1925 54.4678 43.4692 54.4678 42.4035 54.4678" stroke="#F68E00" stroke-width="3.78883" stroke-linecap="round"/>
<path d="M26.3545 54.4678C25.5167 54.4678 23.7934 54.4678 22.7277 54.4678" stroke="#F68E00" stroke-width="3.78883" stroke-linecap="round"/>
<path d="M34.8184 39.2661L34.8184 41.4263" stroke="#32C1A1" stroke-width="1.88474" stroke-linecap="round"/>
<path d="M34.5962 39.3865L32.8819 40.6468" stroke="#32C1A1" stroke-width="1.88474" stroke-linecap="round"/>
<path d="M35.04 39.3865L36.7544 40.6468" stroke="#32C1A1" stroke-width="1.88474" stroke-linecap="round"/>
<path d="M33.416 6.31909L32.3048 2.07494" stroke="#47CFB0" stroke-width="3.83368" stroke-linecap="round"/>
<path d="M32.918 6.20239L28.9014 4.64975" stroke="#47CFB0" stroke-width="3.83368" stroke-linecap="round"/>
<path fill-rule="evenodd" clip-rule="evenodd" d="M53.0759 28.7608C52.8533 29.4761 52.1597 29.9135 51.4105 29.9135L17.758 29.9135C17.0089 29.9135 16.3152 29.4762 16.0927 28.7608C15.7781 27.7498 15.6084 26.6727 15.6084 25.555C15.6084 19.725 20.2267 14.9988 25.9237 14.9988C28.4939 14.9988 30.8446 15.9608 32.6507 17.5521C33.6933 18.4707 35.4753 18.4707 36.518 17.5522C38.324 15.9609 40.6746 14.999 43.2447 14.999C48.9417 14.999 53.5601 19.7252 53.5601 25.5553C53.5601 26.6728 53.3904 27.7498 53.0759 28.7608Z" fill="white" fill-opacity="0.2"/>
<ellipse cx="43.6467" cy="25.0854" rx="7.34743" ry="7.51903" fill="white"/>
<path d="M49.3497 25.0852C49.3497 28.3158 46.7905 30.9348 43.6336 30.9348C40.4767 30.9348 37.9175 28.3158 37.9175 25.0852C37.9175 21.8546 40.4767 19.2356 43.6336 19.2356C46.7905 19.2356 49.3497 21.8546 49.3497 25.0852Z" fill="white"/>
<path fill-rule="evenodd" clip-rule="evenodd" d="M43.6599 30.935C46.8169 30.935 49.3761 28.3161 49.3761 25.0854C49.3761 25.0679 49.376 25.0505 49.3758 25.033C48.9032 25.5419 48.2355 25.8592 47.4953 25.8592C46.0627 25.8592 44.9014 24.6707 44.9014 23.2047C44.9014 21.8125 45.9487 20.6706 47.2811 20.5591C46.2952 19.7321 45.0342 19.2358 43.6599 19.2358C40.503 19.2358 37.9438 21.8548 37.9438 25.0854C37.9438 28.3161 40.503 30.935 43.6599 30.935Z" fill="#333331"/>
<ellipse cx="1.35959" cy="1.39135" rx="1.35959" ry="1.39135" transform="matrix(-1 -8.74228e-08 -8.74228e-08 1 43.3911 23.1558)" fill="white"/>
<ellipse cx="25.2298" cy="25.0857" rx="7.34743" ry="7.51903" fill="white"/>
<path d="M30.9327 25.0857C30.9327 28.3163 28.3735 30.9353 25.2166 30.9353C22.0597 30.9353 19.5005 28.3163 19.5005 25.0857C19.5005 21.855 22.0597 19.2361 25.2166 19.2361C28.3735 19.2361 30.9327 21.855 30.9327 25.0857Z" fill="white"/>
<path fill-rule="evenodd" clip-rule="evenodd" d="M25.2434 30.9353C28.4004 30.9353 30.9595 28.3163 30.9595 25.0857C30.9595 25.0683 30.9595 25.0509 30.9593 25.0335C30.4868 25.5421 29.8192 25.8592 29.0793 25.8592C27.6467 25.8592 26.4854 24.6707 26.4854 23.2047C26.4854 21.8127 27.5323 20.671 28.8644 20.5592C27.8785 19.7323 26.6176 19.2361 25.2434 19.2361C22.0865 19.2361 19.5273 21.855 19.5273 25.0857C19.5273 28.3163 22.0865 30.9353 25.2434 30.9353Z" fill="#333331"/>
<ellipse cx="1.35959" cy="1.39135" rx="1.35959" ry="1.39135" transform="matrix(-1 -8.74228e-08 -8.74228e-08 1 24.4468 23.156)" fill="white"/>
<ellipse cx="6.48922" cy="6.64078" rx="6.48922" ry="6.64078" transform="matrix(-1 -8.74228e-08 -8.74228e-08 1 31.1631 26.3264)" fill="#47CFB0"/>
<path d="M25.4482 28.5212C26.0222 28.4141 27.0617 28.5212 27.5169 29.4462" stroke="white" stroke-opacity="0.3" stroke-width="1.41355" stroke-linecap="round"/>
<ellipse cx="6.48922" cy="6.64078" rx="6.48922" ry="6.64078" transform="matrix(-1 -8.74228e-08 -8.74228e-08 1 50.7056 26.3264)" fill="#47CFB0"/>
<path d="M44.9907 28.5215C45.5647 28.4143 46.6042 28.5215 47.0594 29.4465" stroke="white" stroke-opacity="0.3" stroke-width="1.41355" stroke-linecap="round"/>
<path d="M32.5088 32.6044C33.8188 34.1524 35.3876 34.1525 36.9984 32.6044" stroke="#F68E00" stroke-width="2.82721" stroke-linecap="round"/>
<path d="M30.3902 31.8612C30.1533 31.747 29.9782 31.5244 29.9782 31.2615C29.9782 29.3644 32.0723 27.8264 34.6556 27.8264C37.2389 27.8264 39.333 29.3644 39.333 31.2615C39.333 31.5244 39.1579 31.747 38.921 31.8612L36.8909 32.84C35.4785 33.5209 33.8327 33.5209 32.4203 32.84L30.3902 31.8612Z" fill="#FDC300"/>
<path d="M34.9204 29.2339C35.8176 29.1795 36.0854 29.197 36.717 29.7819" stroke="white" stroke-opacity="0.4" stroke-width="1.4136" stroke-linecap="round"/>
<defs>
<linearGradient id="paint0_linear_1574_12769" x1="20.9385" y1="0" x2="20.9385" y2="47.0374" gradientUnits="userSpaceOnUse">
<stop stop-color="#47CFB0"/>
<stop offset="1" stop-color="#44CCAD"/>
</linearGradient>
</defs>
</svg>
