<svg width="182" height="179" viewBox="0 0 182 179" fill="none" xmlns="http://www.w3.org/2000/svg">
<path d="M151.141 29.5114C151.141 35.0892 155.621 41.0341 161.147 41.0341C166.673 41.0341 171.152 35.0892 171.152 29.5114C171.152 23.9336 164.139 22.6326 161.147 29.5118C157.475 22.478 151.141 23.9336 151.141 29.5114Z" fill="#FF8F8F"/>
<path d="M6.40352 125.018C6.40352 130.596 10.8831 136.541 16.409 136.541C21.9349 136.541 26.4146 130.596 26.4146 125.018C26.4146 119.441 19.4013 118.14 16.409 125.019C12.7372 117.985 6.40352 119.441 6.40352 125.018Z" fill="#FF8F8F"/>
<path d="M144.738 7.78182C144.738 11.052 147.364 14.5374 150.604 14.5374C153.844 14.5374 156.47 11.052 156.47 7.78182C156.47 4.51163 152.358 3.74884 150.604 7.78204C148.451 3.6582 144.738 4.51163 144.738 7.78182Z" fill="#FF8F8F"/>
<path d="M0.00019643 103.289C0.00019643 106.559 2.62654 110.044 5.86631 110.044C9.10607 110.044 11.7324 106.559 11.7324 103.289C11.7324 100.019 7.62064 99.2559 5.86631 103.289C3.71357 99.1653 0.00019643 100.019 0.00019643 103.289Z" fill="#FF8F8F"/>
<path d="M127.683 78.0181L163.132 62.0451C165.998 60.7537 169.371 61.9746 170.747 64.8011L171.27 65.8763C176.761 77.1587 171.843 90.7473 160.403 95.902V95.902C149.432 100.846 136.518 96.1718 131.252 85.3517L127.683 78.0181Z" fill="#2DAF92"/>
<path d="M56.5713 78.0181L21.1227 62.0451C18.2568 60.7537 14.8834 61.9746 13.5078 64.8011L12.9846 65.8763C7.49376 77.1587 12.4118 90.7473 23.8517 95.902V95.902C34.8228 100.846 47.7364 96.1718 53.0022 85.3517L56.5713 78.0181Z" fill="#2DAF92"/>
<ellipse cx="90.3059" cy="77.8631" rx="55.9626" ry="61.4244" fill="url(#paint0_linear_1742_9502)"/>
<path d="M110.035 142.19C112.274 142.19 116.88 142.19 119.728 142.19" stroke="#F68E00" stroke-width="10" stroke-linecap="round"/>
<path d="M59.3228 142.19C61.5619 142.19 66.1678 142.19 69.0162 142.19" stroke="#F68E00" stroke-width="10" stroke-linecap="round"/>
<path d="M57.4355 149.74C72.4404 149.797 103.305 149.914 122.393 149.986" stroke="#DDDDDD" stroke-width="5" stroke-linecap="round"/>
<path d="M89.2886 102.487V108.129" stroke="#32C1A1" stroke-width="4.97446" stroke-linecap="round"/>
<path d="M89.8823 102.801L94.4642 106.093" stroke="#32C1A1" stroke-width="4.97446" stroke-linecap="round"/>
<path d="M88.6948 102.801L84.1129 106.093" stroke="#32C1A1" stroke-width="4.97446" stroke-linecap="round"/>
<path d="M93.0342 16.4387L96.0043 5.35416" stroke="#47CFB0" stroke-width="10.1184" stroke-linecap="round"/>
<path d="M94.3662 16.134L105.101 12.079" stroke="#47CFB0" stroke-width="10.1184" stroke-linecap="round"/>
<path fill-rule="evenodd" clip-rule="evenodd" d="M139.334 75.0568C138.739 76.9258 136.918 78.0615 134.957 78.0615H44.8712C42.9096 78.0615 41.0892 76.9258 40.4937 75.0568C39.6517 72.4144 39.1973 69.5991 39.1973 66.6776C39.1973 51.4512 51.5408 39.1077 66.7672 39.1077C73.6994 39.1077 80.0341 41.6662 84.8784 45.8904C87.6083 48.2708 92.2196 48.2708 94.9495 45.8904C99.7938 41.6662 106.128 39.1077 113.061 39.1077C128.287 39.1077 140.631 51.4512 140.631 66.6776C140.631 69.5991 140.176 72.4144 139.334 75.0568Z" fill="white" fill-opacity="0.2"/>
<circle cx="19.6376" cy="19.6376" r="19.6376" transform="matrix(-1 0 0 1 85.3306 45.814)" fill="white"/>
<path d="M50.4508 65.4516C50.4508 73.8892 57.2908 80.7292 65.7283 80.7292C74.1659 80.7292 81.0059 73.8892 81.0059 65.4516C81.0059 57.0141 74.1659 50.1741 65.7283 50.1741C57.2908 50.1741 50.4508 57.0141 50.4508 65.4516Z" fill="white"/>
<path fill-rule="evenodd" clip-rule="evenodd" d="M65.657 80.7292C57.2195 80.7292 50.3795 73.8892 50.3795 65.4516C50.3795 65.4059 50.3797 65.3603 50.3801 65.3147C51.6432 66.6434 53.4277 67.4717 55.4056 67.4717C59.2345 67.4717 62.3384 64.3678 62.3384 60.5389C62.3384 56.9033 59.5399 53.9212 55.9794 53.6295C58.6144 51.47 61.9844 50.1741 65.657 50.1741C74.0946 50.1741 80.9346 57.0141 80.9346 65.4516C80.9346 73.8892 74.0946 80.7292 65.657 80.7292Z" fill="#333331"/>
<circle cx="70.0103" cy="64.0462" r="3.63381" fill="white"/>
<circle cx="19.6376" cy="19.6376" r="19.6376" transform="matrix(-1 0 0 1 134.555 45.814)" fill="white"/>
<path d="M99.6754 65.4516C99.6754 73.8892 106.515 80.7292 114.953 80.7292C123.39 80.7292 130.23 73.8892 130.23 65.4516C130.23 57.0141 123.39 50.1741 114.953 50.1741C106.515 50.1741 99.6754 57.0141 99.6754 65.4516Z" fill="white"/>
<path fill-rule="evenodd" clip-rule="evenodd" d="M114.881 80.7292C106.444 80.7292 99.6036 73.8892 99.6036 65.4516C99.6036 65.4059 99.6038 65.3603 99.6042 65.3147C100.867 66.6435 102.652 67.4718 104.63 67.4718C108.459 67.4718 111.563 64.3679 111.563 60.539C111.563 56.9033 108.764 53.9213 105.203 53.6296C107.838 51.47 111.208 50.1741 114.881 50.1741C123.319 50.1741 130.159 57.0141 130.159 65.4516C130.159 73.8892 123.319 80.7292 114.881 80.7292Z" fill="#333331"/>
<circle cx="120.646" cy="64.0462" r="3.63381" fill="white"/>
<circle cx="116.402" cy="86.036" r="17.3439" fill="#47CFB0"/>
<path d="M114.333 74.4255C112.798 74.1457 110.02 74.4255 108.804 76.8413" stroke="white" stroke-opacity="0.3" stroke-width="3.73084" stroke-linecap="round"/>
<circle cx="64.1696" cy="86.036" r="17.3439" fill="#47CFB0"/>
<path d="M62.1001 74.4253C60.5659 74.1454 57.7878 74.4253 56.5712 76.8411" stroke="white" stroke-opacity="0.3" stroke-width="3.73084" stroke-linecap="round"/>
<path d="M95.4619 85.0891C91.9607 89.1321 87.7676 89.1323 83.4626 85.0891" stroke="#F68E00" stroke-width="7.46195" stroke-linecap="round"/>
<path d="M101.143 83.1397C101.763 82.8472 102.225 82.2687 102.225 81.5824V81.5824C102.225 76.6275 96.6279 72.6108 89.7236 72.6108C82.8192 72.6108 77.2222 76.6275 77.2222 81.5824V81.5824C77.2222 82.2687 77.6838 82.8472 78.3046 83.1397L83.8404 85.7478C87.5661 87.5031 91.881 87.5031 95.6068 85.7478L101.143 83.1397Z" fill="#FDC300"/>
<path d="M89.0161 76.2866C86.6182 76.1447 85.9023 76.1904 84.2143 77.7179" stroke="white" stroke-opacity="0.4" stroke-width="3.73097" stroke-linecap="round"/>
<defs>
<linearGradient id="paint0_linear_1742_9502" x1="90.3059" y1="16.4387" x2="90.3059" y2="139.287" gradientUnits="userSpaceOnUse">
<stop stop-color="#47CFB0"/>
<stop offset="1" stop-color="#44CCAD"/>
</linearGradient>
</defs>
</svg>
