<svg width="81" height="80" viewBox="0 0 81 80" fill="none" xmlns="http://www.w3.org/2000/svg">
<circle cx="40.2383" cy="40" r="40" fill="#FC4873"/>
<path fill-rule="evenodd" clip-rule="evenodd" d="M45.3161 50.5148C42.4945 48.4699 37.9808 48.4699 35.159 50.5148C31.8579 52.9071 27.7987 54.3176 23.41 54.3176C12.3404 54.3176 3.3667 45.3439 3.3667 34.2743C3.3667 23.2047 12.3404 14.231 23.41 14.231C27.7987 14.231 31.858 15.6415 35.1592 18.0339C37.9809 20.0788 42.4945 20.0788 45.3163 18.0339C48.6174 15.6415 52.6766 14.2311 57.0653 14.2311C68.1349 14.2311 77.1086 23.2048 77.1086 34.2744C77.1086 45.344 68.1349 54.3177 57.0653 54.3177C52.6766 54.3177 48.6173 52.9072 45.3161 50.5148Z" fill="white" fill-opacity="0.2"/>
<path d="M62.2437 25.8279L48.3697 31.3789L47.853 32.8662L54.5563 40.2522L63.37 39.9419L67.3423 32.4938L62.2437 25.8279Z" fill="#333331"/>
<path fill-rule="evenodd" clip-rule="evenodd" d="M45.1281 32.6643C44.9973 33.4341 44.9292 34.2252 44.9292 35.0323C44.9292 42.7843 51.2134 49.0685 58.9654 49.0685C66.7174 49.0685 73.0017 42.7843 73.0017 35.0323C73.0017 30.4284 70.7852 26.3423 67.3611 23.7827L62.1917 25.8478C62.6335 26.7997 62.8801 27.8606 62.8801 28.9791C62.8801 33.0916 59.5462 36.4255 55.4337 36.4255C52.1561 36.4255 49.373 34.3077 48.3782 31.3659L45.1281 32.6643Z" fill="white"/>
<path d="M45.8977 22.0781C44.8576 23.3819 44.3388 24.1115 43.2071 25.4483" stroke="#FC4873" stroke-width="2.40532" stroke-linecap="round"/>
<path d="M33.2139 22.0781C34.2539 23.3819 34.7728 24.1115 35.9044 25.4483" stroke="#FC4873" stroke-width="2.40532" stroke-linecap="round"/>
<path d="M45.2193 32.6203L67.3596 23.8093" stroke="#FC4873" stroke-width="2.40532" stroke-linecap="round"/>
<path d="M18.4204 25.8279L32.2943 31.3789L32.811 32.8662L26.1077 40.2522L17.2941 39.9419L13.3218 32.4938L18.4204 25.8279Z" fill="#333331"/>
<path fill-rule="evenodd" clip-rule="evenodd" d="M35.5357 32.6643C35.6665 33.4341 35.7346 34.2252 35.7346 35.0323C35.7346 42.7843 29.4504 49.0685 21.6984 49.0685C13.9464 49.0685 7.66214 42.7843 7.66214 35.0323C7.66214 30.4284 9.87863 26.3423 13.3027 23.7827L18.4722 25.8478C18.0303 26.7997 17.7837 27.8606 17.7837 28.9791C17.7837 33.0916 21.1176 36.4255 25.2301 36.4255C28.5078 36.4255 31.2908 34.3077 32.2857 31.3659L35.5357 32.6643Z" fill="white"/>
<path d="M39.6045 61.5042V65.5365" stroke="#D30032" stroke-width="3.20709" stroke-linecap="round"/>
<path d="M40.0288 61.7288L43.3037 64.0814" stroke="#D30032" stroke-width="3.20709" stroke-linecap="round"/>
<path d="M39.1802 61.7288L35.9053 64.0814" stroke="#D30032" stroke-width="3.20709" stroke-linecap="round"/>
<ellipse cx="62.5227" cy="44.1961" rx="15.5039" ry="6.3727" transform="rotate(-15 62.5227 44.1961)" fill="#FC4873"/>
<path d="M62.7417 40.3892C61.3578 40.3145 58.903 40.7393 57.9768 42.5576" stroke="white" stroke-opacity="0.3" stroke-width="2.40532" stroke-linecap="round"/>
<ellipse cx="15.5039" cy="6.3727" rx="15.5039" ry="6.3727" transform="matrix(-0.965926 -0.258819 -0.258819 0.965926 35.905 42.0532)" fill="#FC4873"/>
<path d="M22.0881 41.249C23.4645 41.4107 25.8114 42.2467 26.415 44.196" stroke="white" stroke-opacity="0.3" stroke-width="2.40532" stroke-linecap="round"/>
<path d="M35.7348 32.6203L13.5945 23.8093" stroke="#FC4873" stroke-width="2.40532" stroke-linecap="round"/>
<rect x="5.56128" y="44.4639" width="70.6669" height="9.90061" fill="#FC4873"/>
<path d="M44.0164 49.0686C41.5139 51.9582 38.5169 51.9584 35.44 49.0686" stroke="#F68E00" stroke-width="4.81063" stroke-linecap="round"/>
<path d="M48.0765 47.6751C48.5203 47.466 48.8502 47.0525 48.8502 46.562V46.562C48.8502 43.0205 44.8497 40.1497 39.915 40.1497C34.9802 40.1497 30.9797 43.0205 30.9797 46.562V46.562C30.9797 47.0525 31.3097 47.466 31.7534 47.6751L35.8144 49.5883C38.4112 50.8118 41.4187 50.8118 44.0156 49.5883L48.0765 47.6751Z" fill="#FDC300"/>
<path d="M39.4092 42.7771C37.6953 42.6757 37.1836 42.7083 35.9772 43.8001" stroke="white" stroke-opacity="0.4" stroke-width="2.40532" stroke-linecap="round"/>
</svg>
