<svg width="81" height="80" viewBox="0 0 81 80" fill="none" xmlns="http://www.w3.org/2000/svg">
<circle cx="40.6216" cy="40" r="40" fill="#867BF4"/>
<path d="M62.4751 45.1099L56.4687 45.1099" stroke="#867BF4" stroke-width="3.20709" stroke-linecap="round"/>
<path d="M60.4214 49.3762H58.5219" stroke="#867BF4" stroke-width="3.20709" stroke-linecap="round"/>
<path d="M26.9175 45.1099L20.9111 45.1099" stroke="#867BF4" stroke-width="3.20709" stroke-linecap="round"/>
<path d="M24.8638 49.3762H22.9643" stroke="#867BF4" stroke-width="3.20709" stroke-linecap="round"/>
<path fill-rule="evenodd" clip-rule="evenodd" d="M45.6994 50.5152C42.8777 48.4702 38.3637 48.4702 35.542 50.5152C32.2408 52.9076 28.1815 54.3181 23.7928 54.3181C12.7232 54.3181 3.74951 45.3444 3.74951 34.2748C3.74951 23.2051 12.7232 14.2314 23.7928 14.2314C28.1815 14.2314 32.2408 15.642 35.542 18.0344C38.3638 20.0793 42.8777 20.0793 45.6994 18.0344C49.0006 15.642 53.0599 14.2315 57.4486 14.2315C68.5182 14.2315 77.4919 23.2052 77.4919 34.2748C77.4919 45.3444 68.5182 54.3181 57.4486 54.3181C53.0599 54.3181 49.0006 52.9076 45.6994 50.5152Z" fill="white" fill-opacity="0.2"/>
<path d="M40.9639 57.1904V61.2228" stroke="#685EC6" stroke-width="3.20709" stroke-linecap="round"/>
<path d="M41.3882 57.4153L44.663 59.7679" stroke="#685EC6" stroke-width="3.20709" stroke-linecap="round"/>
<path d="M40.5396 57.4153L37.2647 59.7679" stroke="#685EC6" stroke-width="3.20709" stroke-linecap="round"/>
<path d="M48.6665 48.3468C49.1238 48.1949 49.4749 47.8024 49.4749 47.3205C49.4749 43.7791 45.4745 39.1733 40.5397 39.1733C35.6049 39.1733 31.6045 43.7791 31.6045 47.3205C31.6045 47.8024 31.9557 48.1949 32.4129 48.3468L37.5062 50.039C39.4756 50.6933 41.6038 50.6933 43.5732 50.039L48.6665 48.3468Z" fill="#FDC300"/>
<path d="M40.5403 42.1631C39.4438 41.9631 37.4582 42.1631 36.5886 43.8897" stroke="white" stroke-opacity="0.4" stroke-width="2.40532" stroke-linecap="round"/>
<path d="M36.2522 49.3764C38.4871 48.1574 42.015 48.2026 44.8286 49.3764" stroke="#F68E00" stroke-width="4.81063" stroke-linecap="round"/>
<path d="M49.22 34.0076L66.5544 37.4895" stroke="#333331" stroke-width="2.40532" stroke-linecap="round"/>
<path d="M31.6037 34.0076L14.2693 37.4895" stroke="#333331" stroke-width="2.40532" stroke-linecap="round"/>
<path d="M46.5298 16.3921C46.6204 17.503 47.2853 19.7323 49.2204 19.7623" stroke="#685EC6" stroke-width="2.40532" stroke-linecap="round"/>
<path d="M34.1824 16.3921C34.0918 17.503 33.4269 19.7323 31.4918 19.7623" stroke="#685EC6" stroke-width="2.40532" stroke-linecap="round"/>
</svg>
