<svg width="81" height="80" viewBox="0 0 81 80" fill="none" xmlns="http://www.w3.org/2000/svg">
<circle cx="40.7617" cy="40" r="40" fill="#BCBCBC"/>
<path fill-rule="evenodd" clip-rule="evenodd" d="M57.5887 54.3181C68.6583 54.3181 77.632 45.3444 77.632 34.2748C77.632 23.2051 68.6583 14.2314 57.5887 14.2314C53.2 14.2314 49.1408 15.642 45.8396 18.0344C43.0178 20.0793 38.5039 20.0793 35.6821 18.0344C32.3809 15.642 28.3217 14.2315 23.933 14.2315C12.8634 14.2315 3.88965 23.2052 3.88965 34.2748C3.88965 45.3444 12.8634 54.3181 23.933 54.3181C28.3217 54.3181 32.3809 52.9076 35.6821 50.5152C38.5039 48.4702 43.0178 48.4702 45.8396 50.5152C49.1408 52.9076 53.2 54.3181 57.5887 54.3181Z" fill="white" fill-opacity="0.2"/>
<ellipse cx="22.984" cy="35.0328" rx="14.0362" ry="14.0362" fill="white"/>
<path d="M29.0398 35.0332C29.0398 38.0485 26.5954 40.4929 23.5801 40.4929C20.5648 40.4929 18.1204 38.0485 18.1204 35.0332C18.1204 32.0179 20.5648 29.5735 23.5801 29.5735C26.5954 29.5735 29.0398 32.0179 29.0398 35.0332Z" fill="white"/>
<path d="M29.0655 35.0332C29.0655 38.0485 26.6211 40.4929 23.6057 40.4929C20.5904 40.4929 18.146 38.0485 18.146 35.0332C18.146 32.0179 20.5904 29.5735 23.6057 29.5735C26.6211 29.5735 29.0655 32.0179 29.0655 35.0332Z" fill="#333331"/>
<ellipse cx="58.5392" cy="35.0328" rx="14.0362" ry="14.0362" fill="white"/>
<path d="M64.595 35.0332C64.595 38.0485 62.1506 40.4929 59.1353 40.4929C56.1199 40.4929 53.6755 38.0485 53.6755 35.0332C53.6755 32.0179 56.1199 29.5735 59.1353 29.5735C62.1506 29.5735 64.595 32.0179 64.595 35.0332Z" fill="white"/>
<path d="M64.6206 35.0332C64.6206 38.0485 62.1762 40.4929 59.1609 40.4929C56.1456 40.4929 53.7012 38.0485 53.7012 35.0332C53.7012 32.0179 56.1456 29.5735 59.1609 29.5735C62.1762 29.5735 64.6206 32.0179 64.6206 35.0332Z" fill="#333331"/>
<path d="M44.7949 49.0688C42.2925 51.9585 39.2955 51.9586 36.2185 49.0688" stroke="#F68E00" stroke-width="4.81063" stroke-linecap="round"/>
<path d="M48.8551 47.6753C49.2988 47.4662 49.6287 47.0527 49.6287 46.5622C49.6287 43.0208 45.6283 40.1499 40.6935 40.1499C35.7587 40.1499 31.7583 43.0208 31.7583 46.5622C31.7583 47.0527 32.0882 47.4662 32.532 47.6753L36.5929 49.5885C39.1898 50.812 42.1973 50.812 44.7941 49.5885L48.8551 47.6753Z" fill="#FDC300"/>
<path d="M40.188 42.7771C38.4741 42.6757 37.9624 42.7083 36.756 43.8001" stroke="white" stroke-opacity="0.4" stroke-width="2.40532" stroke-linecap="round"/>
<path d="M40.6943 60.7461V64.7784" stroke="#9F9F9F" stroke-width="3.20709" stroke-linecap="round"/>
<path d="M41.1187 60.9709L44.3935 63.3236" stroke="#9F9F9F" stroke-width="3.20709" stroke-linecap="round"/>
<path d="M40.27 60.9709L36.9952 63.3236" stroke="#9F9F9F" stroke-width="3.20709" stroke-linecap="round"/>
</svg>
