<svg width="81" height="80" viewBox="0 0 81 80" fill="none" xmlns="http://www.w3.org/2000/svg">
<circle cx="40.1699" cy="40" r="40" fill="#FFC700"/>
<path fill-rule="evenodd" clip-rule="evenodd" d="M56.9969 54.3181C68.0665 54.3181 77.0402 45.3444 77.0402 34.2748C77.0402 23.2051 68.0665 14.2314 56.9969 14.2314C52.6082 14.2314 48.549 15.642 45.2478 18.0344C42.426 20.0793 37.9121 20.0793 35.0903 18.0344C31.7891 15.642 27.7299 14.2315 23.3412 14.2315C12.2716 14.2315 3.29785 23.2052 3.29785 34.2748C3.29785 45.3444 12.2716 54.3181 23.3412 54.3181C27.7299 54.3181 31.7891 52.9076 35.0903 50.5152C37.9121 48.4702 42.426 48.4702 45.2478 50.5152C48.549 52.9076 52.6082 54.3181 56.9969 54.3181Z" fill="white" fill-opacity="0.2"/>
<circle cx="14.0362" cy="14.0362" r="14.0362" transform="matrix(-1 0 0 1 35.8003 20.2383)" fill="white"/>
<path d="M10.8694 34.2746C10.8694 40.3054 15.7583 45.1944 21.7892 45.1944C27.82 45.1944 32.709 40.3054 32.709 34.2746C32.709 28.2437 27.82 23.3547 21.7892 23.3547C15.7583 23.3547 10.8694 28.2437 10.8694 34.2746Z" fill="white"/>
<path fill-rule="evenodd" clip-rule="evenodd" d="M21.7377 45.1944C15.7068 45.1944 10.8178 40.3054 10.8178 34.2746C10.8178 34.2414 10.818 34.2082 10.8183 34.1751C11.7211 35.1255 12.997 35.7181 14.4114 35.7181C17.148 35.7181 19.3665 33.4996 19.3665 30.7629C19.3665 28.1641 17.3658 26.0325 14.8206 25.8245C16.704 24.281 19.1126 23.3547 21.7377 23.3547C27.7685 23.3547 32.6575 28.2437 32.6575 34.2746C32.6575 40.3054 27.7685 45.1944 21.7377 45.1944Z" fill="#333331"/>
<ellipse cx="24.8504" cy="33.2696" rx="2.59722" ry="2.59722" fill="white"/>
<ellipse cx="14.0362" cy="14.0362" rx="14.0362" ry="14.0362" transform="matrix(-1 0 0 1 70.9844 20.2383)" fill="white"/>
<path d="M46.0542 34.2746C46.0542 40.3054 50.9431 45.1944 56.974 45.1944C63.0048 45.1944 67.8938 40.3054 67.8938 34.2746C67.8938 28.2437 63.0048 23.3547 56.974 23.3547C50.9431 23.3547 46.0542 28.2437 46.0542 34.2746Z" fill="white"/>
<path fill-rule="evenodd" clip-rule="evenodd" d="M56.9222 45.1944C50.8914 45.1944 46.0024 40.3054 46.0024 34.2746C46.0024 34.2415 46.0026 34.2084 46.0029 34.1754C46.9057 35.1256 48.1815 35.7181 49.5957 35.7181C52.3323 35.7181 54.5508 33.4996 54.5508 30.7629C54.5508 28.1642 52.5503 26.0327 50.0052 25.8245C51.8885 24.281 54.2972 23.3547 56.9222 23.3547C62.9531 23.3547 67.842 28.2437 67.842 34.2746C67.842 40.3054 62.9531 45.1944 56.9222 45.1944Z" fill="#333331"/>
<ellipse cx="61.0425" cy="33.2696" rx="2.59722" ry="2.59722" fill="white"/>
<path d="M38.7898 60.7461V64.7784" stroke="#FFD233" stroke-width="3.20709" stroke-linecap="round"/>
<path d="M39.2141 60.9709L42.489 63.3236" stroke="#FFD233" stroke-width="3.20709" stroke-linecap="round"/>
<path d="M38.3655 60.9709L35.0906 63.3236" stroke="#FFD233" stroke-width="3.20709" stroke-linecap="round"/>
<path d="M33.1052 58.1599L30.1072 46.1184H47.7421L44.6486 58.1599H33.1052Z" fill="#CD7900"/>
<path d="M44.9407 58.0821L46.9661 45.8313" stroke="#F68E00" stroke-width="1.60354"/>
<path d="M32.8828 58.0821L30.8574 45.8313" stroke="#F68E00" stroke-width="1.60354"/>
<path d="M47.1007 46.9172C47.5444 46.7082 47.8743 46.2947 47.8743 45.8041C47.8743 42.2627 43.8739 39.3918 38.9391 39.3918C34.0043 39.3918 30.0039 42.2627 30.0039 45.8041C30.0039 46.2947 30.3338 46.7082 30.7776 46.9172L34.8385 48.8305C37.4354 50.054 40.4429 50.054 43.0397 48.8305L47.1007 46.9172Z" fill="#FDC300"/>
<mask id="mask0_1480_33563" style="mask-type:alpha" maskUnits="userSpaceOnUse" x="30" y="46" width="18" height="13">
<path d="M33.0463 58.1604L30.1216 46.1189H47.7565L44.6509 58.1604H33.0463Z" fill="#CD7900"/>
</mask>
<g mask="url(#mask0_1480_33563)">
<path d="M37.427 58.5039C39.9678 52.8728 43.023 52.0341 46.0034 58.5039H37.427Z" stroke="#FECAFC" stroke-width="4.81063" stroke-linecap="round"/>
</g>
<path d="M38.4336 42.0193C36.7197 41.9179 36.208 41.9505 35.0016 43.0423" stroke="#FFDF74" stroke-width="2.40532" stroke-linecap="round"/>
<path d="M43.2019 57.7246C39.8143 60.5404 37.9573 60.4206 34.6255 57.7246" stroke="#F68E00" stroke-width="4.81063" stroke-linecap="round"/>
</svg>
