<svg width="81" height="80" viewBox="0 0 81 80" fill="none" xmlns="http://www.w3.org/2000/svg">
<circle cx="40.9873" cy="40" r="40" fill="#FF84AA"/>
<path fill-rule="evenodd" clip-rule="evenodd" d="M57.8151 57.8733C68.8847 57.8733 77.8584 48.8996 77.8584 37.83C77.8584 26.7603 68.8847 17.7866 57.8151 17.7866C53.7362 17.7866 49.9419 19.005 46.7762 21.0977C43.5305 23.2434 38.444 23.2434 35.1983 21.0977C32.0327 19.0051 28.2384 17.7867 24.1595 17.7867C13.0899 17.7867 4.11621 26.7604 4.11621 37.83C4.11621 48.8997 13.0899 57.8734 24.1595 57.8734C28.2384 57.8734 32.0327 56.655 35.1984 54.5623C38.4441 52.4166 43.5306 52.4166 46.7763 54.5622C49.942 56.6549 53.7362 57.8733 57.8151 57.8733Z" fill="white" fill-opacity="0.2"/>
<circle cx="14.1357" cy="14.1357" r="14.1357" transform="matrix(-1 0 0 1 37.8496 20.9968)" fill="white"/>
<path d="M12.743 35.1315C12.743 41.205 17.6666 46.1286 23.7401 46.1286C29.8137 46.1286 34.7373 41.205 34.7373 35.1315C34.7373 29.0579 29.8137 24.1343 23.7401 24.1343C17.6666 24.1343 12.743 29.0579 12.743 35.1315Z" fill="white"/>
<path fill-rule="evenodd" clip-rule="evenodd" d="M23.6884 46.1286C17.6148 46.1286 12.6912 41.205 12.6912 35.1315C12.6912 35.0986 12.6913 35.0657 12.6916 35.0329C13.6008 35.9896 14.8855 36.586 16.3095 36.586C19.0655 36.586 21.2997 34.3518 21.2997 31.5958C21.2997 28.9785 19.2847 26.8317 16.7213 26.6223C18.6182 25.0674 21.0443 24.1343 23.6884 24.1343C29.7619 24.1343 34.6855 29.0579 34.6855 35.1315C34.6855 41.205 29.7619 46.1286 23.6884 46.1286Z" fill="#333331"/>
<path d="M24.5174 30.5424C24.5174 31.7538 25.4902 33.0448 26.6903 33.0448C27.8904 33.0448 28.8633 31.7538 28.8633 30.5424C28.8633 29.3311 27.3402 29.0485 26.6903 30.5425C25.8929 29.0149 24.5174 29.3311 24.5174 30.5424Z" fill="white"/>
<path d="M28.2407 37.4434C28.1476 38.4653 27.4223 40.1283 25.4736 40.5437" stroke="white" stroke-width="3.58075" stroke-linecap="round"/>
<circle cx="14.1357" cy="14.1357" r="14.1357" transform="matrix(-1 0 0 1 73.2822 20.9968)" fill="white"/>
<path d="M48.1748 35.1315C48.1748 41.205 53.0984 46.1286 59.172 46.1286C65.2456 46.1286 70.1692 41.205 70.1692 35.1315C70.1692 29.0579 65.2456 24.1343 59.172 24.1343C53.0984 24.1343 48.1748 29.0579 48.1748 35.1315Z" fill="white"/>
<path fill-rule="evenodd" clip-rule="evenodd" d="M59.1205 46.1289C53.0469 46.1289 48.1233 41.2053 48.1233 35.1317C48.1233 35.0988 48.1235 35.066 48.1238 35.0332C49.0329 35.9897 50.3175 36.5861 51.7414 36.5861C54.4974 36.5861 56.7316 34.3519 56.7316 31.5959C56.7316 28.9786 54.7168 26.832 52.1537 26.6224C54.0505 25.0676 56.4765 24.1345 59.1205 24.1345C65.1941 24.1345 70.1177 29.0581 70.1177 35.1317C70.1177 41.2053 65.1941 46.1289 59.1205 46.1289Z" fill="#333331"/>
<path d="M59.9502 30.5424C59.9502 31.7538 60.9231 33.0448 62.1232 33.0448C63.3233 33.0448 64.2961 31.7538 64.2961 30.5424C64.2961 29.3311 62.773 29.0485 62.1232 30.5425C61.3258 29.0149 59.9502 29.3311 59.9502 30.5424Z" fill="white"/>
<path d="M63.6738 37.4434C63.5807 38.4653 62.8554 40.1283 60.9067 40.5437" stroke="white" stroke-width="3.58075" stroke-linecap="round"/>
<path d="M21.113 51.1892C19.8463 51.1892 18.7664 51.1892 16.863 51.1892" stroke="#FF6A98" stroke-width="3.58075" stroke-linecap="round"/>
<path d="M65.739 51.1892C64.4723 51.1892 63.3924 51.1892 61.489 51.1892" stroke="#FF6A98" stroke-width="3.58075" stroke-linecap="round"/>
<path d="M45.4944 49.0691C42.9919 51.9587 39.9949 51.9589 36.918 49.0691" stroke="#F68E00" stroke-width="5.37112" stroke-linecap="round"/>
<path d="M49.3932 47.6753C49.8369 47.4662 50.1668 47.0527 50.1668 46.5622C50.1668 43.0208 46.1664 40.1499 41.2316 40.1499C36.2968 40.1499 32.2964 43.0208 32.2964 46.5622C32.2964 47.0527 32.6263 47.4662 33.0701 47.6753L37.0267 49.5394C39.6896 50.794 42.7736 50.794 45.4366 49.5394L49.3932 47.6753Z" fill="#FDC300"/>
<path d="M41.231 43.1824C40.1344 42.9823 38.1488 43.1824 37.2792 44.909" stroke="white" stroke-opacity="0.4" stroke-width="2.68556" stroke-linecap="round"/>
<path d="M41.0828 63.2815V67.3138" stroke="#FF6F9C" stroke-width="3.58075" stroke-linecap="round"/>
<path d="M41.5063 63.5063L44.7812 65.859" stroke="#FF6F9C" stroke-width="3.58075" stroke-linecap="round"/>
<path d="M40.6575 63.5063L37.3826 65.859" stroke="#FF6F9C" stroke-width="3.58075" stroke-linecap="round"/>
</svg>
