<svg width="81" height="80" viewBox="0 0 81 80" fill="none" xmlns="http://www.w3.org/2000/svg">
<circle cx="40.0303" cy="40" r="40" fill="#754C35"/>
<path fill-rule="evenodd" clip-rule="evenodd" d="M56.8573 54.3181C67.9269 54.3181 76.9006 45.3444 76.9006 34.2748C76.9006 23.2051 67.9269 14.2314 56.8573 14.2314C52.4686 14.2314 48.4093 15.642 45.1081 18.0344C42.2863 20.0793 37.7724 20.0793 34.9507 18.0344C31.6495 15.642 27.5902 14.2315 23.2015 14.2315C12.1319 14.2315 3.1582 23.2052 3.1582 34.2748C3.1582 45.3444 12.1319 54.3181 23.2015 54.3181C27.5902 54.3181 31.6495 52.9076 34.9507 50.5152C37.7724 48.4702 42.2864 48.4702 45.1081 50.5152C48.4093 52.9076 52.4686 54.3181 56.8573 54.3181Z" fill="white" fill-opacity="0.2"/>
<ellipse cx="57.8063" cy="31.4767" rx="14.0362" ry="14.0362" fill="white"/>
<path d="M59.1439 39.173C59.1439 40.6807 57.9217 41.9029 56.414 41.9029C54.9063 41.9029 53.6841 40.6807 53.6841 39.173C53.6841 37.6653 54.9063 36.4431 56.414 36.4431C57.9217 36.4431 59.1439 37.6653 59.1439 39.173Z" fill="#333331"/>
<path d="M40.3728 57.1904V61.2228" stroke="#603D2A" stroke-width="3.20709" stroke-linecap="round"/>
<path d="M40.7964 57.415L44.0713 59.7677" stroke="#603D2A" stroke-width="3.20709" stroke-linecap="round"/>
<path d="M39.9485 57.415L36.6736 59.7677" stroke="#603D2A" stroke-width="3.20709" stroke-linecap="round"/>
<path d="M48.075 48.3465C48.5322 48.1946 48.8834 47.8021 48.8834 47.3203C48.8834 43.7789 44.8829 39.1731 39.9482 39.1731C35.0134 39.1731 31.0129 43.7789 31.0129 47.3203C31.0129 47.8021 31.3641 48.1946 31.8214 48.3465L36.9147 50.0387C38.8841 50.693 41.0122 50.693 42.9817 50.0387L48.075 48.3465Z" fill="#FDC300"/>
<path d="M39.9492 42.1628C38.8527 41.9628 36.8671 42.1628 35.9975 43.8895" stroke="white" stroke-opacity="0.4" stroke-width="2.40532" stroke-linecap="round"/>
<path d="M35.6609 49.3762C37.8958 48.1571 41.4237 48.2024 44.2373 49.3762" stroke="#F68E00" stroke-width="4.81063" stroke-linecap="round"/>
<ellipse cx="57.8063" cy="31.4769" rx="14.0362" ry="14.0362" fill="white"/>
<path d="M59.1439 39.6545C59.1439 41.1622 57.9217 42.3844 56.414 42.3844C54.9063 42.3844 53.6841 41.1622 53.6841 39.6545C53.6841 38.1468 54.9063 36.9246 56.414 36.9246C57.9217 36.9246 59.1439 38.1468 59.1439 39.6545Z" fill="#333331"/>
<path d="M50.2743 15.7016L70.1135 19.4606L73.015 37.6957L56.2919 34.3293L40.8048 31.7366L50.2743 15.7016Z" fill="#91705D"/>
<path d="M43.7692 32.284L70.7835 36.7978" stroke="#754C35" stroke-width="2.40532" stroke-linecap="round"/>
<ellipse cx="14.0362" cy="14.0362" rx="14.0362" ry="14.0362" transform="matrix(-1 0 0 1 35.7175 17.4407)" fill="white"/>
<path d="M20.3436 39.6545C20.3436 41.1622 21.5659 42.3844 23.0736 42.3844C24.5812 42.3844 25.8035 41.1622 25.8035 39.6545C25.8035 38.1468 24.5812 36.9246 23.0736 36.9246C21.5659 36.9246 20.3436 38.1468 20.3436 39.6545Z" fill="#333331"/>
<path d="M29.2137 15.7016L9.37451 19.4606L6.47299 37.6957L23.1962 34.3293L38.6832 31.7366L29.2137 15.7016Z" fill="#91705D"/>
<path d="M35.7181 32.284L8.70381 36.7978" stroke="#754C35" stroke-width="2.40532" stroke-linecap="round"/>
<path d="M45.9387 16.3918C46.0293 17.5028 46.6942 19.7321 48.6293 19.762" stroke="#754C35" stroke-width="2.40532" stroke-linecap="round"/>
<path d="M33.5913 16.3918C33.5007 17.5028 32.8358 19.7321 30.9007 19.762" stroke="#754C35" stroke-width="2.40532" stroke-linecap="round"/>
<path d="M58.0178 46.6106C57.5233 46.6016 55.8027 46.5703 55.0596 46.5568" stroke="#754C35" stroke-width="4.81063" stroke-linecap="round"/>
<path d="M55.9749 52.8173C55.6043 52.8249 55.6172 52.8057 55.0603 52.8173" stroke="#754C35" stroke-width="4.81063" stroke-linecap="round"/>
</svg>
