<svg width="81" height="81" viewBox="0 0 81 81" fill="none" xmlns="http://www.w3.org/2000/svg">
<circle cx="40.6216" cy="40.3662" r="40" fill="#754C35"/>
<path fill-rule="evenodd" clip-rule="evenodd" d="M57.449 54.6843C68.5186 54.6843 77.4923 45.7106 77.4923 34.641C77.4923 23.5714 68.5186 14.5977 57.449 14.5977C53.0603 14.5977 49.0011 16.0082 45.6998 18.4006C42.8781 20.4456 38.3642 20.4456 35.5424 18.4006C32.2412 16.0082 28.182 14.5977 23.7933 14.5977C12.7237 14.5977 3.75 23.5714 3.75 34.641C3.75 45.7107 12.7237 54.6844 23.7933 54.6844C28.182 54.6844 32.2413 53.2739 35.5425 50.8814C38.3643 48.8365 42.8781 48.8365 45.6999 50.8814C49.0011 53.2738 53.0603 54.6843 57.449 54.6843Z" fill="white" fill-opacity="0.2"/>
<ellipse cx="58.3976" cy="31.8429" rx="14.0362" ry="14.0362" fill="white"/>
<path d="M59.7352 39.539C59.7352 41.0467 58.513 42.2689 57.0053 42.2689C55.4976 42.2689 54.2754 41.0467 54.2754 39.539C54.2754 38.0313 55.4976 36.8091 57.0053 36.8091C58.513 36.8091 59.7352 38.0313 59.7352 39.539Z" fill="#333331"/>
<path d="M45.2973 28.6068L72.3116 33.1206" stroke="black" stroke-width="2.40532" stroke-linecap="round"/>
<circle cx="22.7521" cy="31.399" r="14.0362" fill="white"/>
<path d="M33.6463 31.3993C33.6463 37.4302 28.7573 42.3191 22.7265 42.3191C16.6956 42.3191 11.8066 37.4302 11.8066 31.3993C11.8066 25.3685 16.6956 20.4795 22.7265 20.4795C28.7573 20.4795 33.6463 25.3685 33.6463 31.3993Z" fill="white"/>
<path d="M33.698 31.3993C33.698 37.4302 28.8091 42.3191 22.7782 42.3191C16.7474 42.3191 11.8584 37.4302 11.8584 31.3993C11.8584 25.3685 16.7474 20.4795 22.7782 20.4795C28.8091 20.4795 33.698 25.3685 33.698 31.3993Z" fill="#333331"/>
<path d="M30.4548 16.0679L20.4055 16.0679L10.6156 19.827L6.56399 34.2449L23.4152 31.746L38.9023 29.1533L30.4548 16.0679Z" fill="#91705D"/>
<path d="M36.023 28.6068L9.00874 33.1206" stroke="#754C35" stroke-width="2.40532" stroke-linecap="round"/>
<path d="M40.9639 57.5566V61.589" stroke="#603D2A" stroke-width="3.20709" stroke-linecap="round"/>
<path d="M41.3882 57.7812L44.663 60.1339" stroke="#603D2A" stroke-width="3.20709" stroke-linecap="round"/>
<path d="M40.5396 57.7812L37.2647 60.1339" stroke="#603D2A" stroke-width="3.20709" stroke-linecap="round"/>
<path d="M48.6665 48.713C49.1238 48.5611 49.4749 48.1686 49.4749 47.6868C49.4749 44.1453 45.4745 39.5396 40.5397 39.5396C35.6049 39.5396 31.6045 44.1453 31.6045 47.6868C31.6045 48.1686 31.9557 48.5611 32.4129 48.713L37.5062 50.4052C39.4756 51.0595 41.6038 51.0595 43.5732 50.4052L48.6665 48.713Z" fill="#FDC300"/>
<path d="M40.5405 42.5293C39.444 42.3293 37.4584 42.5293 36.5888 44.2559" stroke="white" stroke-opacity="0.4" stroke-width="2.40532" stroke-linecap="round"/>
<path d="M36.252 49.7426C38.4868 48.5236 42.0147 48.5688 44.8283 49.7426" stroke="#F68E00" stroke-width="4.81063" stroke-linecap="round"/>
<circle cx="14.0362" cy="14.0362" r="14.0362" transform="matrix(-1 0 0 1 72.6045 17.3628)" fill="white"/>
<path d="M47.674 31.3993C47.674 37.4302 52.563 42.3191 58.5939 42.3191C64.6247 42.3191 69.5137 37.4302 69.5137 31.3993C69.5137 25.3685 64.6247 20.4795 58.5939 20.4795C52.563 20.4795 47.674 25.3685 47.674 31.3993Z" fill="white"/>
<path d="M47.6223 31.3993C47.6223 37.4302 52.5113 42.3191 58.5421 42.3191C64.5729 42.3191 69.4619 37.4302 69.4619 31.3993C69.4619 25.3685 64.5729 20.4795 58.5421 20.4795C52.5113 20.4795 47.6223 25.3685 47.6223 31.3993Z" fill="#333331"/>
<path d="M50.8655 16.0679L60.9148 16.0679L70.7047 19.827L74.7563 34.2449L57.9051 31.746L42.418 29.1533L50.8655 16.0679Z" fill="#91705D"/>
<path d="M45.2973 28.6068L72.3116 33.1206" stroke="#754C35" stroke-width="2.40532" stroke-linecap="round"/>
<path d="M46.5298 16.7583C46.6204 17.8692 47.2853 20.0985 49.2204 20.1285" stroke="#754C35" stroke-width="2.40532" stroke-linecap="round"/>
<path d="M34.1826 16.7583C34.092 17.8692 33.4271 20.0985 31.492 20.1285" stroke="#754C35" stroke-width="2.40532" stroke-linecap="round"/>
</svg>
