<svg width="81" height="80" viewBox="0 0 81 80" fill="none" xmlns="http://www.w3.org/2000/svg">
<circle cx="40.0303" cy="40" r="40" fill="black"/>
<path fill-rule="evenodd" clip-rule="evenodd" d="M45.1081 50.5152C42.2863 48.4702 37.7724 48.4702 34.9507 50.5152C31.6495 52.9076 27.5902 54.3181 23.2015 54.3181C12.1319 54.3181 3.1582 45.3444 3.1582 34.2748C3.1582 23.2051 12.1319 14.2314 23.2015 14.2314C27.5902 14.2314 31.6495 15.642 34.9507 18.0344C37.7724 20.0793 42.2864 20.0793 45.1081 18.0344C48.4093 15.642 52.4686 14.2315 56.8573 14.2315C67.9269 14.2315 76.9006 23.2052 76.9006 34.2748C76.9006 45.3444 67.9269 54.3181 56.8573 54.3181C52.4686 54.3181 48.4093 52.9076 45.1081 50.5152Z" fill="white" fill-opacity="0.2"/>
<circle cx="22.2511" cy="31.4767" r="14.0362" fill="white"/>
<path d="M28.3069 31.4766C28.3069 34.4919 25.8625 36.9363 22.8472 36.9363C19.8319 36.9363 17.3875 34.4919 17.3875 31.4766C17.3875 28.4613 19.8319 26.0168 22.8472 26.0168C25.8625 26.0168 28.3069 28.4613 28.3069 31.4766Z" fill="white"/>
<path d="M24.9808 31.4767C24.9808 32.9844 23.7586 34.2067 22.2509 34.2067C20.7432 34.2067 19.521 32.9844 19.521 31.4767C19.521 29.969 20.7432 28.7468 22.2509 28.7468C23.7586 28.7468 24.9808 29.969 24.9808 31.4767Z" fill="black"/>
<circle cx="57.8063" cy="31.4767" r="14.0362" fill="white"/>
<path d="M63.8621 31.4766C63.8621 34.4919 61.4177 36.9363 58.4024 36.9363C55.387 36.9363 52.9426 34.4919 52.9426 31.4766C52.9426 28.4613 55.387 26.0168 58.4024 26.0168C61.4177 26.0168 63.8621 28.4613 63.8621 31.4766Z" fill="white"/>
<path d="M60.536 31.4767C60.536 32.9844 59.3138 34.2067 57.8061 34.2067C56.2984 34.2067 55.0762 32.9844 55.0762 31.4767C55.0762 29.969 56.2984 28.7468 57.8061 28.7468C59.3138 28.7468 60.536 29.969 60.536 31.4767Z" fill="black"/>
<path d="M40.3726 57.1904V61.2228" stroke="#333331" stroke-width="3.20709" stroke-linecap="round"/>
<path d="M40.7969 57.4153L44.0717 59.7679" stroke="#333331" stroke-width="3.20709" stroke-linecap="round"/>
<path d="M39.9482 57.4153L36.6734 59.7679" stroke="#333331" stroke-width="3.20709" stroke-linecap="round"/>
<path d="M60.812 45.1099L54.8056 45.1099" stroke="black" stroke-width="3.20709" stroke-linecap="round"/>
<path d="M58.7583 49.3762H56.8588" stroke="black" stroke-width="3.20709" stroke-linecap="round"/>
<path d="M25.2551 45.1099L19.2487 45.1099" stroke="black" stroke-width="3.20709" stroke-linecap="round"/>
<path d="M23.2014 49.3762H21.3019" stroke="black" stroke-width="3.20709" stroke-linecap="round"/>
<path d="M40.0305 7.72412V11.7565" stroke="#333331" stroke-width="1.60354" stroke-linecap="round"/>
<path d="M37.364 7.72412V9.74018" stroke="#333331" stroke-width="1.60354" stroke-linecap="round"/>
<path d="M42.6968 7.72412L42.6968 14.2313" stroke="#333331" stroke-width="1.60354" stroke-linecap="round"/>
<path d="M48.0752 48.3468C48.5325 48.1949 48.8836 47.8024 48.8836 47.3205V47.3205C48.8836 43.7791 44.8832 39.1733 39.9484 39.1733C35.0136 39.1733 31.0132 43.7791 31.0132 47.3205V47.3205C31.0132 47.8024 31.3644 48.1949 31.8216 48.3468L36.9149 50.039C38.8843 50.6933 41.0125 50.6933 42.9819 50.039L48.0752 48.3468Z" fill="#FDC300"/>
<path d="M39.949 42.1631C38.8525 41.9631 36.8668 42.1631 35.9973 43.8897" stroke="white" stroke-opacity="0.4" stroke-width="2.40532" stroke-linecap="round"/>
<path d="M35.6609 49.3764C37.8958 48.1574 41.4237 48.2026 44.2373 49.3764" stroke="#F68E00" stroke-width="4.81063" stroke-linecap="round"/>
</svg>
