<svg width="81" height="80" viewBox="0 0 81 80" fill="none" xmlns="http://www.w3.org/2000/svg">
<circle cx="40.5786" cy="40" r="40" fill="#FF9A03"/>
<path fill-rule="evenodd" clip-rule="evenodd" d="M56.4514 54.3176C67.521 54.3176 76.4947 45.3439 76.4947 34.2743C76.4947 23.2047 67.521 14.231 56.4514 14.231C52.0627 14.231 48.0034 15.6415 44.7022 18.0339C41.8804 20.0789 37.3665 20.0789 34.5447 18.0339C31.2435 15.6415 27.1842 14.231 22.7955 14.231C11.7259 14.231 2.7522 23.2047 2.7522 34.2743C2.7522 45.3439 11.7259 54.3176 22.7955 54.3176C27.1842 54.3176 31.2435 52.9071 34.5447 50.5147C37.3665 48.4697 41.8805 48.4697 44.7022 50.5147C48.0034 52.9071 52.0627 54.3176 56.4514 54.3176Z" fill="white" fill-opacity="0.2"/>
<circle cx="14.0362" cy="14.0362" r="14.0362" transform="matrix(-1 0 0 1 36.0684 20.9966)" fill="white"/>
<path d="M11.1377 35.0329C11.1377 41.0637 16.0266 45.9527 22.0575 45.9527C28.0883 45.9527 32.9773 41.0637 32.9773 35.0329C32.9773 29.002 28.0883 24.113 22.0575 24.113C16.0266 24.113 11.1377 29.002 11.1377 35.0329Z" fill="white"/>
<path fill-rule="evenodd" clip-rule="evenodd" d="M22.006 45.9527C15.9751 45.9527 11.0862 41.0637 11.0862 35.0329C11.0862 34.9998 11.0863 34.9668 11.0866 34.9338C11.9894 35.884 13.2652 36.4764 14.6794 36.4764C17.416 36.4764 19.6345 34.2579 19.6345 31.5213C19.6345 28.9225 17.6339 26.791 15.0889 26.5828C16.9722 25.0393 19.3809 24.113 22.006 24.113C28.0368 24.113 32.9258 29.002 32.9258 35.0329C32.9258 41.0637 28.0368 45.9527 22.006 45.9527Z" fill="#333331"/>
<ellipse cx="25.1187" cy="34.0284" rx="2.59722" ry="2.59722" fill="white"/>
<circle cx="14.0362" cy="14.0362" r="14.0362" transform="matrix(-1 0 0 1 71.2522 20.9966)" fill="white"/>
<path d="M46.3222 35.0329C46.3222 41.0637 51.2112 45.9527 57.2421 45.9527C63.2729 45.9527 68.1619 41.0637 68.1619 35.0329C68.1619 29.002 63.2729 24.113 57.2421 24.113C51.2112 24.113 46.3222 29.002 46.3222 35.0329Z" fill="white"/>
<path fill-rule="evenodd" clip-rule="evenodd" d="M57.1903 45.9527C51.1594 45.9527 46.2705 41.0637 46.2705 35.0329C46.2705 34.9997 46.2706 34.9666 46.2709 34.9335C47.1737 35.8839 48.4496 36.4764 49.8639 36.4764C52.6006 36.4764 54.8191 34.2579 54.8191 31.5213C54.8191 28.9224 52.8184 26.7909 50.2732 26.5828C52.1566 25.0393 54.5653 24.113 57.1903 24.113C63.2211 24.113 68.1101 29.002 68.1101 35.0329C68.1101 41.0637 63.2211 45.9527 57.1903 45.9527Z" fill="#333331"/>
<ellipse cx="61.3108" cy="34.0284" rx="2.59722" ry="2.59722" fill="white"/>
<ellipse cx="59.0153" cy="49.7456" rx="15.8364" ry="12.3968" fill="#FF9A03"/>
<path d="M57.126 41.4468C55.7252 41.2467 53.1887 41.4468 52.0778 43.1734" stroke="white" stroke-opacity="0.3" stroke-width="2.40532" stroke-linecap="round"/>
<path d="M38.897 61.5044V65.5367" stroke="#FFAE35" stroke-width="3.20709" stroke-linecap="round"/>
<path d="M39.3206 61.7288L42.5954 64.0814" stroke="#FFAE35" stroke-width="3.20709" stroke-linecap="round"/>
<path d="M38.4727 61.7288L35.1978 64.0814" stroke="#FFAE35" stroke-width="3.20709" stroke-linecap="round"/>
<ellipse cx="20.9985" cy="49.7456" rx="15.8364" ry="12.3968" fill="#FF9A03"/>
<path d="M19.1094 41.4468C17.7086 41.2467 15.1721 41.4468 14.0612 43.1734" stroke="white" stroke-opacity="0.3" stroke-width="2.40532" stroke-linecap="round"/>
<path d="M43.3081 49.0688C40.8057 51.9585 37.8087 51.9586 34.7317 49.0688" stroke="#CD7900" stroke-width="4.81063" stroke-linecap="round"/>
<path d="M47.3683 47.6753C47.812 47.4662 48.1419 47.0527 48.1419 46.5622C48.1419 43.0208 44.1415 40.1499 39.2067 40.1499C34.2719 40.1499 30.2715 43.0208 30.2715 46.5622C30.2715 47.0527 30.6014 47.4662 31.0452 47.6753L35.1061 49.5885C37.703 50.812 40.7105 50.812 43.3073 49.5885L47.3683 47.6753Z" fill="#FDC300"/>
<path d="M38.7012 42.7771C36.9873 42.6757 36.4756 42.7083 35.2692 43.8001" stroke="white" stroke-opacity="0.4" stroke-width="2.40532" stroke-linecap="round"/>
</svg>
