<svg width="81" height="80" viewBox="0 0 81 80" fill="none" xmlns="http://www.w3.org/2000/svg">
<circle cx="40.396" cy="40" r="40" fill="#2E4FFF"/>
<circle cx="14.0362" cy="14.0362" r="14.0362" transform="matrix(-1 0 0 1 36.926 21.7544)" fill="white"/>
<path d="M11.9953 35.5336C11.9953 41.5644 16.8843 46.4534 22.9151 46.4534C28.946 46.4534 33.835 41.5644 33.835 35.5336C33.835 29.5027 28.946 24.6138 22.9151 24.6138C16.8843 24.6138 11.9953 29.5027 11.9953 35.5336Z" fill="white"/>
<path fill-rule="evenodd" clip-rule="evenodd" d="M22.8641 46.4534C16.8333 46.4534 11.9443 41.5644 11.9443 35.5336C11.9443 35.5007 11.9445 35.4679 11.9447 35.4351C12.8475 36.385 14.1232 36.9772 15.5371 36.9772C18.2737 36.9772 20.4922 34.7587 20.4922 32.0221C20.4922 29.4234 18.4918 27.292 15.9469 27.0837C17.8303 25.5401 20.239 24.6138 22.8641 24.6138C28.895 24.6138 33.7839 29.5027 33.7839 35.5336C33.7839 41.5644 28.895 46.4534 22.8641 46.4534Z" fill="#333331"/>
<ellipse cx="2.59722" cy="2.59722" rx="2.59722" ry="2.59722" transform="matrix(-1 0 0 1 30.0515 35.7905)" fill="white"/>
<mask id="mask0_1480_33548" style="mask-type:alpha" maskUnits="userSpaceOnUse" x="8" y="21" width="29" height="29">
<ellipse cx="22.8644" cy="35.7906" rx="14.0362" ry="14.0362" fill="white"/>
</mask>
<g mask="url(#mask0_1480_33548)">
<path opacity="0.8" d="M23.8736 40.1881C17.1752 35.6707 10.1783 37.6567 7.51709 39.2144L8.51724 52.9439L37.6691 51.2415L36.8801 38.7564C35.5919 41.126 30.572 44.7056 23.8736 40.1881Z" fill="#ABB8FF"/>
</g>
<path d="M46.6672 15.5989C46.7578 16.7098 47.4228 18.9391 49.3578 18.969" stroke="#213CCB" stroke-width="2.40532" stroke-linecap="round"/>
<path d="M34.3206 15.5989C34.23 16.7098 33.565 18.9391 31.63 18.969" stroke="#213CCB" stroke-width="2.40532" stroke-linecap="round"/>
<ellipse cx="14.0362" cy="14.0362" rx="14.0362" ry="14.0362" transform="matrix(-1 0 0 1 71.7781 21.7544)" fill="white"/>
<path d="M46.8474 35.5336C46.8474 41.5644 51.7364 46.4534 57.7672 46.4534C63.798 46.4534 68.687 41.5644 68.687 35.5336C68.687 29.5027 63.798 24.6138 57.7672 24.6138C51.7364 24.6138 46.8474 29.5027 46.8474 35.5336Z" fill="white"/>
<path fill-rule="evenodd" clip-rule="evenodd" d="M57.7162 46.4534C51.6853 46.4534 46.7964 41.5644 46.7964 35.5336C46.7964 35.5007 46.7965 35.4679 46.7968 35.4351C47.6996 36.385 48.9752 36.9772 50.3891 36.9772C53.1258 36.9772 55.3443 34.7587 55.3443 32.0221C55.3443 29.4234 53.3439 27.292 50.7989 27.0837C52.6823 25.5401 55.0911 24.6138 57.7162 24.6138C63.747 24.6138 68.636 29.5027 68.636 35.5336C68.636 41.5644 63.747 46.4534 57.7162 46.4534Z" fill="#333331"/>
<ellipse cx="2.59722" cy="2.59722" rx="2.59722" ry="2.59722" transform="matrix(-1 0 0 1 64.9033 35.7905)" fill="white"/>
<mask id="mask1_1480_33548" style="mask-type:alpha" maskUnits="userSpaceOnUse" x="43" y="21" width="29" height="29">
<circle cx="14.0362" cy="14.0362" r="14.0362" transform="matrix(-1 0 0 1 71.7524 21.7544)" fill="white"/>
</mask>
<g mask="url(#mask1_1480_33548)">
<path opacity="0.8" d="M56.706 40.1881C63.4044 35.6707 70.4013 37.6567 73.0625 39.2144L72.0624 52.9439L42.9105 51.2415L43.6995 38.7564C44.9877 41.126 50.0076 44.7056 56.706 40.1881Z" fill="#ABB8FF"/>
</g>
<path d="M48.5486 48.3461C49.0058 48.1941 49.357 47.8016 49.357 47.3198C49.357 43.7784 45.3566 39.1726 40.4218 39.1726C35.487 39.1726 31.4866 43.7784 31.4866 47.3198C31.4866 47.8016 31.8377 48.1941 32.295 48.3461L37.3883 50.0382C39.3577 50.6925 41.4859 50.6925 43.4553 50.0382L48.5486 48.3461Z" fill="#FDC300"/>
<path d="M40.4216 42.1624C39.3251 41.9623 37.3395 42.1624 36.4699 43.889" stroke="white" stroke-opacity="0.4" stroke-width="2.40532" stroke-linecap="round"/>
<path d="M36.1333 49.3757C38.3682 48.1566 41.8961 48.2019 44.7097 49.3757" stroke="#F68E00" stroke-width="4.81063" stroke-linecap="round"/>
<path d="M41.1875 64.0398V68.0721" stroke="#213CCB" stroke-width="3.20709" stroke-linecap="round"/>
<path d="M41.6118 64.2646L44.8867 66.6173" stroke="#213CCB" stroke-width="3.20709" stroke-linecap="round"/>
<path d="M40.7632 64.2646L37.4883 66.6173" stroke="#213CCB" stroke-width="3.20709" stroke-linecap="round"/>
</svg>
