<svg width="81" height="81" viewBox="0 0 81 81" fill="none" xmlns="http://www.w3.org/2000/svg">
<circle cx="40.2129" cy="40.3662" r="40" fill="#FFB49C"/>
<path fill-rule="evenodd" clip-rule="evenodd" d="M57.0398 54.6843C68.1095 54.6843 77.0832 45.7106 77.0832 34.641C77.0832 23.5714 68.1095 14.5977 57.0398 14.5977C52.6511 14.5977 48.5919 16.0082 45.2907 18.4006C42.4689 20.4456 37.955 20.4456 35.1332 18.4006C31.8321 16.0082 27.7728 14.5977 23.3841 14.5977C12.3145 14.5977 3.34082 23.5714 3.34082 34.641C3.34082 45.7107 12.3145 54.6844 23.3841 54.6844C27.7729 54.6844 31.8321 53.2739 35.1333 50.8814C37.9551 48.8365 42.469 48.8365 45.2907 50.8814C48.5919 53.2738 52.6512 54.6843 57.0398 54.6843Z" fill="white" fill-opacity="0.2"/>
<circle cx="14.0362" cy="14.0362" r="14.0362" transform="matrix(-1 0 0 1 36.6045 17.3628)" fill="white"/>
<path d="M11.674 35.0697C11.674 41.1006 16.563 45.9895 22.5939 45.9895C28.6247 45.9895 33.5137 41.1006 33.5137 35.0697C33.5137 29.0389 28.6247 24.1499 22.5939 24.1499C16.563 24.1499 11.674 29.0389 11.674 35.0697Z" fill="white"/>
<path d="M11.6223 35.0697C11.6223 41.1006 16.5113 45.9895 22.5421 45.9895C28.5729 45.9895 33.4619 41.1006 33.4619 35.0697C33.4619 29.0389 28.5729 24.1499 22.5421 24.1499C16.5113 24.1499 11.6223 29.0389 11.6223 35.0697Z" fill="#333331"/>
<ellipse cx="26.6627" cy="34.0655" rx="2.59722" ry="2.59722" fill="white"/>
<circle cx="14.0362" cy="14.0362" r="14.0362" transform="matrix(-1 0 0 1 71.6045 17.3628)" fill="white"/>
<path d="M46.674 35.0697C46.674 41.1006 51.563 45.9895 57.5939 45.9895C63.6247 45.9895 68.5137 41.1006 68.5137 35.0697C68.5137 29.0389 63.6247 24.1499 57.5939 24.1499C51.563 24.1499 46.674 29.0389 46.674 35.0697Z" fill="white"/>
<path d="M46.6223 35.0697C46.6223 41.1006 51.5113 45.9895 57.5421 45.9895C63.5729 45.9895 68.4619 41.1006 68.4619 35.0697C68.4619 29.0389 63.5729 24.1499 57.5421 24.1499C51.5113 24.1499 46.6223 29.0389 46.6223 35.0697Z" fill="#333331"/>
<ellipse cx="61.6627" cy="34.0655" rx="2.59722" ry="2.59722" fill="white"/>
<path d="M65.5766 44.4761C63.0585 44.4152 17.7415 44.1486 13.9577 44.0572" stroke="#FF9C7C" stroke-width="8.01772" stroke-linecap="round"/>
<path d="M48.3565 47.7125C48.8137 47.5606 49.1649 47.1681 49.1649 46.6863C49.1649 43.1448 45.1644 38.5391 40.2297 38.5391C35.2949 38.5391 31.2944 43.1448 31.2944 46.6863C31.2944 47.1681 31.6456 47.5606 32.1028 47.7125L37.1962 49.4047C39.1656 50.059 41.2937 50.059 43.2631 49.4047L48.3565 47.7125Z" fill="#FDC300"/>
<path d="M40.2305 41.5288C39.134 41.3288 37.1483 41.5288 36.2788 43.2554" stroke="white" stroke-opacity="0.4" stroke-width="2.40532" stroke-linecap="round"/>
<path d="M35.9419 48.7421C38.1768 47.5231 41.7047 47.5683 44.5183 48.7421" stroke="#F68E00" stroke-width="4.81063" stroke-linecap="round"/>
<path d="M46.3862 16.7578C46.4768 17.8687 47.1417 20.0981 49.0768 20.128" stroke="#FF9C7C" stroke-width="2.40532" stroke-linecap="round"/>
<path d="M34.0391 16.7578C33.9485 17.8687 33.2835 20.0981 31.3485 20.128" stroke="#FF9C7C" stroke-width="2.40532" stroke-linecap="round"/>
</svg>
