<svg width="80" height="80" viewBox="0 0 80 80" fill="none" xmlns="http://www.w3.org/2000/svg">
<circle cx="40" cy="40" r="40" fill="#FF7042"/>
<path fill-rule="evenodd" clip-rule="evenodd" d="M56.8272 54.3181C67.8968 54.3181 76.8705 45.3444 76.8705 34.2748C76.8705 23.2051 67.8968 14.2314 56.8272 14.2314C52.4385 14.2314 48.3792 15.642 45.078 18.0344C42.2563 20.0793 37.7424 20.0793 34.9206 18.0344C31.6194 15.642 27.5602 14.2315 23.1715 14.2315C12.1019 14.2315 3.12817 23.2052 3.12817 34.2748C3.12817 45.3445 12.1019 54.3182 23.1715 54.3182C27.5602 54.3182 31.6195 52.9076 34.9207 50.5152C37.7424 48.4703 42.2563 48.4703 45.0781 50.5152C48.3793 52.9076 52.4385 54.3181 56.8272 54.3181Z" fill="white" fill-opacity="0.2"/>
<circle cx="14.0362" cy="14.0362" r="14.0362" transform="matrix(-1 0 0 1 36.3916 16.9966)" fill="white"/>
<path d="M11.4614 34.7035C11.4614 40.7344 16.3504 45.6233 22.3812 45.6233C28.4121 45.6233 33.301 40.7344 33.301 34.7035C33.301 28.6727 28.4121 23.7837 22.3812 23.7837C16.3504 23.7837 11.4614 28.6727 11.4614 34.7035Z" fill="white"/>
<path d="M11.4096 34.7035C11.4096 40.7344 16.2986 45.6233 22.3295 45.6233C28.3603 45.6233 33.2493 40.7344 33.2493 34.7035C33.2493 28.6727 28.3603 23.7837 22.3295 23.7837C16.2986 23.7837 11.4096 28.6727 11.4096 34.7035Z" fill="#333331"/>
<ellipse cx="26.4498" cy="33.6993" rx="2.59722" ry="2.59722" fill="white"/>
<circle cx="14.0362" cy="14.0362" r="14.0362" transform="matrix(-1 0 0 1 71.3916 16.9966)" fill="white"/>
<path d="M46.4614 34.7035C46.4614 40.7344 51.3504 45.6233 57.3812 45.6233C63.4121 45.6233 68.301 40.7344 68.301 34.7035C68.301 28.6727 63.4121 23.7837 57.3812 23.7837C51.3504 23.7837 46.4614 28.6727 46.4614 34.7035Z" fill="white"/>
<path d="M46.4096 34.7035C46.4096 40.7344 51.2986 45.6233 57.3295 45.6233C63.3603 45.6233 68.2493 40.7344 68.2493 34.7035C68.2493 28.6727 63.3603 23.7837 57.3295 23.7837C51.2986 23.7837 46.4096 28.6727 46.4096 34.7035Z" fill="#333331"/>
<ellipse cx="61.4498" cy="33.6993" rx="2.59722" ry="2.59722" fill="white"/>
<path d="M13.2031 46.7193L29.7819 40.4346V47.7847L50.9118 40.4346L49.6115 47.7847L66.5697 42.0331" stroke="#FF6635" stroke-width="6" stroke-linecap="round" stroke-linejoin="round"/>
<path d="M48.1436 47.3463C48.6008 47.1944 48.952 46.8019 48.952 46.3201C48.952 42.7786 44.9515 38.1729 40.0168 38.1729C35.082 38.1729 31.0815 42.7786 31.0815 46.3201C31.0815 46.8019 31.4327 47.1944 31.89 47.3463L36.9833 49.0385C38.9527 49.6928 41.0809 49.6928 43.0503 49.0385L48.1436 47.3463Z" fill="#FDC300"/>
<path d="M40.0176 41.1626C38.9211 40.9626 36.9355 41.1626 36.0659 42.8892" stroke="white" stroke-opacity="0.4" stroke-width="2.40532" stroke-linecap="round"/>
<path d="M35.729 48.5488C37.9639 47.3297 41.4918 47.375 44.3054 48.5488" stroke="#F68E00" stroke-width="4.81063" stroke-linecap="round"/>
<path d="M44.333 10.6191C45.7525 13.0431 49.206 17.3617 51.6643 15.2447" stroke="#FF9C7C" stroke-width="2.40532" stroke-linecap="round"/>
<path d="M34.7759 10.6191C33.3564 13.0431 29.9029 17.3617 27.4446 15.2447" stroke="#FF9C7C" stroke-width="2.40532" stroke-linecap="round"/>
</svg>
