<svg width="81" height="80" viewBox="0 0 81 80" fill="none" xmlns="http://www.w3.org/2000/svg">
<circle cx="40.2129" cy="40" r="40" fill="#FFB49C"/>
<path fill-rule="evenodd" clip-rule="evenodd" d="M57.0399 54.3181C68.1095 54.3181 77.0832 45.3444 77.0832 34.2748C77.0832 23.2051 68.1095 14.2314 57.0399 14.2314C52.6512 14.2314 48.5919 15.642 45.2907 18.0344C42.469 20.0793 37.9551 20.0793 35.1333 18.0344C31.8321 15.642 27.7728 14.2315 23.3841 14.2315C12.3145 14.2315 3.34082 23.2052 3.34082 34.2748C3.34082 45.3444 12.3145 54.3181 23.3841 54.3181C27.7728 54.3181 31.8321 52.9076 35.1333 50.5152C37.9551 48.4702 42.469 48.4702 45.2908 50.5152C48.592 52.9076 52.6512 54.3181 57.0399 54.3181Z" fill="white" fill-opacity="0.2"/>
<circle cx="21.6608" cy="31.4772" r="14.0362" fill="white"/>
<circle cx="58.3504" cy="31.4772" r="14.0362" fill="white"/>
<path d="M62.3918 43.6909C61.1251 43.6909 56.7181 43.6909 54.8147 43.6909" stroke="#FEDCC3" stroke-width="8.01772" stroke-linecap="round"/>
<path d="M24.6794 43.6909C23.4127 43.6909 19.0057 43.6909 17.1023 43.6909" stroke="#FEDCC3" stroke-width="8.01772" stroke-linecap="round"/>
<path d="M44.918 46.9246C42.4155 49.8142 39.4185 49.8143 36.3416 46.9246" stroke="#F68E00" stroke-width="4.81063" stroke-linecap="round"/>
<path d="M48.9781 45.531C49.4219 45.3219 49.7518 44.9084 49.7518 44.4179C49.7518 40.8765 45.7514 38.0056 40.8166 38.0056C35.8818 38.0056 31.8813 40.8765 31.8813 44.4179C31.8813 44.9084 32.2113 45.3219 32.655 45.531L36.716 47.4443C39.3128 48.6677 42.3203 48.6677 44.9172 47.4443L48.9781 45.531Z" fill="#FDC300"/>
<path d="M40.3108 40.6328C38.5969 40.5314 38.0852 40.564 36.8788 41.6558" stroke="white" stroke-opacity="0.4" stroke-width="2.40532" stroke-linecap="round"/>
<path d="M60.069 27.5083L55.5813 31.3884L60.069 35.446" stroke="#333331" stroke-width="2.56567" stroke-linecap="round" stroke-linejoin="round"/>
<path d="M19.4158 35.4458L23.9036 31.5657L19.4158 27.5081" stroke="#333331" stroke-width="2.56567" stroke-linecap="round" stroke-linejoin="round"/>
</svg>
