<svg width="81" height="80" viewBox="0 0 81 80" fill="none" xmlns="http://www.w3.org/2000/svg">
<circle cx="40.7637" cy="40" r="40" fill="#333331"/>
<path fill-rule="evenodd" clip-rule="evenodd" d="M57.5907 54.3181C68.6603 54.3181 77.634 45.3444 77.634 34.2748C77.634 23.2051 68.6603 14.2314 57.5907 14.2314C53.202 14.2314 49.1427 15.642 45.8415 18.0344C43.0197 20.0793 38.5058 20.0793 35.6841 18.0344C32.3829 15.642 28.3236 14.2315 23.9349 14.2315C12.8653 14.2315 3.8916 23.2052 3.8916 34.2748C3.8916 45.3444 12.8653 54.3181 23.9349 54.3181C28.3236 54.3181 32.3829 52.9076 35.6841 50.5152C38.5058 48.4702 43.0198 48.4702 45.8415 50.5152C49.1427 52.9076 53.202 54.3181 57.5907 54.3181Z" fill="white" fill-opacity="0.2"/>
<ellipse cx="58.5397" cy="31.4767" rx="14.0362" ry="14.0362" fill="white"/>
<path d="M59.8773 39.173C59.8773 40.6807 58.6551 41.9029 57.1474 41.9029C55.6397 41.9029 54.4175 40.6807 54.4175 39.173C54.4175 37.6653 55.6397 36.4431 57.1474 36.4431C58.6551 36.4431 59.8773 37.6653 59.8773 39.173Z" fill="#333331"/>
<circle cx="22.9845" cy="31.4769" r="14.0362" fill="white"/>
<path d="M25.7142 39.7626C25.7142 41.2703 24.492 42.4925 22.9843 42.4925C21.4766 42.4925 20.2544 41.2703 20.2544 39.7626C20.2544 38.2549 21.4766 37.0327 22.9843 37.0327C24.492 37.0327 25.7142 38.2549 25.7142 39.7626Z" fill="#333331"/>
<ellipse cx="58.5397" cy="31.4769" rx="14.0362" ry="14.0362" fill="white"/>
<path d="M59.8773 39.1733C59.8773 40.681 58.6551 41.9032 57.1474 41.9032C55.6397 41.9032 54.4175 40.681 54.4175 39.1733C54.4175 37.6656 55.6397 36.4434 57.1474 36.4434C58.6551 36.4434 59.8773 37.6656 59.8773 39.1733Z" fill="#333331"/>
<path d="M45.4391 28.2406L72.4534 32.7544" stroke="black" stroke-width="2.40532" stroke-linecap="round"/>
<path d="M35.9625 28.2406L8.94819 32.7544" stroke="black" stroke-width="2.40532" stroke-linecap="round"/>
<circle cx="22.9845" cy="31.4769" r="14.0362" fill="white"/>
<path d="M25.7142 39.7626C25.7142 41.2703 24.492 42.4925 22.9843 42.4925C21.4766 42.4925 20.2544 41.2703 20.2544 39.7626C20.2544 38.2549 21.4766 37.0327 22.9843 37.0327C24.492 37.0327 25.7142 38.2549 25.7142 39.7626Z" fill="#333331"/>
<path d="M51.0075 15.7018L70.8467 19.4609L74.8984 33.8788L58.0472 31.3799L42.5601 28.7872L51.0075 15.7018Z" fill="#5C5C5A"/>
<path d="M31.011 15.8421L11.8743 18.4177L6.93246 33.8786L23.7837 31.3797L39.2707 28.787L31.011 15.8421Z" fill="#5C5C5A"/>
<path d="M41.1062 57.1904V61.2228" stroke="black" stroke-width="3.20709" stroke-linecap="round"/>
<path d="M41.5298 57.415L44.8047 59.7677" stroke="black" stroke-width="3.20709" stroke-linecap="round"/>
<path d="M40.6819 57.415L37.407 59.7677" stroke="black" stroke-width="3.20709" stroke-linecap="round"/>
<path d="M48.8084 48.3465C49.2656 48.1946 49.6168 47.8021 49.6168 47.3203C49.6168 43.7789 45.6163 39.1731 40.6816 39.1731C35.7468 39.1731 31.7463 43.7789 31.7463 47.3203C31.7463 47.8021 32.0975 48.1946 32.5548 48.3465L37.6481 50.0387C39.6175 50.693 41.7456 50.693 43.7151 50.0387L48.8084 48.3465Z" fill="#FDC300"/>
<path d="M40.6826 42.1628C39.5861 41.9628 37.6005 42.1628 36.7309 43.8895" stroke="white" stroke-opacity="0.4" stroke-width="2.40532" stroke-linecap="round"/>
<path d="M36.3943 49.3762C38.6292 48.1571 42.1571 48.2024 44.9707 49.3762" stroke="#F68E00" stroke-width="4.81063" stroke-linecap="round"/>
<path d="M45.4391 28.2406L72.4534 32.7544" stroke="black" stroke-width="2.40532" stroke-linecap="round"/>
<path d="M35.9625 28.2406L8.94819 32.7544" stroke="black" stroke-width="2.40532" stroke-linecap="round"/>
<path d="M46.6721 16.3918C46.7627 17.5028 47.4276 19.7321 49.3627 19.762" stroke="black" stroke-width="2.40532" stroke-linecap="round"/>
<path d="M34.3247 16.3918C34.2341 17.5028 33.5692 19.7321 31.6341 19.762" stroke="black" stroke-width="2.40532" stroke-linecap="round"/>
</svg>
