<svg width="81" height="80" viewBox="0 0 81 80" fill="none" xmlns="http://www.w3.org/2000/svg">
<circle cx="40.439" cy="40" r="40" fill="#111F68"/>
<path fill-rule="evenodd" clip-rule="evenodd" d="M57.266 54.3181C68.3356 54.3181 77.3093 45.3444 77.3093 34.2748C77.3093 23.2051 68.3356 14.2314 57.266 14.2314C52.8773 14.2314 48.818 15.642 45.5168 18.0344C42.695 20.0793 38.1811 20.0793 35.3594 18.0344C32.0582 15.642 27.9989 14.2315 23.6102 14.2315C12.5406 14.2315 3.56689 23.2052 3.56689 34.2748C3.56689 45.3444 12.5406 54.3181 23.6102 54.3181C27.9989 54.3181 32.0582 52.9076 35.3594 50.5152C38.1811 48.4702 42.6951 48.4702 45.5168 50.5152C48.818 52.9076 52.8773 54.3181 57.266 54.3181Z" fill="white" fill-opacity="0.2"/>
<path d="M40.7815 57.1904V61.2228" stroke="#414C86" stroke-width="3.20709" stroke-linecap="round"/>
<path d="M41.2051 57.415L44.4799 59.7677" stroke="#414C86" stroke-width="3.20709" stroke-linecap="round"/>
<path d="M40.3572 57.415L37.0823 59.7677" stroke="#414C86" stroke-width="3.20709" stroke-linecap="round"/>
<path d="M48.4837 48.3465C48.9409 48.1946 49.2921 47.8021 49.2921 47.3203C49.2921 43.7789 45.2916 39.1731 40.3569 39.1731C35.4221 39.1731 31.4216 43.7789 31.4216 47.3203C31.4216 47.8021 31.7728 48.1946 32.23 48.3465L37.3234 50.0387C39.2928 50.693 41.4209 50.693 43.3903 50.0387L48.4837 48.3465Z" fill="#FDC300"/>
<path d="M40.3579 42.1628C39.2614 41.9628 37.2758 42.1628 36.4062 43.8895" stroke="white" stroke-opacity="0.4" stroke-width="2.40532" stroke-linecap="round"/>
<path d="M36.0696 49.3762C38.3045 48.1571 41.8324 48.2024 44.646 49.3762" stroke="#F68E00" stroke-width="4.81063" stroke-linecap="round"/>
<ellipse cx="58.2157" cy="31.4769" rx="14.0362" ry="14.0362" fill="white"/>
<path d="M64.3642 29.7777C64.3642 33.1735 61.6113 35.9264 58.2154 35.9264C54.8195 35.9264 52.0667 33.1735 52.0667 29.7777C52.0667 26.3818 54.8195 23.6289 58.2154 23.6289C61.6113 23.6289 64.3642 26.3818 64.3642 29.7777Z" fill="#333331"/>
<path d="M50.4852 16.0385L67.9537 18.5702L75.1817 33.8389L67.1771 31.4203C61.3112 29.6479 55.2166 28.7473 49.0888 28.7473L42.8434 28.7473L50.4852 16.0385Z" fill="#414C86"/>
<circle cx="14.0362" cy="14.0362" r="14.0362" transform="matrix(-1 0 0 1 37.0457 17.4407)" fill="white"/>
<path d="M16.8602 29.7777C16.8602 33.1735 19.6131 35.9264 23.009 35.9264C26.4048 35.9264 29.1577 33.1735 29.1577 29.7777C29.1577 26.3818 26.4048 23.6289 23.009 23.6289C19.6131 23.6289 16.8602 26.3818 16.8602 29.7777Z" fill="#333331"/>
<path d="M30.7399 16.0385L13.2714 18.5702L6.04344 33.8389L14.048 31.4203C19.9139 29.6479 26.0085 28.7473 32.1363 28.7473L38.3817 28.7473L30.7399 16.0385Z" fill="#414C86"/>
<path d="M44.4207 28.7825C49.5117 27.8344 62.2427 27.3497 72.4389 32.9956" stroke="#111F68" stroke-width="2.56567" stroke-linecap="round" stroke-linejoin="round"/>
<path d="M36.406 28.7825C31.315 27.8344 18.5839 27.3497 8.38778 32.9956" stroke="#111F68" stroke-width="2.56567" stroke-linecap="round" stroke-linejoin="round"/>
</svg>
