<svg width="25" height="25" viewBox="0 0 25 25" fill="currentColor" xmlns="http://www.w3.org/2000/svg">
<path d="M21.2929 8.77638L14.7429 3.53638C13.4629 2.51638 11.4629 2.50638 10.1929 3.52638L3.64285 8.77638C2.70285 9.52638 2.13285 11.0264 2.33285 12.2064L3.59285 19.7464C3.88285 21.4364 5.45285 22.7664 7.16285 22.7664H17.7629C19.4529 22.7664 21.0529 21.4064 21.3429 19.7364L22.6029 12.1964C22.7829 11.0264 22.2129 9.52638 21.2929 8.77638ZM13.2129 18.7664C13.2129 19.1764 12.8729 19.5164 12.4629 19.5164C12.0529 19.5164 11.7129 19.1764 11.7129 18.7664V15.7664C11.7129 15.3564 12.0529 15.0164 12.4629 15.0164C12.8729 15.0164 13.2129 15.3564 13.2129 15.7664V18.7664Z" fill="currentColor"/>
</svg>
